<svg width="506" height="370" viewBox="0 0 506 370" fill="none" xmlns="http://www.w3.org/2000/svg">
<path d="M426.003 0C430.818 25.5565 416.624 45 416.624 45C407.251 24.9596 426.003 0 426.003 0Z" fill="#92CE91"/>
<path d="M425 76C408.854 75.5294 398 64.4073 398 64.4073C411.121 61.4035 425 76 425 76Z" fill="#92CE91"/>
<path d="M391.606 62C388.361 43.1743 399.203 28 399.203 28C405.929 42.544 391.606 62 391.606 62Z" fill="#92CE91"/>
<path d="M433.997 38.0086C434.198 38.3034 422.711 46.1546 408.359 55.5348C394.007 64.9151 382.196 72.2863 382.002 71.9915C381.809 71.6966 393.317 63.8454 407.648 54.4583C421.979 45.0712 433.804 37.7137 433.997 38.0086Z" fill="#92CE91"/>
<path d="M465 11C465 11 454.315 38.2592 428 41C428 41 436.785 17.6185 465 11Z" fill="#92CE91"/>
<path d="M460 53.4153C460 53.4153 434.864 68.8259 412 55.7142C412.021 55.7142 433.281 42.2817 460 53.4153Z" fill="#92CE91"/>
<path d="M235.603 166.559C238.08 165.069 240.745 163.917 243.527 163.133L245.192 155.233L258.445 155L260.349 162.784C263.158 163.476 265.863 164.541 268.39 165.949L275.089 161.557L284.623 170.766L280.473 177.617C281.962 180.095 283.114 182.761 283.897 185.545L291.767 187.176L292 200.434L284.233 202.338C283.539 205.161 282.465 207.876 281.041 210.41L285.432 217.111L276.226 226.648L269.377 222.496C266.898 223.983 264.233 225.135 261.452 225.922L259.822 233.767L246.569 234L244.664 226.216C241.855 225.525 239.15 224.46 236.623 223.051L229.925 227.443L220.39 218.234L224.541 211.383C223.052 208.904 221.9 206.238 221.116 203.455L213.274 201.824L213 188.56L220.781 186.655C221.476 183.844 222.545 181.138 223.959 178.611L219.568 171.91L228.753 162.372L235.603 166.559ZM242.664 184.216C240.71 186.239 239.4 188.797 238.899 191.565C238.398 194.334 238.729 197.188 239.85 199.769C240.971 202.349 242.832 204.539 245.197 206.061C247.562 207.583 250.325 208.37 253.138 208.321C255.95 208.272 258.684 207.39 260.995 205.786C263.306 204.183 265.089 201.93 266.12 199.312C267.151 196.694 267.383 193.83 266.786 191.08C266.189 188.331 264.79 185.82 262.767 183.866C260.06 181.25 256.427 179.815 252.664 179.874C248.901 179.933 245.315 181.482 242.692 184.181L242.664 184.216Z" fill="#2E2E2E"/>
<path d="M58.7739 104.149C61.8145 102.312 65.0877 100.891 68.506 99.9229L70.5099 90.2872L86.794 90L89.133 99.5742C92.5761 100.419 95.8906 101.721 98.9882 103.445L107.195 98.0491L118.959 109.381L113.857 117.792C115.694 120.833 117.115 124.106 118.083 127.524L127.713 129.514L128 145.79L118.425 148.136C117.577 151.586 116.271 154.907 114.541 158.011L119.937 166.217L108.625 177.932L100.212 172.83C97.178 174.672 93.9122 176.103 90.5008 177.084L88.4901 186.72L72.2129 187L69.867 177.426C66.4224 176.579 63.1059 175.277 60.0049 173.555L51.7979 178.951L40.0482 167.64L45.1502 159.228C43.3136 156.186 41.89 152.914 40.9168 149.497L31.2804 147.493L31 131.21L40.5748 128.871C41.427 125.419 42.7357 122.096 44.4663 118.989L39.0702 110.783L50.3617 99.0476L58.7739 104.149ZM67.4528 125.835C65.0526 128.32 63.4432 131.46 62.8282 134.86C62.2131 138.259 62.6201 141.764 63.9975 144.933C65.3749 148.101 67.661 150.789 70.5666 152.658C73.4722 154.527 76.8668 155.493 80.3211 155.432C83.7754 155.372 87.1343 154.289 89.9729 152.32C92.8115 150.351 95.0024 147.584 96.2685 144.37C97.5346 141.155 97.819 137.638 97.0857 134.262C96.3524 130.886 94.6345 127.803 92.1491 125.404C88.8168 122.187 84.343 120.425 79.7117 120.506C75.0804 120.586 70.6708 122.503 67.4528 125.835Z" fill="#FCB05C"/>
<path d="M421.902 295.693C424.629 294.046 427.563 292.769 430.627 291.898L432.425 283.26L447.023 283L449.122 291.576C452.227 292.335 455.216 293.505 458.011 295.057L465.388 290.222L475.884 300.364L471.316 307.887C472.965 310.616 474.239 313.553 475.104 316.621L483.747 318.42L484 333.014L475.433 335.121C474.675 338.222 473.505 341.208 471.952 343.998L476.739 351.377L466.619 361.882L459.098 357.307C456.369 358.954 453.433 360.231 450.366 361.102L448.568 369.74L433.97 370L431.851 361.437C428.746 360.678 425.756 359.508 422.962 357.956L415.618 362.805L405.116 352.663L409.69 345.14C408.043 342.41 406.767 339.473 405.896 336.406L397.26 334.608L397 320.013L405.574 317.907C406.33 314.797 407.498 311.802 409.048 309.002L404.214 301.623L414.354 291.118L421.875 295.693H421.902ZM429.683 315.144C427.532 317.372 426.09 320.189 425.54 323.237C424.989 326.285 425.354 329.428 426.59 332.269C427.825 335.109 429.874 337.519 432.479 339.195C435.084 340.87 438.127 341.735 441.223 341.681C444.32 341.626 447.33 340.654 449.875 338.888C452.419 337.122 454.383 334.641 455.517 331.759C456.652 328.877 456.906 325.723 456.249 322.696C455.591 319.669 454.051 316.905 451.823 314.754C450.344 313.325 448.598 312.201 446.685 311.447C444.771 310.693 442.728 310.323 440.672 310.36C438.616 310.396 436.587 310.837 434.702 311.658C432.816 312.479 431.111 313.663 429.683 315.144Z" fill="#FC81B3"/>
<path d="M69.3816 354C63.7916 328.773 76.97 309 76.97 309C86.8573 328.589 69.3816 354 69.3816 354Z" fill="#92CE91"/>
<path d="M68 278C83.9231 277.919 95 288.466 95 288.466C82.1752 291.857 68 278 68 278Z" fill="#92CE91"/>
<path d="M102.145 291C105.907 309.605 96.0373 325 96.0373 325C89.0883 310.768 102.145 291 102.145 291Z" fill="#92CE91"/>
<path d="M60.0028 315.992C59.7949 315.695 71.039 307.407 85.1255 297.469C99.2119 287.53 110.775 279.718 110.997 280.008C111.219 280.298 99.9606 288.586 85.8742 298.525C71.7877 308.463 60.2108 316.282 60.0028 315.992Z" fill="#92CE91"/>
<path d="M30 344C30 344 39.7407 315.728 66 312C66 312.021 58.026 336.26 30 344Z" fill="#92CE91"/>
<path d="M33 302.059C33 302.059 57.6278 284.815 81 297.909C81 297.909 60.1871 312.911 33 302.059Z" fill="#92CE91"/>
<path d="M476.741 185.975C478.029 185.199 479.415 184.598 480.863 184.189L481.715 180.117L488.585 180L489.574 184.038C491.034 184.395 492.439 184.947 493.751 185.68L497.227 183.399L502.173 188.207L500.023 191.757C500.799 193.045 501.4 194.431 501.809 195.878L505.876 196.723L506 203.59L501.96 204.579C501.602 206.036 501.05 207.438 500.319 208.748L502.599 212.223L497.79 217.175L494.239 215.018C492.951 215.796 491.565 216.396 490.117 216.804L489.272 220.876L482.402 221L481.412 216.962C479.956 216.6 478.554 216.049 477.242 215.32L473.759 217.594L468.813 212.821L470.97 209.263C470.19 207.976 469.587 206.59 469.177 205.143L465.124 204.263L465 197.396L469.04 196.407C469.402 194.954 469.954 193.554 470.681 192.245L468.401 188.77L473.21 183.825L476.768 185.975H476.741ZM480.403 195.136C479.386 196.186 478.705 197.513 478.443 198.95C478.182 200.387 478.353 201.87 478.935 203.21C479.517 204.549 480.483 205.687 481.711 206.477C482.94 207.268 484.375 207.677 485.836 207.652C487.297 207.627 488.718 207.169 489.918 206.337C491.119 205.505 492.046 204.335 492.581 202.976C493.117 201.617 493.237 200.13 492.926 198.703C492.616 197.275 491.889 195.972 490.838 194.958C490.141 194.284 489.318 193.755 488.417 193.399C487.515 193.044 486.552 192.869 485.583 192.886C484.614 192.902 483.658 193.11 482.769 193.496C481.88 193.882 481.076 194.439 480.403 195.136Z" fill="#92CE91"/>
<path d="M147.633 277.505C150.111 276.014 152.776 274.861 155.559 274.077L157.198 266.233L170.458 266L172.371 273.775C175.175 274.467 177.875 275.528 180.4 276.929L187.099 272.534L196.65 281.749L192.488 288.606C193.983 291.083 195.136 293.752 195.916 296.539L203.767 298.17L204 311.438L196.211 313.344C195.521 316.157 194.455 318.864 193.043 321.393L197.438 328.099L188.223 337.643L181.367 333.488C178.887 334.978 176.219 336.131 173.434 336.916L171.795 344.774L158.535 345L156.622 337.211C153.81 336.522 151.102 335.459 148.572 334.05L141.874 338.445L132.405 329.244L136.56 322.387C135.069 319.908 133.916 317.24 133.132 314.455L125.233 312.857L125 299.59L132.789 297.677C133.482 294.867 134.547 292.162 135.957 289.634L131.562 282.929L140.777 273.384L147.633 277.539V277.505ZM154.702 295.174C152.746 297.199 151.434 299.758 150.933 302.529C150.431 305.299 150.762 308.156 151.885 310.738C153.007 313.32 154.87 315.511 157.237 317.035C159.605 318.558 162.371 319.345 165.186 319.296C168.001 319.247 170.738 318.365 173.052 316.76C175.365 315.155 177.151 312.901 178.182 310.281C179.214 307.662 179.446 304.795 178.849 302.044C178.251 299.292 176.851 296.78 174.826 294.825C172.11 292.205 168.465 290.77 164.692 290.835C160.918 290.901 157.326 292.461 154.702 295.174Z" fill="#0059DF"/>
<path d="M468.902 100.309C470.954 98.8458 472.523 96.8246 473.414 94.4962C474.305 92.1677 474.48 89.6341 473.916 87.2093C472.43 80.3428 465.895 75.8786 459.333 77.2465C452.77 78.6143 448.603 85.3039 450.117 92.1499C450.609 94.6111 451.835 96.874 453.64 98.6523C455.445 100.431 457.747 101.644 460.256 102.14C442.554 108.728 447.693 128 447.693 128L491 119.017C491 119.017 487.632 99.1389 468.902 100.309Z" fill="#50B8D4"/>
<path d="M468.921 100.725L469.507 100.691C470.056 100.647 470.608 100.636 471.159 100.656C473.924 100.671 476.649 101.311 479.131 102.53C481.613 103.748 483.787 105.512 485.491 107.691C488.241 111.197 490.128 115.301 491 119.672V119.816H490.849L447.917 128.959L447.731 129L447.69 128.821C447.229 126.775 446.998 124.683 447.001 122.586C446.982 120.418 447.232 118.257 447.745 116.151C448.512 112.943 450.1 109.99 452.352 107.58C453.464 106.42 454.71 105.395 456.064 104.528C457.401 103.708 458.812 103.016 460.278 102.461L460.313 102.827C457.859 102.351 455.605 101.152 453.839 99.3817C451.389 96.9434 449.959 93.6622 449.841 90.2063C449.723 86.7504 450.927 83.3795 453.206 80.7799C454.555 79.2993 456.264 78.1941 458.168 77.5722C460.072 76.9503 462.104 76.833 464.066 77.2318C465.741 77.5951 467.326 78.2931 468.724 79.284C470.123 80.2749 471.307 81.5383 472.206 82.9983C472.998 84.2521 473.571 85.6312 473.9 87.077C474.208 88.3526 474.328 89.6661 474.258 90.9765C474.151 93.0678 473.541 95.1024 472.482 96.9084C471.819 98.0365 470.977 99.0488 469.989 99.9053C469.742 100.128 469.48 100.333 469.204 100.519L468.914 100.725L469.169 100.512C469.341 100.367 469.631 100.16 469.947 99.8227C470.905 98.9515 471.721 97.9356 472.365 96.8119C473.392 95.0166 473.975 93.0017 474.066 90.9351C474.126 89.6417 473.996 88.3464 473.68 87.0907C473.348 85.6726 472.778 84.3213 471.993 83.0948C471.109 81.6672 469.946 80.4332 468.573 79.467C467.2 78.5009 465.646 77.8226 464.004 77.4729C462.093 77.0896 460.115 77.2087 458.263 77.8185C456.412 78.4283 454.75 79.508 453.44 80.9521C451.234 83.4902 450.074 86.7716 450.194 90.1328C450.314 93.4939 451.706 96.684 454.087 99.0579C455.808 100.76 457.997 101.909 460.375 102.358L461.015 102.475L460.409 102.723C458.972 103.286 457.589 103.978 456.277 104.79C454.95 105.641 453.73 106.647 452.641 107.787C450.414 110.172 448.85 113.098 448.103 116.275C447.598 118.347 447.353 120.474 447.373 122.606C447.376 124.672 447.607 126.731 448.061 128.745L447.834 128.607L490.8 119.548L490.683 119.72C489.837 115.394 487.99 111.326 485.291 107.842C483.227 105.199 480.485 103.166 477.357 101.958C475.373 101.211 473.279 100.798 471.159 100.739C470.436 100.684 469.844 100.739 469.472 100.739L468.921 100.725Z" fill="#50B8D4"/>
<path d="M24.1778 82.7279C26.0357 82.573 27.8068 81.8834 29.2722 80.7443C30.7375 79.6053 31.8328 78.0668 32.4226 76.3191C34.1747 71.397 31.8043 66.0948 27.1391 64.4722C22.4739 62.8496 17.2866 65.5449 15.5552 70.4669C14.9036 72.216 14.7909 74.1165 15.231 75.9289C15.6712 77.7412 16.6447 79.3841 18.0286 80.6505C4.3079 78.125 0 92.3141 0 92.3141L30.7531 103C30.7531 103 36.4145 89.0961 24.1778 82.7279Z" fill="#50B8D4"/>
<path d="M24.1484 83.1773L24.5288 83.3847C24.8914 83.5658 25.243 83.7689 25.5817 83.9928C27.3202 85.0756 28.7944 86.5456 29.8934 88.2922C30.9924 90.0388 31.6875 92.0164 31.9262 94.0759C32.3156 97.3844 31.9316 100.74 30.8054 103.869L30.7578 104L30.622 103.952L0.176613 93.1222L0 93.0531L0.0611353 92.8527C1.06227 89.8156 2.7302 87.0504 4.93837 84.7669C6.65899 83.0201 8.79603 81.758 11.1402 81.1041C12.2837 80.7899 13.461 80.6204 14.6453 80.5996C15.8 80.5866 16.9532 80.6861 18.0892 80.8967L17.933 81.2285C16.5643 79.9767 15.5984 78.3341 15.1615 76.5152C14.5542 73.998 14.9122 71.3399 16.1627 69.0817C17.4133 66.8234 19.4624 65.1346 21.8932 64.3589C23.3075 63.9314 24.8067 63.885 26.244 64.2242C27.6812 64.5634 29.0072 65.2766 30.0921 66.2939C31.0136 67.1839 31.7467 68.2559 32.2466 69.4442C32.7465 70.6326 33.0027 71.9122 32.9995 73.2049C33.021 75.3101 32.4043 77.3709 31.2333 79.1068C30.3627 80.402 29.1976 81.4641 27.8369 82.2029C26.9879 82.6639 26.0698 82.9792 25.1198 83.1359C24.794 83.1908 24.4649 83.2231 24.1348 83.2326C24.1348 83.2326 24.4609 83.2326 25.1062 83.0737C26.0379 82.8833 26.9357 82.55 27.769 82.0854C29.0921 81.3356 30.2212 80.2768 31.0635 78.9962C32.1876 77.2834 32.7749 75.2642 32.7481 73.2049C32.7416 71.9498 32.4848 70.7092 31.9932 69.5581C31.5017 68.4071 30.7856 67.3695 29.8883 66.5082C28.8408 65.5269 27.5609 64.8391 26.1737 64.512C24.7866 64.185 23.3397 64.2298 21.9747 64.6422C19.6321 65.3992 17.6603 67.0346 16.4594 69.2164C15.2585 71.3982 14.9183 73.9632 15.508 76.3908C15.9373 78.1335 16.8666 79.7068 18.1775 80.9106L18.6598 81.3459L18.0145 81.2423C16.894 81.0359 15.7567 80.9387 14.6181 80.952C13.4707 80.976 12.3303 81.1407 11.2217 81.4427C8.93408 82.099 6.85472 83.3521 5.1897 85.0779C3.04015 87.3183 1.41485 90.023 0.43474 92.9909L0.319262 92.7559L30.7103 103.668L30.5269 103.751C31.6471 100.662 32.0448 97.349 31.6884 94.0759C31.4077 91.5935 30.4684 89.2357 28.9713 87.2548C28.0218 86.0055 26.8739 84.9264 25.5749 84.0619C25.147 83.744 24.753 83.5367 24.5288 83.3708L24.1484 83.1773Z" fill="#92CE91"/>
<path d="M421.803 190H288.636C286.628 190 284.701 190.797 283.28 192.215C281.86 193.633 281.062 195.556 281.062 197.561V246.566H277.743C276.199 246.552 274.677 246.188 273.295 245.501C270.205 244.017 266.792 243.334 263.368 243.513C259.945 243.692 256.621 244.728 253.704 246.525C250.787 248.322 248.369 250.823 246.674 253.798C244.979 256.772 244.06 260.125 244.003 263.546C243.946 266.968 244.752 270.349 246.346 273.379C247.941 276.408 250.274 278.988 253.13 280.881C255.985 282.775 259.272 283.921 262.688 284.214C266.103 284.507 269.538 283.938 272.675 282.558C273.973 281.968 275.38 281.656 276.807 281.644H281.069V329.439C281.069 331.444 281.867 333.367 283.287 334.785C284.708 336.203 286.634 337 288.643 337H421.803C423.44 337 425.012 336.353 426.173 335.2C427.334 334.047 427.991 332.483 428 330.848V196.152C427.991 194.517 427.334 192.953 426.173 191.8C425.012 190.647 423.44 190 421.803 190Z" fill="#F1F1F1"/>
<path d="M420.748 190.158H421.161C421.334 190.163 421.506 190.181 421.677 190.213C421.91 190.24 422.14 190.289 422.364 190.357C423.151 190.564 423.887 190.926 424.532 191.42C425.177 191.915 425.716 192.533 426.118 193.238C426.707 194.283 426.99 195.471 426.937 196.668C426.937 197.979 426.937 199.413 426.937 200.963C426.937 204.071 426.937 207.652 426.937 211.679C426.937 227.808 426.937 251.141 426.999 279.969C426.999 294.376 426.999 310.155 426.999 327.121C426.999 328.184 426.999 329.247 426.999 330.318C427.008 330.862 426.967 331.407 426.875 331.944C426.759 332.485 426.577 333.011 426.332 333.508C425.833 334.512 425.074 335.365 424.133 335.978C423.193 336.591 422.105 336.942 420.982 336.993H407.602H379.727H319.79H288.113C286.741 337.05 285.378 336.757 284.152 336.142C282.92 335.489 281.886 334.517 281.16 333.328C280.434 332.139 280.043 330.777 280.027 329.385V281.615L280.219 281.814H276.981C276.444 281.814 275.901 281.814 275.379 281.814C274.852 281.846 274.33 281.925 273.818 282.047C273.302 282.167 272.796 282.325 272.305 282.521C271.824 282.72 271.315 282.946 270.813 283.131C269.8 283.51 268.758 283.809 267.698 284.023C266.642 284.237 265.571 284.365 264.494 284.407C263.958 284.442 263.421 284.442 262.885 284.407C262.349 284.373 261.812 284.359 261.276 284.311C259.143 284.041 257.06 283.471 255.088 282.617C251.207 280.851 247.968 277.932 245.812 274.261C244.777 272.443 244.004 270.489 243.516 268.457C243.392 267.956 243.337 267.434 243.248 266.927L243.124 266.158C243.124 265.898 243.089 265.637 243.076 265.383L243 263.833L243.083 262.282C243.388 258.17 244.937 254.246 247.524 251.031C250.042 247.896 253.427 245.567 257.259 244.334C261.091 243.101 265.201 243.018 269.08 244.095C270.019 244.356 270.939 244.684 271.831 245.076C272.682 245.513 273.576 245.862 274.498 246.119C275.414 246.356 276.359 246.46 277.304 246.428H280.171L279.992 246.606C279.992 232.384 279.992 218.697 279.992 205.628V200.757C279.992 199.955 279.992 199.152 279.992 198.349C279.957 197.536 280.029 196.722 280.205 195.927C280.58 194.341 281.449 192.915 282.688 191.852C283.31 191.336 284.005 190.913 284.75 190.597C285.489 190.297 286.267 190.105 287.061 190.027C293.311 189.966 299.355 190.027 305.24 190.027L366.532 190.069L406.412 190.117H417.015H419.765H420.693H419.765H417.015H406.412L366.532 190.165L305.24 190.213C299.368 190.213 293.29 190.213 287.088 190.247C286.328 190.321 285.582 190.503 284.874 190.789C284.167 191.096 283.509 191.505 282.921 192.003C281.732 193.018 280.898 194.386 280.542 195.907C280.376 196.677 280.307 197.466 280.336 198.253V200.661C280.336 202.28 280.336 203.899 280.336 205.532C280.336 218.567 280.336 232.288 280.336 246.51V246.688H277.345C276.368 246.723 275.39 246.617 274.443 246.373C273.505 246.112 272.595 245.758 271.727 245.316C270.848 244.926 269.94 244.602 269.011 244.349C265.236 243.3 261.235 243.374 257.501 244.562C253.703 245.774 250.344 248.071 247.841 251.168C245.302 254.328 243.784 258.182 243.488 262.22L243.406 263.737L243.481 265.26C243.481 265.513 243.481 265.767 243.529 266.021L243.653 266.776C243.743 267.277 243.798 267.784 243.915 268.278C244.398 270.27 245.155 272.186 246.163 273.972C248.265 277.613 251.448 280.511 255.273 282.267C257.2 283.101 259.235 283.66 261.317 283.927C261.84 283.975 262.369 283.989 262.892 284.023C263.419 284.054 263.947 284.054 264.473 284.023C265.529 283.977 266.58 283.849 267.616 283.639C268.655 283.431 269.676 283.14 270.669 282.768C271.17 282.582 271.645 282.37 272.154 282.164C272.662 281.958 273.187 281.793 273.721 281.67C274.254 281.539 274.797 281.457 275.344 281.423C275.901 281.389 276.437 281.423 276.974 281.423H280.412V329.385C280.429 330.704 280.801 331.995 281.487 333.124C282.174 334.252 283.151 335.176 284.317 335.799C285.486 336.41 286.794 336.708 288.113 336.664H319.817H379.754H421.01C422.073 336.612 423.103 336.279 423.994 335.697C424.885 335.116 425.604 334.308 426.077 333.357C426.311 332.889 426.484 332.393 426.593 331.882C426.684 331.366 426.723 330.842 426.71 330.318V327.121C426.71 310.175 426.71 294.382 426.71 279.969C426.71 251.154 426.758 227.829 426.772 211.679C426.772 207.652 426.772 204.071 426.772 200.963C426.772 199.413 426.772 197.979 426.772 196.668C426.831 195.485 426.557 194.308 425.981 193.272C425.192 191.888 423.891 190.866 422.357 190.425C422.132 190.358 421.902 190.308 421.67 190.274C421.502 190.244 421.332 190.223 421.161 190.213L420.748 190.158Z" fill="#1A2E35"/>
<path d="M399.903 85.5085C397.132 85.5038 394.387 86.0514 391.83 87.1195C390.55 87.668 389.175 87.9558 387.783 87.9663L382.479 87.6496L382.211 43.0436C382.211 39.1537 378.886 36.0005 374.784 36.0005H368.903H242.415C241.479 35.9896 240.551 36.1638 239.682 36.5131C238.814 36.8625 238.023 37.3801 237.355 38.0363C236.687 38.6925 236.154 39.4744 235.788 40.3372C235.422 41.2 235.229 42.1267 235.221 43.0642V87.3811H232.061C230.595 87.3754 229.151 87.0364 227.835 86.3897C224.496 84.7718 218.258 82.6858 214.012 83.388C205.575 84.7649 197 93.302 197 101.688C197 115.746 207.993 124.552 219.433 124.552C222.121 124.555 224.782 124.006 227.251 122.941C228.329 122.399 229.516 122.114 230.721 122.108H235.221V165.956C235.232 166.892 235.427 167.817 235.794 168.677C236.161 169.538 236.694 170.317 237.362 170.971C238.03 171.625 238.82 172.141 239.687 172.489C240.554 172.837 241.481 173.01 242.415 173H374.578C378.7 173 382.005 169.846 382.005 165.956L382.238 120.318L386.883 120.641C388.394 120.654 389.884 120.992 391.253 121.633C395.045 123.375 399.269 123.945 403.386 123.271C412.105 121.894 418.907 115.01 419.876 106.672C421.202 95.2022 411.755 85.5085 399.903 85.5085Z" fill="#EFEFEF"/>
<path d="M399.871 85.566C399.871 85.566 400.331 85.566 401.244 85.614H401.999C402.28 85.614 402.582 85.6964 402.911 85.7445L403.989 85.9024C404.373 85.9641 404.771 86.0946 405.203 86.1976C410.309 87.4788 414.703 90.7228 417.433 95.2254C417.88 95.9799 418.27 96.7671 418.6 97.5802C418.956 98.4365 419.249 99.3176 419.478 100.216C419.601 100.67 419.65 101.15 419.746 101.631L419.869 102.352C419.903 102.599 419.903 102.846 419.924 103.093C419.924 103.594 419.993 104.102 420 104.61C420.006 105.118 419.938 105.633 419.91 106.155C419.723 108.337 419.137 110.466 418.181 112.437C417.141 114.571 415.712 116.492 413.967 118.1C410.051 121.722 404.888 123.69 399.555 123.593C396.652 123.551 393.789 122.906 391.149 121.698C389.794 121.073 388.323 120.743 386.832 120.73L382.213 120.414L382.344 120.29C382.344 127.526 382.275 135.229 382.241 143.351C382.241 147.415 382.222 151.582 382.186 155.853C382.186 157.988 382.186 160.15 382.186 162.333C382.186 163.425 382.186 164.523 382.186 165.629C382.207 166.768 381.948 167.895 381.431 168.91C380.895 169.936 380.13 170.825 379.196 171.509C378.262 172.192 377.184 172.651 376.044 172.851C374.905 172.985 373.758 173.029 372.612 172.981H354.824H324.772H259.172H243.977C243.243 172.981 242.516 172.981 241.761 172.94C240.254 172.778 238.832 172.16 237.684 171.169C236.522 170.175 235.71 168.835 235.365 167.345C235.217 166.606 235.157 165.853 235.186 165.1V158.406C235.186 146.475 235.186 134.346 235.186 122.021L235.385 122.213H230.753C229.985 122.22 229.223 122.36 228.502 122.625C227.775 122.886 227.047 123.243 226.279 123.51C224.727 124.059 223.113 124.412 221.475 124.561C220.656 124.649 219.833 124.672 219.011 124.629C218.184 124.616 217.358 124.547 216.54 124.423C213.039 123.963 209.695 122.684 206.779 120.691C203.863 118.698 201.456 116.047 199.754 112.951C198.13 109.869 197.209 106.464 197.057 102.983C196.898 101.254 197.073 99.5108 197.572 97.8479C197.81 97.0216 198.108 96.2139 198.464 95.4313C198.836 94.6582 199.256 93.9085 199.72 93.1864C200.181 92.4733 200.68 91.7857 201.216 91.1268C201.762 90.475 202.342 89.8518 202.952 89.2595C204.154 88.0625 205.487 87.0053 206.926 86.1083C208.347 85.1986 209.875 84.4677 211.476 83.932C213.06 83.3531 214.738 83.076 216.424 83.1151C219.729 83.3265 222.976 84.0875 226.031 85.3669C226.793 85.6689 227.541 86.0122 228.276 86.3623C229.002 86.6832 229.765 86.9138 230.547 87.0489C231.334 87.1788 232.132 87.2294 232.928 87.1999H235.344L235.152 87.3853C235.152 72.8629 235.152 58.7296 235.152 44.9854C235.152 44.1272 235.152 43.2828 235.2 42.404C235.298 41.5326 235.559 40.6873 235.969 39.9119C236.793 38.3612 238.144 37.156 239.778 36.5136C240.58 36.1951 241.433 36.0231 242.296 36.0056C243.147 36.0056 243.977 36.0056 244.815 36.0056H269.335H339.404H368.913H373.992C374.548 35.9896 375.105 36.0079 375.659 36.0605C376.756 36.1739 377.815 36.5242 378.763 37.0872C379.711 37.6503 380.525 38.4126 381.15 39.3215C381.744 40.2069 382.126 41.2168 382.268 42.2736C382.378 43.324 382.316 44.3332 382.337 45.3424C382.337 47.3607 382.337 49.3311 382.337 51.2534C382.412 66.6315 382.467 78.9272 382.508 87.6393L382.454 87.5843L386.667 87.8384C387.871 87.9748 389.09 87.8887 390.263 87.5843C391.341 87.3166 392.254 86.8429 393.132 86.5614C393.92 86.3021 394.722 86.0866 395.534 85.9161C396.604 85.6977 397.689 85.5622 398.78 85.511C399.466 85.511 399.857 85.511 399.857 85.511L398.78 85.5522C396.865 85.6568 394.974 86.0241 393.159 86.6438C392.281 86.9184 391.375 87.399 390.284 87.6736C389.106 87.9914 387.879 88.0845 386.667 87.9482L382.447 87.7079H382.392V87.653C382.33 78.9547 382.241 66.659 382.131 51.2671C382.131 49.3448 382.117 47.3768 382.09 45.363C382.09 44.3538 382.124 43.3034 382.014 42.3148C381.877 41.2944 381.506 40.3194 380.93 39.4657C380.328 38.5883 379.544 37.8516 378.63 37.3065C377.717 36.7613 376.696 36.4206 375.639 36.3077C375.091 36.2605 374.541 36.2444 373.992 36.2596H372.317H368.92H339.411H269.342H244.856C243.188 36.2596 241.479 36.0948 239.949 36.7608C238.371 37.4126 237.085 38.6186 236.332 40.1522C235.941 40.8879 235.694 41.6919 235.605 42.5207C235.529 43.3377 235.571 44.2096 235.557 45.0609C235.557 58.7914 235.557 72.9247 235.557 87.4608V87.653H232.956C232.136 87.6857 231.315 87.6328 230.506 87.4951C229.691 87.3484 228.898 87.0992 228.145 86.7536C227.404 86.4035 226.677 86.0671 225.915 85.7719C222.899 84.5066 219.694 83.7526 216.431 83.5407C214.794 83.5111 213.165 83.7834 211.627 84.3439C210.054 84.8695 208.553 85.5891 207.159 86.4859C205.743 87.3684 204.431 88.407 203.247 89.5821C202.63 90.1451 202.101 90.7973 201.538 91.422C200.976 92.0468 200.502 92.7402 200.07 93.4816C199.619 94.19 199.209 94.9235 198.841 95.6785C198.497 96.4472 198.206 97.2386 197.97 98.047C197.488 99.6685 197.318 101.367 197.469 103.052C197.62 106.476 198.527 109.824 200.125 112.855C201.795 115.894 204.156 118.497 207.017 120.456C209.878 122.414 213.159 123.672 216.595 124.128C217.398 124.246 218.207 124.312 219.018 124.327C219.826 124.372 220.636 124.351 221.44 124.265C223.037 124.116 224.61 123.768 226.121 123.229C226.869 122.975 227.576 122.625 228.344 122.35C229.105 122.069 229.908 121.92 230.719 121.911H235.358H235.55V165.203C235.52 165.928 235.578 166.654 235.722 167.366C236.045 168.775 236.813 170.043 237.911 170.984C239 171.925 240.35 172.511 241.781 172.666C242.468 172.721 243.223 172.666 243.957 172.707H259.185H324.786H354.838H372.557C373.703 172.755 374.85 172.712 375.989 172.576C377.083 172.387 378.118 171.949 379.016 171.296C379.913 170.642 380.648 169.791 381.163 168.807C381.66 167.835 381.908 166.755 381.884 165.663C381.884 164.555 381.884 163.457 381.884 162.368C381.884 160.178 381.884 158.022 381.884 155.887C381.911 151.617 381.937 147.449 381.959 143.385C382.007 135.264 382.049 127.561 382.09 120.325V120.187H382.227L386.832 120.476C388.355 120.487 389.858 120.827 391.238 121.471C393.847 122.67 396.678 123.311 399.549 123.352C404.826 123.475 409.945 121.545 413.83 117.97C415.563 116.382 416.985 114.484 418.023 112.375C418.973 110.424 419.557 108.316 419.746 106.155C419.746 105.64 419.807 105.125 419.835 104.624C419.862 104.123 419.787 103.615 419.766 103.12C419.766 102.873 419.766 102.626 419.718 102.386L419.595 101.665C419.505 101.191 419.457 100.718 419.334 100.292C419.109 99.4004 418.82 98.5263 418.469 97.6763C418.144 96.8679 417.759 96.0853 417.316 95.3352C415.782 92.7494 413.668 90.5564 411.14 88.9299C409.313 87.726 407.297 86.8372 405.176 86.3005C404.751 86.1976 404.352 86.0671 403.968 86.0053L402.898 85.8337C402.568 85.7856 402.266 85.7307 401.992 85.6964L401.237 85.6552L399.871 85.566Z" fill="#1A2E35"/>
<path d="M231.435 120.72C230.244 120.731 229.072 121.016 228.008 121.554C225.537 122.641 222.869 123.202 220.172 123.202C208.751 123.202 197.789 116.398 197.789 102.321C197.789 93.9253 206.338 85.405 214.756 83.9988C219 83.3094 225.224 85.3775 228.556 87.0043C229.868 87.6524 231.31 87.9919 232.772 87.997H234.829L234.966 41.7077C234.966 38.5575 232.169 36 229.625 36H93.1432C88.8038 36 86.0137 38.5575 86.0137 41.7077V89.4653L91.498 89.1757C92.7697 89.1706 94.0303 88.9372 95.2204 88.4864C97.606 87.6109 100.081 86.0737 102.809 86.0737C114.511 86.0737 122.69 92.7189 122.196 103.528C121.785 113.048 114.772 120.486 104.372 121.147C100.966 121.294 97.5742 120.611 94.4869 119.155C93.0726 118.526 91.5494 118.182 90.0035 118.142L86 118.225V164.989C86 168.863 89.4276 172 93.6574 172H227.336C231.566 172 235 168.863 235 164.989V120.72H231.435Z" fill="#F3F3F3"/>
<path d="M197.135 36.1001H198.67H203.195H220.645H226.65C227.704 36.1001 228.785 36.1001 229.894 36.1001C231.047 36.1474 232.168 36.4884 233.151 37.0908C234.18 37.7228 234.994 38.6509 235.486 39.7532C235.739 40.3223 235.884 40.9335 235.913 41.5556C235.947 42.1817 235.913 42.794 235.913 43.42C235.913 45.9334 235.913 48.5407 235.913 51.2421C235.913 62.0569 235.865 74.3989 235.83 88.0756V88.2063H235.699C234.838 88.2063 233.998 88.2063 233.117 88.2063C232.238 88.1579 231.369 87.9913 230.534 87.711C229.68 87.4358 228.916 87.023 228.103 86.6653C227.291 86.3075 226.464 85.9773 225.617 85.709C223.912 85.1045 222.159 84.6443 220.377 84.3331C219.467 84.1759 218.546 84.0885 217.622 84.0717C216.696 84.0387 215.769 84.1313 214.868 84.3468C209.194 85.7503 204.287 89.2965 201.177 94.2397C200.1 95.9259 199.331 97.7892 198.905 99.7434C198.56 101.754 198.56 103.808 198.905 105.818C198.994 106.327 199.056 106.843 199.159 107.345L199.566 108.845C199.694 109.349 199.865 109.842 200.075 110.317C200.249 110.809 200.454 111.289 200.688 111.755C202.595 115.599 205.751 118.681 209.641 120.499C210.621 120.975 211.631 121.389 212.664 121.738C213.711 122.059 214.776 122.321 215.852 122.522C218.033 122.93 220.255 123.071 222.47 122.941C224.716 122.765 226.914 122.207 228.971 121.29C230.031 120.793 231.188 120.539 232.359 120.547H235.995V120.651C235.995 130.365 235.995 140.374 235.995 150.625V164.226C236.016 164.895 235.966 165.563 235.844 166.221C235.544 167.55 234.861 168.762 233.881 169.709C232.906 170.659 231.704 171.346 230.39 171.704C229.734 171.882 229.059 171.981 228.379 172C227.69 172 227.043 172 226.375 172H155.712H93.5132C92.2281 171.966 90.9702 171.623 89.8466 170.999C88.7231 170.375 87.7672 169.488 87.0605 168.416C86.3711 167.334 86.0033 166.079 86 164.797V161.103C86 156.181 86 151.308 86 146.484C86 136.852 86 127.416 86 118.174V118.002H86.1722L89.4295 117.899C90.5274 117.836 91.6285 117.942 92.6937 118.215C93.7403 118.501 94.7626 118.869 95.7513 119.316C96.7385 119.706 97.748 120.037 98.7745 120.307C100.807 120.85 102.919 121.032 105.014 120.843C107.086 120.697 109.123 120.233 111.053 119.467C114.872 118.002 118.065 115.259 120.088 111.707C121.983 108.224 122.73 104.232 122.223 100.301C121.988 98.3935 121.402 96.5463 120.495 94.852C119.559 93.2088 118.326 91.7533 116.859 90.5591C115.414 89.3827 113.786 88.4529 112.038 87.8073C111.182 87.4774 110.305 87.2016 109.414 86.9817C108.973 86.8648 108.519 86.8029 108.071 86.7066C107.628 86.6082 107.18 86.5369 106.728 86.4933L105.351 86.3419C104.897 86.3007 104.449 86.3075 103.974 86.28C103.087 86.2042 102.194 86.2575 101.323 86.4382C99.6163 86.8914 97.958 87.5089 96.3711 88.282C95.5609 88.6378 94.7163 88.9098 93.8506 89.0938C92.9927 89.258 92.1211 89.3409 91.2475 89.3414L86.1515 89.6097H86V89.4584C86 74.0343 86 60.0824 86 47.823C86 46.2865 86 44.7799 86 43.3031C86 42.5669 86 41.8377 86.0482 41.0947C86.1486 40.3654 86.3945 39.6635 86.7713 39.0308C87.55 37.7968 88.7327 36.8706 90.1181 36.4097C91.4335 35.8937 92.8314 36.0175 94.1261 36.0038H108.512L128.414 36.0451H133.586H135.356H133.586H128.414L108.512 36.0795H94.1261C92.8177 36.0795 91.4541 35.9763 90.187 36.4854C88.8793 36.949 87.769 37.8445 87.0399 39.0239C86.677 39.6303 86.4426 40.3047 86.3512 41.0053C86.2755 41.6932 86.3512 42.45 86.3099 43.1861V47.706C86.3099 59.9655 86.3099 73.9174 86.3443 89.3414L86.1928 89.2038L91.2957 88.9287C92.1532 88.9257 93.0086 88.8428 93.8506 88.681C94.695 88.4985 95.5187 88.2311 96.3091 87.883C97.9136 87.1009 99.5903 86.4765 101.316 86.0186C102.21 85.8332 103.126 85.7776 104.036 85.8535C104.49 85.8535 104.945 85.8535 105.413 85.9154L106.79 86.0667C107.253 86.1096 107.713 86.1808 108.168 86.28C108.622 86.3694 109.084 86.4382 109.545 86.5552C110.451 86.7776 111.341 87.0579 112.21 87.3945C113.988 88.0339 115.647 88.9638 117.12 90.1464C118.623 91.3617 119.885 92.8482 120.839 94.5287C121.768 96.2591 122.371 98.1458 122.616 100.094C123.156 104.149 122.386 108.271 120.419 111.858C118.373 115.491 115.128 118.302 111.239 119.811C109.278 120.592 107.209 121.067 105.103 121.222C102.969 121.409 100.818 121.225 98.747 120.678C97.7054 120.408 96.6819 120.072 95.6825 119.674C94.7093 119.233 93.7031 118.87 92.673 118.587C91.6366 118.324 90.5659 118.222 89.4984 118.284L86.2273 118.353L86.4063 118.174C86.4063 127.383 86.4063 136.82 86.4063 146.484V161.103C86.5096 163.538 85.9793 166.166 87.4117 168.23C88.0844 169.255 88.9946 170.103 90.0652 170.702C91.1357 171.301 92.335 171.633 93.5614 171.67H155.74H226.402C227.716 171.752 229.034 171.655 230.321 171.381C231.572 171.061 232.714 170.41 233.626 169.496C234.538 168.582 235.185 167.438 235.5 166.187C235.617 165.554 235.666 164.91 235.644 164.267V158.406C235.644 155.815 235.644 153.235 235.644 150.666C235.644 140.416 235.644 130.406 235.644 120.692L235.823 120.871H232.38C231.256 120.854 230.143 121.089 229.123 121.559C227.033 122.489 224.799 123.057 222.518 123.237C220.273 123.37 218.02 123.224 215.811 122.804C214.718 122.597 213.638 122.331 212.574 122.006C211.53 121.652 210.509 121.233 209.517 120.754C205.556 118.902 202.344 115.76 200.406 111.845C200.166 111.37 199.957 110.881 199.779 110.379C199.569 109.896 199.396 109.396 199.263 108.886L198.849 107.359C198.746 106.85 198.684 106.327 198.602 105.811C198.246 103.763 198.246 101.668 198.602 99.6196C199.035 97.6245 199.819 95.7217 200.915 93.9989C201.971 92.3064 203.252 90.765 204.724 89.4171C207.54 86.7388 211.024 84.8643 214.812 83.9891C215.735 83.7708 216.682 83.6782 217.629 83.7139C218.553 83.7291 219.474 83.8165 220.384 83.9753C222.18 84.2859 223.946 84.7461 225.666 85.3513C226.52 85.6471 227.353 85.9704 228.172 86.3144C228.992 86.6584 229.763 87.0918 230.583 87.3601C231.392 87.6348 232.236 87.7991 233.089 87.8486C233.936 87.8486 234.804 87.8486 235.658 87.8486L235.52 87.9793C235.568 74.3095 235.617 61.9675 235.658 51.1527C235.658 48.449 235.658 45.8416 235.692 43.3306C235.692 42.7114 235.692 42.0785 235.692 41.4731C235.662 40.8755 235.525 40.2883 235.286 39.7394C234.81 38.6702 234.023 37.7688 233.027 37.1527C232.072 36.5656 230.981 36.2339 229.86 36.1895C228.765 36.1895 227.676 36.1895 226.623 36.1895H220.618L203.167 36.1483H198.643L197.135 36.1001Z" fill="#1A2E35"/>
<path d="M215.854 222.848C219.219 222.7 222.569 223.387 225.609 224.846C227.005 225.473 228.51 225.815 230.038 225.853L233.986 225.77V179.01C233.986 175.143 230.607 172 226.445 172H94.5409C90.366 172 87 175.143 87 179.01V302.293C87 305.45 89.7421 308 93.1698 308H227.83C231.258 308 234 305.45 234 302.293V257.745H228.55C227.294 257.751 226.049 257.984 224.875 258.435C222.45 259.333 219.885 259.788 217.3 259.779C205.749 259.779 196.439 250.887 196.906 240.079C197.283 230.567 205.605 223.516 215.854 222.848Z" fill="#F3F3F3"/>
<path d="M215.62 222.895C215.62 222.895 215.18 222.957 214.305 223.053C213.764 223.109 213.226 223.196 212.694 223.314C211.95 223.446 211.214 223.623 210.491 223.844C208.455 224.441 206.516 225.33 204.735 226.483C204.182 226.833 203.653 227.219 203.151 227.638C202.89 227.851 202.614 228.064 202.353 228.325L201.581 229.067L201.189 229.452L200.824 229.879L200.087 230.745C199.61 231.383 199.173 232.051 198.779 232.745C198.361 233.476 197.995 234.237 197.684 235.02C197.388 235.855 197.158 236.713 196.996 237.584C196.619 239.465 196.57 241.398 196.851 243.296C197.138 245.373 197.795 247.382 198.793 249.228C199.893 251.215 201.333 252.995 203.048 254.486C206.91 257.812 211.841 259.642 216.942 259.641C219.721 259.654 222.477 259.143 225.067 258.136C225.758 257.907 226.471 257.75 227.194 257.668C227.926 257.599 228.662 257.573 229.397 257.593H233.997V257.723C233.997 264.679 233.997 272.075 233.997 279.87C233.997 283.765 233.997 287.761 233.997 291.857V301.219C234.008 301.758 233.992 302.297 233.948 302.834C233.876 303.378 233.725 303.908 233.501 304.408C233.015 305.412 232.273 306.27 231.35 306.896C230.426 307.522 229.354 307.895 228.241 307.976C226.024 308.031 223.834 307.976 221.597 307.976H179.205H116.653H100.129C97.3338 307.976 94.5659 308.01 91.7224 307.976C90.2674 307.839 88.898 307.227 87.8254 306.237C86.7401 305.234 86.0902 303.848 86.0146 302.374C86.0146 291.064 86.0146 279.583 86.0146 267.93V218.441C86.0146 210.376 86.0146 202.428 86.0146 194.597V180.052C85.9577 179.074 86.0672 178.093 86.3382 177.152C86.6466 176.221 87.1396 175.361 87.7878 174.624C88.436 173.887 89.2262 173.288 90.1113 172.863C90.9747 172.435 91.9071 172.163 92.8653 172.058C93.843 171.976 94.7725 172.017 95.7158 172.01H133.956H174.089H209.83H225.852C227.128 171.945 228.402 172.187 229.567 172.714C230.731 173.242 231.752 174.04 232.544 175.042C233.3 176.024 233.776 177.193 233.921 178.423C233.997 179.64 233.921 180.802 233.955 181.97C233.955 200.597 233.914 215.472 233.907 225.754V225.816H233.838C232.275 225.816 230.816 225.899 229.446 225.885C228.174 225.797 226.926 225.504 225.748 225.019C223.985 224.209 222.138 223.594 220.24 223.184C219.107 222.955 217.954 222.835 216.798 222.826C216.412 222.826 216.109 222.826 215.93 222.826H215.641C215.641 222.826 216.026 222.785 216.798 222.778C217.953 222.772 219.107 222.882 220.24 223.108C222.137 223.504 223.984 224.107 225.748 224.909C226.917 225.389 228.157 225.675 229.418 225.754C230.795 225.754 232.241 225.699 233.804 225.679L233.742 225.741C233.742 215.43 233.707 200.584 233.687 181.956C233.687 180.795 233.721 179.599 233.645 178.43C233.506 177.245 233.049 176.12 232.324 175.172C231.554 174.203 230.563 173.431 229.433 172.923C228.303 172.415 227.068 172.184 225.831 172.251H209.809H174.068H133.935H95.7226C94.7863 172.251 93.8292 172.251 92.9135 172.306C91.9908 172.397 91.0925 172.656 90.2627 173.069C89.424 173.474 88.675 174.043 88.0601 174.742C87.4451 175.441 86.9767 176.255 86.6825 177.138C86.4183 178.043 86.3157 178.988 86.3795 179.929V218.317C86.3795 234.429 86.3795 250.96 86.3795 267.807C86.3795 279.446 86.3795 290.92 86.3795 302.229C86.4428 303.605 87.0493 304.9 88.0664 305.831C89.0759 306.765 90.3659 307.34 91.7362 307.467C94.4902 307.529 97.3269 307.467 100.102 307.467H116.626H179.177H221.562C223.786 307.467 226.017 307.467 228.179 307.467C229.236 307.391 230.255 307.04 231.133 306.447C232.012 305.855 232.719 305.043 233.184 304.092C233.395 303.617 233.536 303.115 233.604 302.6C233.648 302.077 233.664 301.552 233.652 301.026V291.83C233.652 287.733 233.652 283.737 233.652 279.842C233.652 272.048 233.652 264.652 233.652 257.696L233.776 257.819H229.308C228.582 257.795 227.855 257.816 227.132 257.881C226.43 257.963 225.738 258.115 225.067 258.335C222.452 259.347 219.67 259.858 216.866 259.84C211.713 259.838 206.734 257.981 202.841 254.609C201.11 253.103 199.66 251.301 198.559 249.289C197.55 247.424 196.89 245.39 196.61 243.289C196.323 241.374 196.376 239.424 196.769 237.529C196.948 236.65 197.194 235.786 197.505 234.944C197.818 234.153 198.188 233.386 198.614 232.649C199.013 231.951 199.457 231.281 199.943 230.641L200.693 229.769L201.058 229.342L201.451 228.957L202.229 228.208C202.49 227.975 202.773 227.761 203.034 227.521C203.544 227.103 204.08 226.717 204.638 226.366C206.434 225.218 208.387 224.336 210.436 223.747C211.161 223.53 211.899 223.358 212.646 223.232C213.179 223.115 213.72 223.035 214.264 222.991C215.173 222.929 215.62 222.895 215.62 222.895Z" fill="#1A2E35"/>
<path d="M393 215.122L403.616 217.024C408.946 223.104 416.339 226.953 424.341 227.816C432.344 228.678 440.376 226.491 446.86 221.685C453.344 216.878 457.81 209.799 459.38 201.841C460.951 193.882 459.511 185.619 455.345 178.677C451.18 171.734 444.588 166.614 436.868 164.322C429.148 162.031 420.857 162.735 413.625 166.295C406.393 169.856 400.744 176.015 397.787 183.562C394.831 191.109 394.782 199.499 397.65 207.08L393 215.122Z" fill="#FAFAFA"/>
<path d="M393.028 215.152C393.028 215.152 393.117 214.979 393.309 214.634L394.175 213.094C394.951 211.714 396.099 209.691 397.611 207.074C397.621 207.055 397.638 207.041 397.659 207.034C397.679 207.028 397.701 207.03 397.721 207.04L397.583 207.116C395.039 200.527 394.723 193.281 396.683 186.494C396.924 185.651 397.26 184.823 397.549 183.967C397.853 183.098 398.215 182.252 398.635 181.433C402.264 173.789 408.74 167.887 416.665 165.002C421.126 163.357 425.892 162.714 430.627 163.117C435.663 163.614 440.518 165.268 444.817 167.95C445.928 168.631 446.993 169.385 448.005 170.207C448.541 170.58 448.981 171.077 449.482 171.505C449.984 171.933 450.472 172.375 450.912 172.886C451.831 173.851 452.689 174.872 453.481 175.944C453.873 176.49 454.285 177.021 454.663 177.574C455.041 178.126 455.35 178.734 455.701 179.314C458.216 183.716 459.671 188.648 459.951 193.717C460.23 198.785 459.325 203.849 457.309 208.503C454.734 214.445 450.448 219.477 445.002 222.949C439.556 226.422 433.199 228.176 426.752 227.986C424.969 227.927 423.194 227.733 421.44 227.406C419.812 227.041 418.206 226.58 416.631 226.025C411.6 224.177 407.112 221.091 403.575 217.05H403.623L395.7 215.58L393.687 215.2L393 215.069L393.687 215.179L395.749 215.525L403.63 216.905H403.678C407.229 220.9 411.716 223.94 416.734 225.749C418.297 226.283 419.889 226.725 421.502 227.075C423.241 227.391 425 227.578 426.766 227.634C433.147 227.798 439.432 226.046 444.818 222.603C450.203 219.159 454.445 214.181 457 208.303C458.985 203.7 459.873 198.695 459.594 193.686C459.315 188.677 457.876 183.803 455.392 179.452C455.048 178.879 454.705 178.306 454.368 177.733C454.031 177.159 453.585 176.662 453.2 176.124C452.416 175.066 451.567 174.058 450.657 173.107C450.224 172.617 449.716 172.202 449.249 171.726C448.784 171.27 448.295 170.839 447.785 170.435C446.783 169.627 445.732 168.882 444.638 168.205C440.392 165.554 435.596 163.919 430.621 163.428C426.118 163.036 421.585 163.601 417.314 165.084C413.043 166.567 409.13 168.936 405.829 172.037C402.979 174.738 400.649 177.944 398.957 181.495C398.535 182.302 398.175 183.14 397.879 184.001C397.583 184.85 397.253 185.665 397.006 186.5C395.032 193.231 395.309 200.427 397.796 206.984C397.803 207.005 397.802 207.027 397.793 207.046C397.784 207.065 397.768 207.08 397.748 207.088C397.734 207.098 397.717 207.103 397.7 207.103C397.683 207.103 397.666 207.098 397.652 207.088H397.782L394.347 213.018L393.357 214.62L393.028 215.152Z" fill="#1A2E35"/>
<path d="M438 196.5C438 195.808 438.205 195.131 438.59 194.556C438.974 193.98 439.521 193.531 440.161 193.266C440.8 193.002 441.504 192.932 442.183 193.067C442.862 193.202 443.485 193.536 443.975 194.025C444.464 194.515 444.798 195.138 444.933 195.817C445.068 196.496 444.998 197.2 444.734 197.839C444.469 198.479 444.02 199.026 443.444 199.41C442.869 199.795 442.192 200 441.5 200C440.572 200 439.682 199.631 439.025 198.975C438.369 198.319 438 197.428 438 196.5Z" fill="#2E2E2E"/>
<path d="M425 196.5C425 195.808 425.205 195.131 425.59 194.556C425.974 193.98 426.521 193.531 427.161 193.266C427.8 193.002 428.504 192.932 429.183 193.067C429.862 193.202 430.485 193.536 430.975 194.025C431.464 194.515 431.798 195.138 431.933 195.817C432.068 196.496 431.998 197.2 431.734 197.839C431.469 198.479 431.02 199.026 430.444 199.41C429.869 199.795 429.192 200 428.5 200C427.572 200 426.681 199.631 426.025 198.975C425.369 198.319 425 197.428 425 196.5Z" fill="#2E2E2E"/>
<path d="M411.47 198.25C411.123 197.651 410.962 196.962 411.007 196.272C411.052 195.581 411.301 194.919 411.722 194.37C412.144 193.821 412.718 193.409 413.374 193.186C414.029 192.963 414.736 192.94 415.405 193.119C416.074 193.298 416.675 193.671 417.131 194.191C417.588 194.712 417.88 195.356 417.97 196.042C418.06 196.728 417.945 197.426 417.639 198.046C417.333 198.667 416.849 199.183 416.249 199.529C415.852 199.759 415.413 199.909 414.957 199.97C414.501 200.03 414.038 200 413.594 199.881C413.15 199.762 412.734 199.557 412.369 199.277C412.005 198.997 411.699 198.648 411.47 198.25Z" fill="#2E2E2E"/>
<path d="M115 68.1224L104.401 70.024C99.0695 76.1039 91.6744 79.9534 83.6697 80.8158C75.665 81.6783 67.6298 79.4911 61.1438 74.6845C54.6578 69.8779 50.1904 62.7994 48.6197 54.8409C47.0491 46.8823 48.4889 38.6194 52.656 31.6766C56.8232 24.7339 63.4163 19.6136 71.139 17.3224C78.8618 15.0313 87.1555 15.735 94.3895 19.2953C101.624 22.8555 107.275 29.0148 110.232 36.562C113.189 44.1093 113.238 52.4985 110.369 60.0804L115 68.1224Z" fill="#FAFAFA"/>
<path d="M114.89 67.09L114.575 66.5587L113.669 65.0202L110.203 59.0936H110.334C110.327 59.1011 110.318 59.1071 110.309 59.1112C110.299 59.1152 110.289 59.1174 110.279 59.1174C110.269 59.1174 110.258 59.1152 110.249 59.1112C110.239 59.1071 110.231 59.1011 110.224 59.0936C110.213 59.08 110.207 59.0629 110.207 59.0453C110.207 59.0276 110.213 59.0106 110.224 58.997C112.702 52.4426 112.977 45.2526 111.006 38.5264C110.759 37.6915 110.43 36.8774 110.142 36.0288C109.84 35.1689 109.478 34.3319 109.057 33.5243C105.447 25.9813 99.0424 20.159 91.2157 17.3037C86.8062 15.6875 82.0985 15.0611 77.4227 15.4685C72.454 15.9599 67.6643 17.5934 63.4238 20.2429C62.3312 20.9194 61.2815 21.6637 60.2809 22.4714C59.7723 22.8736 59.2866 23.3044 58.8262 23.7616C58.3595 24.2101 57.8449 24.624 57.4125 25.1415C56.5059 26.0936 55.658 27.1005 54.8735 28.1565C54.4893 28.6947 54.0844 29.219 53.707 29.7641L52.6914 31.4821C50.2066 35.8294 48.7673 40.7008 48.4885 45.707C48.2097 50.7132 49.0991 55.7157 51.0856 60.3148C53.6333 66.1914 57.868 71.1696 63.2473 74.6113C68.6266 78.053 74.9053 79.8017 81.2792 79.6331C83.0427 79.5772 84.7996 79.3904 86.5357 79.0743C88.1471 78.7249 89.7371 78.2826 91.298 77.7496C96.3085 75.9416 100.79 72.9036 104.336 68.9114H104.384L112.255 67.5315L114.314 67.1866L115 67.0762L114.314 67.2073L112.303 67.5867L104.391 69.0563H104.446C100.911 73.0916 96.4293 76.1748 91.4078 78.0256C89.8345 78.5784 88.2306 79.0391 86.6043 79.4055C84.8531 79.7323 83.0799 79.9261 81.2998 79.985C74.8419 80.1823 68.4735 78.4288 63.0167 74.9508C57.5599 71.4727 53.2654 66.4299 50.6876 60.4734C48.6741 55.8221 47.7706 50.7617 48.0494 45.6966C48.3282 40.6315 49.7816 35.7022 52.2934 31.3027C52.6433 30.7231 52.9796 30.1436 53.3295 29.564C53.6795 28.9845 54.1187 28.4808 54.5098 27.9358C55.3014 26.8643 56.1585 25.8436 57.0763 24.8793C57.5155 24.3826 58.0301 23.9686 58.5036 23.4994C58.9749 23.0414 59.4697 22.6084 59.9859 22.2023C60.9945 21.381 62.0559 20.6273 63.1631 19.9462C67.4566 17.267 72.3046 15.6147 77.3335 15.1166C81.8814 14.7294 86.4594 15.3089 90.7699 16.8173C95.0805 18.3257 99.027 20.7294 102.353 23.872C105.233 26.6027 107.588 29.8446 109.298 33.4346C109.716 34.2527 110.078 35.0988 110.382 35.9667C110.67 36.8222 111.006 37.6501 111.246 38.4919C113.204 45.2745 112.888 52.5162 110.347 59.1005L110.21 59.0246C110.217 59.017 110.226 59.0111 110.235 59.007C110.245 59.0029 110.255 59.0008 110.265 59.0008C110.275 59.0008 110.286 59.0029 110.295 59.007C110.304 59.0111 110.313 59.017 110.32 59.0246C111.802 61.6394 112.948 63.661 113.751 65.0409L114.616 66.5794C114.787 66.9175 114.89 67.09 114.89 67.09Z" fill="#1A2E35"/>
<path d="M71 48.5C71 47.8078 70.7947 47.1311 70.4101 46.5555C70.0256 45.9799 69.4789 45.5313 68.8394 45.2664C68.1999 45.0015 67.4961 44.9322 66.8172 45.0673C66.1383 45.2023 65.5146 45.5356 65.0251 46.0251C64.5356 46.5146 64.2023 47.1383 64.0673 47.8172C63.9322 48.4961 64.0015 49.1998 64.2664 49.8394C64.5313 50.4789 64.9799 51.0256 65.5555 51.4101C66.1311 51.7947 66.8078 52 67.5 52C68.4283 52 69.3185 51.6313 69.9749 50.9749C70.6313 50.3185 71 49.4283 71 48.5Z" fill="#1A2E35"/>
<path d="M84 48.5C84 47.8078 83.7947 47.1311 83.4101 46.5555C83.0256 45.9799 82.4789 45.5313 81.8394 45.2664C81.1999 45.0015 80.4961 44.9322 79.8172 45.0673C79.1383 45.2023 78.5146 45.5356 78.0251 46.0251C77.5356 46.5146 77.2023 47.1383 77.0673 47.8172C76.9322 48.4961 77.0015 49.1998 77.2664 49.8394C77.5313 50.4789 77.9799 51.0256 78.5555 51.4101C79.1311 51.7947 79.8078 52 80.5 52C81.4283 52 82.3185 51.6313 82.9749 50.9749C83.6313 50.3185 84 49.4283 84 48.5Z" fill="#1A2E35"/>
<path d="M96.519 50.2708C96.8693 49.6735 97.0346 48.9858 96.994 48.2946C96.9533 47.6034 96.7086 46.9398 96.2908 46.3878C95.8729 45.8357 95.3007 45.4199 94.6465 45.1931C93.9924 44.9663 93.2856 44.9386 92.6157 45.1136C91.9458 45.2885 91.3428 45.6582 90.883 46.1759C90.4233 46.6936 90.1274 47.336 90.0328 48.0219C89.9382 48.7078 90.0492 49.4064 90.3517 50.0292C90.6542 50.652 91.1347 51.1711 91.7322 51.5208C92.5329 51.9893 93.4868 52.1208 94.3843 51.8864C95.2819 51.652 96.0497 51.0709 96.519 50.2708Z" fill="#1A2E35"/>
<path d="M305 248.332C305 248.332 316.546 228.519 338.796 223.097C361.046 217.674 376.93 223.934 386 228.728L383.524 231.234C383.524 231.234 358.377 219.133 339.003 224.555C319.629 229.978 307.876 250 307.876 250L305 248.332Z" fill="#FF4F5B"/>
<path d="M424.891 261.893C421.775 275.784 410.918 287.299 402.156 283.138C391.333 278.015 391.823 270.819 394.945 256.928C398.068 243.037 405.639 235.203 415.061 237.352C424.483 239.501 428.013 248.002 424.891 261.893Z" fill="#C6EDFF"/>
<path d="M293.737 272.798C290.012 271.818 286.115 271.74 282.355 272.569C270.523 275.389 271.305 291.357 277.051 299.491C283.585 308.743 299.109 312.501 309.356 308.271C319.019 304.277 316.503 292.99 312.076 285.759C308.316 279.556 301.224 274.652 293.737 272.798Z" fill="#C6EDFF"/>
<path d="M406.778 302.201C406.455 308.128 405.863 313.492 405.299 317.736C404.962 320.25 404.611 322.365 404.39 323.972C404.05 326.069 403.541 328.136 402.87 330.153C402.753 330.51 402.629 330.874 402.498 331.238C401.81 333.203 401.011 335.126 400.103 337H322.447C321.58 335.997 320.745 334.983 319.942 333.958C319.254 333.051 318.532 332.117 317.878 331.169C317.266 330.331 316.681 329.48 316.103 328.615C315.346 327.481 314.609 326.328 313.908 325.181C313.206 324.034 312.648 323.038 312.056 321.946C311.561 321.03 311.082 320.115 310.618 319.199C310.577 319.123 310.543 319.041 310.501 318.959C309.584 317.127 308.753 315.296 308.01 313.464C307.437 312.063 306.902 310.649 306.407 309.22C305.705 307.201 305.081 305.157 304.535 303.087C303.702 299.925 303.068 296.714 302.636 293.472C301.867 287.754 301.795 281.963 302.423 276.228C302.671 273.987 303.036 271.761 303.517 269.559C304.073 266.999 304.791 264.475 305.664 262.005C306.689 259.098 307.931 256.272 309.38 253.55C309.696 252.953 310.033 252.355 310.377 251.779C311.35 250.112 312.423 248.507 313.591 246.971C318.591 240.469 325.023 235.202 332.391 231.581C333.223 231.169 334.07 230.77 334.916 230.392C336.902 229.523 338.932 228.759 340.999 228.106C342.128 227.748 343.243 227.419 344.357 227.178C345.472 226.938 346.381 226.739 347.385 226.581C358.87 224.685 369.612 227.563 378.682 233.256C380.73 234.545 382.689 235.97 384.545 237.521C386.536 239.175 388.417 240.957 390.174 242.857C390.586 243.311 390.992 243.764 391.392 244.231C392.121 245.062 392.816 245.907 393.456 246.772C394.006 247.459 394.543 248.194 395.066 248.922C395.816 249.972 396.532 251.051 397.213 252.143C398.606 254.365 399.854 256.676 400.95 259.058C401.87 261.079 402.663 263.155 403.324 265.274C403.572 266.07 403.801 266.874 404.012 267.684C404.122 268.096 404.225 268.501 404.328 268.913C404.535 269.731 404.728 270.562 404.907 271.4C405.168 272.65 405.409 273.92 405.595 275.197C406.125 278.398 406.475 281.653 406.689 284.908C406.806 286.708 406.881 288.507 406.923 290.286C406.923 290.828 406.923 291.378 406.923 291.92C407.088 295.395 406.964 298.884 406.778 302.201Z" fill="url(#paint0_linear_532_2550)"/>
<path d="M356.166 209.351C351.631 207.948 347.158 210.937 345.329 215.042C344.335 217.369 343.888 219.893 344.024 222.421C344.105 224.626 344.201 228.153 345.887 229.766C345.984 229.857 346.101 229.924 346.228 229.963C346.356 230.001 346.49 230.01 346.622 229.988C346.753 229.967 346.878 229.915 346.986 229.838C347.094 229.76 347.183 229.659 347.246 229.541C347.926 227.928 347.341 225.933 347.131 224.232C346.82 222.166 346.857 220.063 347.24 218.01C348.096 214.082 351.319 210.556 355.67 211.57C357.097 211.91 357.546 209.779 356.166 209.351Z" fill="#2E2E2E"/>
<path d="M333.165 228.017C331.782 225.834 329.893 224.036 327.666 222.783C325.25 221.477 322.533 220.869 319.806 221.024C317.589 221.144 314.404 221.598 313.116 223.655C312.755 224.23 313.303 224.832 313.857 224.861C315.851 224.946 317.86 223.74 319.923 223.676C322.123 223.6 324.303 224.122 326.242 225.188C328.181 226.255 329.81 227.828 330.963 229.748C331.918 231.322 332.348 233.464 333.594 234.798C333.672 234.875 333.766 234.933 333.87 234.967C333.974 235.001 334.083 235.009 334.191 234.991C334.298 234.973 334.399 234.929 334.487 234.864C334.575 234.798 334.646 234.712 334.696 234.613C335.603 232.507 334.301 229.783 333.165 228.017Z" fill="#2E2E2E"/>
<path d="M320.283 259.904C320.012 259.157 319.934 258.358 320.056 257.576C320.178 256.794 320.496 256.052 320.983 255.411C321.487 254.752 322.13 254.2 322.871 253.79C323.612 253.381 324.435 253.122 325.286 253.032C326.135 252.95 326.992 253.027 327.809 253.258C328.608 253.497 329.349 253.884 329.989 254.398C330.607 254.899 331.107 255.52 331.454 256.218C331.8 256.917 331.987 257.678 332 258.451C331.996 258.495 331.976 258.535 331.942 258.565C331.908 258.595 331.864 258.611 331.818 258.611C331.78 258.612 331.744 258.6 331.715 258.578C331.685 258.557 331.665 258.526 331.657 258.491C331.297 257.185 330.45 256.048 329.274 255.291C328.164 254.579 326.813 254.291 325.49 254.485C324.189 254.677 323.008 255.315 322.168 256.278C321.272 257.294 320.722 258.544 320.591 259.864C320.589 259.885 320.583 259.905 320.573 259.923C320.563 259.941 320.548 259.957 320.531 259.97C320.514 259.982 320.494 259.991 320.473 259.996C320.452 260.001 320.43 260.001 320.409 259.997C320.381 259.993 320.355 259.982 320.333 259.966C320.311 259.95 320.294 259.928 320.283 259.904Z" fill="#2E2E2E"/>
<path d="M362.709 249.931C362.286 249.248 362.045 248.48 362.006 247.69C361.966 246.901 362.13 246.114 362.483 245.397C362.846 244.659 363.367 243.999 364.015 243.462C364.663 242.924 365.423 242.52 366.246 242.275C367.065 242.034 367.927 241.95 368.781 242.028C369.622 242.113 370.436 242.358 371.174 242.747C371.89 243.121 372.513 243.635 373.001 244.255C373.488 244.876 373.828 245.587 373.998 246.343C374.004 246.382 373.995 246.421 373.973 246.455C373.951 246.488 373.917 246.513 373.877 246.525C373.837 246.537 373.794 246.535 373.756 246.52C373.717 246.505 373.685 246.478 373.666 246.442C373.039 245.23 371.968 244.273 370.652 243.746C369.418 243.262 368.037 243.228 366.778 243.65C365.519 244.072 364.472 244.92 363.839 246.03C363.163 247.189 362.878 248.515 363.02 249.831C363.022 249.872 363.006 249.913 362.978 249.944C362.949 249.975 362.908 249.994 362.864 249.998C362.834 250.003 362.803 249.999 362.775 249.987C362.748 249.976 362.724 249.956 362.709 249.931Z" fill="#2E2E2E"/>
<path d="M382.306 254.48C383.516 252.309 383.129 249.786 381.441 248.845C379.753 247.903 377.403 248.9 376.192 251.07C374.981 253.24 375.369 255.763 377.057 256.705C378.745 257.646 381.095 256.65 382.306 254.48Z" fill="#EB8757"/>
<path d="M324.441 268.063C324.807 266.448 323.139 264.692 320.715 264.143C318.291 263.594 316.029 264.458 315.663 266.074C315.297 267.69 316.965 269.445 319.389 269.995C321.813 270.544 324.074 269.679 324.441 268.063Z" fill="#EB8757"/>
<path d="M407 337H394.567C394.338 336.574 394.199 336.105 394.158 335.621C394.109 335.391 394.074 335.154 394.046 334.902C393.658 331.49 395.758 328.244 399.336 329.156C399.669 329.243 399.993 329.366 400.301 329.522C400.82 329.774 401.313 330.077 401.773 330.427C401.992 330.585 402.21 330.765 402.435 330.952C404.356 332.619 405.912 334.68 407 337Z" fill="url(#paint1_linear_532_2550)"/>
<path d="M405 274.864C394.915 281.498 378.791 290.924 360.864 296.838C341.307 303.294 317.959 303.424 303.899 302.705C303.066 299.553 302.432 296.352 302 293.121C314.946 293.908 338.789 294.189 357.872 287.891C376.534 281.73 393.484 271.27 402.689 265C403.691 268.23 404.463 271.526 405 274.864Z" fill="#2E2E2E"/>
<path d="M405.764 301.877C395.433 309.251 379.807 319.193 366.079 322.88C351.569 326.791 329.435 327.789 315.48 328C313.458 325.002 311.628 321.881 310 318.656C322.509 318.602 348.212 317.977 363.571 313.821C378.643 309.747 397.139 296.695 405.942 290C406.072 294.095 405.97 298.101 405.764 301.877Z" fill="#2E2E2E"/>
<path d="M405 317C404.665 319.479 404.316 321.565 404.097 323.15C403.759 325.219 403.254 327.258 402.586 329.247L401.575 329.822L399.305 331.109C397.629 332.065 395.886 333.047 394.074 334.042C392.905 334.72 391.715 335.35 390.512 336H370L370.123 335.946C375.907 333.236 383.039 329.443 389.637 325.785C394.778 322.934 399.592 320.17 403.195 318.07L405 317Z" fill="#2E2E2E"/>
<path d="M390.857 276.702C390.984 276.252 391.112 275.815 391.24 275.358C391.953 272.831 392.364 270.768 395.277 272.865C397.645 274.572 398.587 277.569 398.89 280.384C399.253 283.744 398.843 287.877 395.748 290.276C393.104 292.325 389.201 289.698 389.02 286.472C388.838 283.247 389.942 279.813 390.857 276.702Z" fill="url(#paint2_linear_532_2550)"/>
<path d="M317.993 318.619V320.01C317.993 322.727 318.175 324.875 314.788 323.645C312.023 322.623 310.286 319.891 309.211 317.194C307.927 313.955 307.183 309.729 309.502 306.463C311.489 303.682 315.992 305.177 317.026 308.339C318.06 311.502 318.013 315.262 317.993 318.619Z" fill="url(#paint3_linear_532_2550)"/>
<g style="mix-blend-mode:overlay" opacity="0.3">
<path d="M367.979 233.46C365.053 231.661 359.801 230.881 358.074 230.593C351.668 229.497 345.1 229.925 338.883 231.844C335.076 233.038 314.151 243.869 321.585 249.983C323.987 251.951 328.936 250.686 331.311 249.351C336.425 246.539 342.324 244.86 347.872 243.243C354.067 241.437 360.421 241.282 366.547 239.814C367.216 239.687 367.848 239.408 368.398 238.998C368.947 238.588 369.399 238.057 369.72 237.445C370.491 235.765 369.59 234.465 367.979 233.46Z" fill="white"/>
</g>
<g style="mix-blend-mode:overlay" opacity="0.4">
<path d="M403.973 302.86C403.909 307.951 403.408 313.027 402.474 318.032C401.777 321.748 400.779 325.401 399.49 328.954C399.233 329.673 398.956 330.393 398.659 331.099C398.042 332.615 397.367 334.099 396.633 335.552C396.559 335.701 396.478 335.851 396.397 336H382C383.415 334.481 384.706 332.851 385.863 331.126C387.026 329.395 388.101 327.605 389.084 325.763C392.129 320.082 394.418 313.959 396.633 307.856C397.754 304.767 398.862 301.686 400.01 298.665C401.016 296.092 402.339 295.468 403.163 296.425C403.723 297.28 403.993 298.294 403.933 299.317C404.014 300.491 404.014 301.672 403.973 302.86Z" fill="#2E2E2E"/>
</g>
<path d="M362.426 259.837C363.009 261.915 363.15 264.089 362.84 266.222C362.292 269.77 360.346 272.869 356.762 274.212C354.892 274.969 352.84 275.186 350.848 274.839C348.856 274.491 347.007 273.593 345.519 272.249C343.453 270.436 341.963 268.078 341.226 265.458C340.059 261.229 343.58 261.05 348.035 262.124C349.448 262.468 350.93 262.423 352.319 261.994C353.707 261.565 354.948 260.769 355.905 259.693C358.638 256.586 361.238 255.594 362.426 259.837Z" fill="#2E2E2E"/>
<path d="M363 266.518C362.462 269.946 360.552 272.941 357.034 274.239C355.199 274.97 353.185 275.18 351.23 274.844C349.276 274.508 347.461 273.64 346 272.342C348.07 269.463 351.157 267.411 354.683 266.572C357.399 265.828 360.274 265.81 363 266.518Z" fill="#E24450"/>
<path d="M395.199 230.964C398.791 234.617 398.947 240.222 395.558 243.486C392.17 246.751 379.165 233.518 382.56 230.253C385.956 226.989 391.608 227.311 395.199 230.964Z" fill="#FF4F5B"/>
<path d="M377 230.981L393.988 249C395.753 247.226 395.149 243.629 392.645 240.961L384.752 232.575C382.235 229.934 378.765 229.186 377 230.981Z" fill="#2E2E2E"/>
<path d="M297.049 251.457C294.765 256.145 296.333 261.673 300.562 263.813C304.791 265.954 313.054 249.006 308.832 246.852C304.609 244.697 299.332 246.776 297.049 251.457Z" fill="#FF4F5B"/>
<path d="M314 247.345L303.05 270C300.827 268.864 300.339 265.226 301.945 261.875L307.041 251.317C308.654 247.993 311.777 246.202 314 247.345Z" fill="#2E2E2E"/>
<path d="M380 271C382.761 271 385 268.761 385 266C385 263.239 382.761 261 380 261C377.239 261 375 263.239 375 266C375 268.761 377.239 271 380 271Z" fill="#2E2E2E"/>
<path d="M383.009 265C382.793 264.999 382.582 264.929 382.409 264.799C382.235 264.669 382.108 264.486 382.044 264.277C381.981 264.069 381.986 263.845 382.057 263.639C382.129 263.433 382.264 263.256 382.442 263.133C392.285 256.437 390.883 244.278 390.869 244.156C390.836 243.885 390.911 243.611 391.077 243.396C391.243 243.181 391.488 243.041 391.756 243.008C392.024 242.974 392.294 243.05 392.507 243.218C392.72 243.386 392.859 243.633 392.892 243.904C392.966 244.448 394.456 257.432 383.588 264.829C383.417 264.945 383.215 265.004 383.009 265Z" fill="#2E2E2E"/>
<path d="M212.367 154.152C202.189 162.716 187.559 165.113 183.245 157.091C177.96 147.163 182.384 142.093 192.562 133.536C202.74 124.979 212.863 123.417 218.748 130.357C224.633 137.298 222.545 145.594 212.367 154.152Z" fill="#C6EDFF"/>
<path d="M109.305 88.6328C107.058 85.7987 104.178 83.5325 100.896 82.0164C90.4462 77.3835 82.1956 89.5663 82.0037 98.8252C81.7844 109.34 91.3507 120.898 101.39 123.589C110.853 126.128 115.218 116.389 115.917 108.571C116.507 101.866 113.903 94.2403 109.305 88.6328Z" fill="#C6EDFF"/>
<path d="M197.773 130.717C197.56 133.157 197.192 135.582 196.67 137.975C196.217 140 195.637 141.994 194.934 143.946C194.672 144.683 194.396 145.413 194.1 146.143C193.804 146.872 193.5 147.602 193.177 148.332C192.529 149.788 191.828 151.229 191.075 152.657C190.158 154.406 189.166 156.135 188.119 157.836C187.575 158.738 187.003 159.633 186.424 160.522C185.5 161.899 184.543 163.318 183.564 164.654C182.999 165.439 182.434 166.21 181.855 166.974L181.814 167.029C181.125 167.948 180.436 168.843 179.747 169.715L178.782 170.927L178.389 171.409L177.542 172.442H175.357H167.047C166.751 172.621 166.462 172.814 166.172 173C164.146 172.855 162.038 172.676 159.971 172.456L114.314 172.539H104.763H98.3066C97.4961 170.326 96.806 168.07 96.2394 165.783C95.8398 164.165 95.4953 162.526 95.2059 160.887C94.4842 156.767 94.081 152.597 94 148.415C94 147.327 94 146.246 94 145.158C94 144.187 94.0551 143.216 94.1102 142.245C94.3114 138.844 94.7233 135.458 95.3437 132.108C95.3437 132.025 95.3781 131.942 95.3919 131.86C95.9739 128.794 96.7378 125.765 97.6796 122.79C97.7278 122.618 97.7829 122.446 97.8381 122.274C98.4536 120.369 99.1427 118.491 99.9052 116.641C100.312 115.663 100.732 114.685 101.173 113.728C101.449 113.142 101.724 112.564 102.014 111.985C102.303 111.407 102.544 110.918 102.82 110.388C102.999 110.05 103.178 109.699 103.364 109.375C103.55 109.052 103.73 108.687 103.916 108.377C106.564 103.673 109.774 99.3074 113.473 95.375C115.8 92.8928 118.336 90.6143 121.053 88.5642C121.287 88.3852 121.528 88.213 121.742 88.0409C123.888 86.4706 126.142 85.0531 128.488 83.7988C128.977 83.5302 129.48 83.2685 129.983 83.0206C130.486 82.7727 130.92 82.5523 131.395 82.3319C132.82 81.6682 134.278 81.0798 135.764 80.569C136.322 80.3761 136.873 80.1902 137.438 80.0249C138.293 79.7632 139.154 79.5337 140.022 79.3363C142.206 78.8125 144.423 78.442 146.658 78.2276C147.561 78.138 148.463 78.076 149.373 78.0485C149.986 78.0485 150.599 78.0003 151.213 78.0003C154.462 77.9894 157.706 78.2822 160.901 78.8749C161.755 79.0333 162.61 79.2123 163.457 79.412C165.431 79.8706 167.377 80.4384 169.287 81.113C170.325 81.4803 171.333 81.8797 172.312 82.3113C173.208 82.7038 174.069 83.117 174.91 83.5577C185.156 88.9223 191.743 97.8473 195.14 107.943C195.32 108.473 195.492 109.003 195.65 109.541C197.694 116.401 198.415 123.587 197.773 130.717Z" fill="url(#paint4_linear_532_2550)"/>
<path d="M190.773 76.0577C188.103 72.5283 182.924 72.2403 179.136 74.2428C177.02 75.3956 175.214 77.0003 173.859 78.9308C172.643 80.5985 170.668 83.2305 171.048 85.3468C171.071 85.4658 171.122 85.5782 171.197 85.6756C171.272 85.773 171.37 85.8528 171.482 85.9089C171.594 85.9651 171.719 85.9961 171.846 85.9997C171.972 86.0032 172.098 85.9792 172.214 85.9294C173.704 85.1392 174.386 83.3376 175.208 81.9781C176.163 80.2906 177.41 78.769 178.897 77.4775C181.827 75.0665 186.381 74.283 189.115 77.4173C190.014 78.4553 191.588 77.136 190.773 76.0577Z" fill="#2E2E2E"/>
<path d="M163.965 76.4221C164.131 74.0887 163.708 71.7511 162.733 69.6173C161.654 67.3491 159.964 65.4146 157.847 64.0237C156.13 62.8873 153.507 61.4515 151.424 62.2136C151.306 62.2692 151.205 62.3542 151.131 62.4601C151.057 62.566 151.013 62.6891 151.002 62.8172C150.992 62.9452 151.016 63.0738 151.072 63.1899C151.127 63.3061 151.213 63.4059 151.32 63.4793C152.753 64.6498 154.912 64.8879 156.483 65.9835C158.164 67.143 159.502 68.7201 160.36 70.554C161.219 72.3878 161.567 74.4127 161.37 76.4221C161.217 78.0756 160.359 79.8245 160.56 81.4848C160.584 81.5784 160.627 81.6658 160.688 81.7415C160.749 81.8171 160.825 81.8792 160.912 81.9235C160.999 81.9679 161.095 81.9936 161.193 81.999C161.291 82.0043 161.389 81.9891 161.48 81.9544C163.307 80.9881 163.833 78.3206 163.965 76.4221Z" fill="#2E2E2E"/>
<path d="M184.542 123.668C186.815 122.663 188.115 120.62 187.445 119.105C186.775 117.59 184.389 117.176 182.116 118.181C179.843 119.185 178.543 121.228 179.213 122.744C179.883 124.259 182.269 124.673 184.542 123.668Z" fill="#EB8757"/>
<path d="M133.076 102.493C134.13 101.601 133.828 99.5111 132.401 97.8246C130.974 96.138 128.963 95.4937 127.909 96.3854C126.855 97.2771 127.157 99.3672 128.584 101.054C130.01 102.74 132.022 103.385 133.076 102.493Z" fill="#EB8757"/>
<path d="M104 172.376H101C101.908 171.943 102.946 171.882 103.898 172.204L104 172.376Z" fill="url(#paint5_linear_532_2550)"/>
<path d="M191.136 152C179.866 151.315 162.514 149.32 145.802 143.707C127.568 137.587 110.085 124.62 100 116.224C101.162 113.402 102.501 110.655 104.009 108C113.226 115.827 130.874 129.369 148.64 135.346C166.041 141.185 184.591 142.885 195 143.337C193.918 146.312 192.627 149.206 191.136 152Z" fill="#2E2E2E"/>
<path d="M183 164.629C182.438 165.416 181.868 166.19 181.299 166.956L181.258 167.012C180.572 167.933 179.887 168.83 179.201 169.705L178.241 170.921L177.85 171.404L177.013 172.441H174.832H166.562C166.267 172.62 165.979 172.814 165.691 173C163.675 172.855 161.576 172.675 159.519 172.454C150.919 171.536 141.908 169.871 134.632 166.929C121.602 161.673 104.527 149.903 94 142.167C94.2002 138.756 94.6102 135.36 95.2275 132C104.588 139.038 124.119 153.094 137.917 158.661C150.583 163.758 169.984 164.58 180.902 164.594L183 164.629Z" fill="#2E2E2E"/>
<path d="M95.0205 161.043C100.185 164.629 107.164 169.236 114 173H104.507H98.089C97.2834 170.722 96.5975 168.401 96.0343 166.047C95.6324 164.374 95.2877 162.692 95 161L95.0205 161.043Z" fill="#2E2E2E"/>
<path d="M98.4986 108.713L97.8159 107.597C96.4504 105.442 95.5288 103.638 93.4739 106.418C91.8012 108.678 91.7876 111.753 92.2859 114.448C92.8867 117.691 94.4092 121.419 97.8636 122.774C100.827 123.939 103.633 120.373 102.875 117.326C102.117 114.28 100.185 111.353 98.4986 108.713Z" fill="url(#paint6_linear_532_2550)"/>
<path d="M182.188 170.429C182.281 170.86 182.374 171.284 182.46 171.701C182.977 174.134 183.236 176.109 186.027 174.291C188.295 172.815 189.342 170.019 189.76 167.381C190.284 164.217 190.131 160.28 187.433 157.812C185.125 155.721 181.392 157.983 181.074 161.031C180.756 164.08 181.525 167.402 182.188 170.429Z" fill="url(#paint7_linear_532_2550)"/>
<g style="mix-blend-mode:overlay" opacity="0.3">
<path d="M185.601 100.696C184.415 97.7082 180.948 94.1489 179.824 92.9509C175.672 88.5042 170.567 85.0909 164.905 82.9765C161.431 81.6949 139.982 77.8013 142.154 86.5428C142.839 89.3289 147.232 91.2235 149.692 91.5996C155.024 92.4215 160.314 94.532 165.317 96.4754C170.908 98.6694 175.699 102.159 181.037 104.555C181.604 104.839 182.226 104.991 182.858 105C183.49 105.008 184.115 104.873 184.689 104.604C186.211 103.81 186.252 102.34 185.601 100.696Z" fill="white"/>
</g>
<g style="mix-blend-mode:overlay" opacity="0.4">
<path d="M178 167.985C177.94 168.889 177.554 169.75 176.901 170.439C176.48 170.959 176.051 171.48 175.609 172H167C169.398 170.593 171.79 169.192 174.195 167.863C176.601 166.533 177.921 166.873 178 167.985Z" fill="#2E2E2E"/>
</g>
<path d="M157.676 91.549C156.127 97.7354 148.759 102.286 142.308 100.672C135.857 99.0575 131.78 91.4933 133.329 85.3C134.877 79.1067 142.357 75.7873 148.787 77.4087C155.218 79.0301 159.197 85.3626 157.676 91.549Z" fill="white"/>
<path d="M155.38 81.9148C154.115 80.3133 152.484 79.0398 150.625 78.202C149.912 77.88 149.173 77.6233 148.414 77.4347C146.119 76.8541 143.716 76.8551 141.421 77.4376C139.126 78.02 137.012 79.1656 135.271 80.7708C134.073 81.9139 133.159 83.3214 132.602 84.881C132.506 85.1505 132.423 85.4249 132.356 85.703C132.315 85.8811 132.274 86.0524 132.239 86.2305C130.905 92.7931 135.298 100.054 141.695 101.657C142.619 101.889 143.569 102.004 144.521 102C147.022 101.968 149.467 101.258 151.596 99.9448C153.017 99.0995 154.277 98.0095 155.318 96.7252L155.489 96.5196C155.887 96.0146 156.244 95.4786 156.557 94.9167C156.747 94.584 156.918 94.241 157.07 93.8891C157.315 93.3286 157.514 92.749 157.665 92.156C158.094 90.3878 158.111 88.5445 157.715 86.7687C157.319 84.9929 156.52 83.3321 155.38 81.9148ZM155.749 93.5124C154.699 95.7249 153.006 97.5682 150.891 98.8008C148.244 100.466 145.047 101.015 141.996 100.328C136.235 98.883 132.178 91.9368 133.649 86.0319C134.069 84.5788 134.812 83.2396 135.821 82.114C136.831 80.9883 138.081 80.1054 139.478 79.5309C141.178 78.7658 143.02 78.3712 144.884 78.3732C145.274 78.3732 145.671 78.3732 146.068 78.428C146.737 78.4859 147.401 78.5982 148.052 78.7637C150.072 79.264 151.919 80.3033 153.396 81.771C154.405 82.7618 155.209 83.9423 155.762 85.2447C156.315 86.5471 156.606 87.9459 156.618 89.3611C156.617 90.1994 156.513 91.0344 156.31 91.8478C156.177 92.4192 155.989 92.9765 155.749 93.5124Z" fill="#2E2E2E"/>
<path d="M151.099 91.0971C151.904 87.8828 149.952 84.6241 146.737 83.8186C143.523 83.0131 140.264 84.9657 139.459 88.18C138.653 91.3943 140.606 94.653 143.82 95.4586C147.034 96.2641 150.293 94.3114 151.099 91.0971Z" fill="#2E2E2E"/>
<path d="M148.5 90C149.328 90 150 89.3284 150 88.5C150 87.6716 149.328 87 148.5 87C147.672 87 147 87.6716 147 88.5C147 89.3284 147.672 90 148.5 90Z" fill="white"/>
<path d="M147.366 95.0324C147.635 93.9609 146.984 92.8747 145.913 92.6062C144.841 92.3377 143.755 92.9886 143.486 94.06C143.218 95.1314 143.869 96.2177 144.94 96.4862C146.011 96.7547 147.098 96.1038 147.366 95.0324Z" fill="white"/>
<path d="M189.673 105.545C188.125 111.739 180.762 116.291 174.303 114.669C167.844 113.048 163.781 105.489 165.33 99.3012C166.878 93.1135 174.359 89.7866 180.79 91.4083C187.222 93.03 191.201 99.3569 189.673 105.545Z" fill="white"/>
<path d="M189.14 95.9921C187.376 93.2014 184.598 91.2033 181.389 90.4185C180.217 90.1284 179.012 89.9881 177.805 90.0008C175.62 90.022 173.467 90.5247 171.5 91.473C169.313 92.4944 167.498 94.1692 166.305 96.266C166.149 96.5313 166.01 96.8057 165.887 97.0877C165.654 97.6117 165.466 98.1546 165.325 98.7105C165.325 98.7858 165.325 98.8611 165.277 98.9364C164.604 102.198 165.168 105.592 166.86 108.461C167.681 109.966 168.796 111.291 170.139 112.356C171.482 113.422 173.027 114.207 174.68 114.664C175.592 114.888 176.529 115.001 177.469 115C180.027 114.949 182.523 114.212 184.699 112.868C186.875 111.524 188.65 109.621 189.839 107.358C190.051 106.941 190.231 106.508 190.381 106.064C190.483 105.77 190.572 105.469 190.648 105.167C191.037 103.616 191.105 102.002 190.845 100.424C190.586 98.8456 190.006 97.3374 189.14 95.9921ZM174.988 113.309C173.514 112.896 172.139 112.192 170.942 111.238C169.746 110.284 168.754 109.1 168.025 107.756C166.471 105.124 165.981 101.999 166.654 99.0186C166.852 98.2259 167.161 97.4651 167.573 96.759C168.648 94.9896 170.224 93.5788 172.103 92.7055C173.925 91.8235 175.924 91.3669 177.949 91.3702C178.441 91.369 178.933 91.3987 179.422 91.4593C179.979 91.5134 180.531 91.6095 181.074 91.7468C183.938 92.4506 186.42 94.2313 188.002 96.7179C188.763 97.9098 189.272 99.2442 189.498 100.639C189.724 102.034 189.663 103.461 189.318 104.832C187.859 110.666 180.889 114.781 174.988 113.309Z" fill="#2E2E2E"/>
<path d="M183.099 104.097C183.904 100.883 181.952 97.6241 178.737 96.8186C175.523 96.0131 172.264 97.9658 171.459 101.18C170.653 104.394 172.606 107.653 175.82 108.459C179.034 109.264 182.293 107.311 183.099 104.097Z" fill="#2E2E2E"/>
<path d="M180.5 104C181.328 104 182 103.328 182 102.5C182 101.672 181.328 101 180.5 101C179.672 101 179 101.672 179 102.5C179 103.328 179.672 104 180.5 104Z" fill="white"/>
<path d="M180.366 108.032C180.635 106.961 179.984 105.875 178.913 105.606C177.841 105.338 176.755 105.989 176.486 107.06C176.218 108.131 176.869 109.218 177.94 109.486C179.011 109.755 180.098 109.104 180.366 108.032Z" fill="white"/>
<path d="M164.762 99C164.034 97.2092 162.925 96.0556 161.476 95.5585C158.755 94.6471 155.707 96.1958 155.68 96.2404L155 95.1251C155.15 95.0487 158.639 93.2514 161.918 94.3604C163.762 94.9977 165.143 96.3934 166 98.5411L164.762 99Z" fill="#2E2E2E"/>
<path d="M199.4 116C199.256 115.999 199.116 115.957 198.999 115.879C198.881 115.801 198.793 115.691 198.744 115.564C198.696 115.438 198.691 115.3 198.729 115.171C198.767 115.041 198.847 114.926 198.958 114.84C199.59 114.355 200.713 112.926 200.558 111.648C200.49 111.262 200.312 110.9 200.043 110.6C199.774 110.3 199.423 110.073 199.028 109.943C195.56 108.383 189.65 107.354 189.587 107.321C189.495 107.306 189.407 107.274 189.328 107.226C189.249 107.179 189.181 107.118 189.128 107.046C189.074 106.974 189.036 106.893 189.016 106.808C188.996 106.722 188.995 106.634 189.011 106.548C189.028 106.462 189.062 106.38 189.113 106.306C189.164 106.233 189.229 106.169 189.306 106.119C189.383 106.069 189.47 106.034 189.561 106.015C189.653 105.997 189.747 105.995 189.84 106.011C190.092 106.056 196.003 107.086 199.667 108.718C200.277 108.939 200.813 109.308 201.219 109.787C201.625 110.267 201.887 110.839 201.976 111.444C202.194 113.195 200.874 115.05 199.87 115.81C199.745 115.926 199.577 115.994 199.4 116Z" fill="#2E2E2E"/>
<path d="M120.667 88.9998C120.539 88.9995 120.414 88.9641 120.304 88.8974C120.195 88.8306 120.105 88.7352 120.045 88.621C119.465 87.5133 118.589 85.3835 119.218 83.5467C119.39 83.063 119.662 82.6217 120.015 82.252C120.369 81.8824 120.796 81.5929 121.268 81.4026C124.16 80.0876 128.042 82.2674 131.168 84.0113C132.059 84.5115 132.9 84.9904 133.579 85.2906C133.664 85.3286 133.741 85.3831 133.805 85.4511C133.869 85.5191 133.919 85.5992 133.952 85.6868C133.986 85.7744 134.002 85.8678 134 85.9617C133.998 86.0556 133.977 86.1481 133.939 86.234C133.902 86.3198 133.848 86.3974 133.781 86.4622C133.713 86.527 133.634 86.5777 133.547 86.6116C133.461 86.6454 133.368 86.6617 133.275 86.6594C133.183 86.6572 133.091 86.6365 133.006 86.5985C132.299 86.2697 131.401 85.7766 130.482 85.262C127.653 83.6682 124.118 81.6885 121.848 82.7034C121.551 82.8179 121.283 82.996 121.061 83.2254C120.838 83.4549 120.668 83.7303 120.561 84.0327C120.229 85.0047 120.498 86.4412 121.268 87.9707C121.313 88.0536 121.341 88.1447 121.35 88.2386C121.36 88.3325 121.351 88.4273 121.324 88.5177C121.297 88.6081 121.253 88.6922 121.193 88.7651C121.134 88.838 121.061 88.8984 120.979 88.9426C120.88 88.9826 120.774 89.0021 120.667 88.9998Z" fill="#2E2E2E"/>
<path d="M148.791 113C148.791 113 144.607 116.783 146.484 119.474L146.535 119.559C146.893 120.04 147.368 120.423 147.915 120.673C148.463 120.924 149.065 121.033 149.667 120.991C150.269 120.95 150.85 120.758 151.357 120.434C151.864 120.111 152.28 119.666 152.567 119.14L154 116.457L148.791 113Z" fill="white"/>
<path d="M153.894 116.232L151.06 114.364L149.07 113.058C149.014 113.02 148.948 113 148.881 113C148.813 113 148.747 113.02 148.692 113.058C148.645 113.104 148.294 113.424 147.849 113.927C146.767 115.168 145.162 117.532 146.522 119.446L146.575 119.517C146.904 119.978 147.342 120.353 147.85 120.611C148.358 120.869 148.923 121.003 149.495 121H149.727C150.334 120.955 150.921 120.76 151.431 120.432C151.942 120.104 152.36 119.655 152.646 119.126L153.542 117.467V117.427L153.715 117.114L153.96 116.663C153.983 116.621 153.995 116.574 153.993 116.526C154.005 116.473 154.001 116.418 153.984 116.366C153.967 116.314 153.935 116.268 153.894 116.232ZM153.151 116.846L152.082 118.806C151.844 119.251 151.492 119.627 151.062 119.9C150.632 120.172 150.138 120.331 149.627 120.36C149.13 120.39 148.633 120.295 148.184 120.084C147.735 119.872 147.348 119.552 147.059 119.152L147.013 119.086C145.918 117.512 147.411 115.403 148.38 114.299C148.599 114.057 148.785 113.862 148.917 113.731L153.277 116.605L153.151 116.846Z" fill="#2E2E2E"/>
<path d="M154.208 117C154.208 117 151.565 121.536 154.098 123.355L154.173 123.407C154.646 123.724 155.194 123.921 155.768 123.981C156.341 124.04 156.921 123.961 157.454 123.75C157.987 123.538 158.456 123.202 158.817 122.771C159.178 122.341 159.42 121.83 159.52 121.287L160 118.516L154.208 117Z" fill="white"/>
<path d="M160.926 118.681C160.876 118.622 160.809 118.579 160.733 118.558L158.455 117.963H158.37L154.699 117.012C154.634 116.995 154.566 116.996 154.502 117.014C154.438 117.032 154.38 117.067 154.335 117.114L154.292 117.169C154.292 117.21 154.156 117.409 154.006 117.716C153.956 117.819 153.899 117.935 153.849 118.058V118.099C153.135 119.638 152.171 122.702 154.299 124.254L154.378 124.316C155.037 124.768 155.83 125.008 156.641 125C157.146 124.997 157.645 124.902 158.112 124.719C158.731 124.478 159.274 124.088 159.689 123.588C160.104 123.087 160.378 122.492 160.483 121.861L160.833 119.857L160.99 118.975C161.003 118.924 161.003 118.872 160.992 118.821C160.981 118.77 160.958 118.722 160.926 118.681ZM160.14 119.679L159.783 121.731C159.693 122.25 159.465 122.738 159.121 123.149C158.777 123.56 158.329 123.879 157.82 124.077C157.325 124.273 156.785 124.343 156.253 124.281C155.722 124.219 155.216 124.026 154.785 123.721L154.571 123.994L154.706 123.666C152.821 122.298 154.085 119.173 154.67 117.976C154.713 117.88 154.756 117.798 154.792 117.73L160.233 119.153L160.14 119.679Z" fill="#2E2E2E"/>
<path d="M142.177 109C144.325 110.398 146.473 111.755 148.648 113.041C150.808 114.352 153.047 115.52 155.351 116.538C156.494 117.053 157.665 117.499 158.858 117.873C160.041 118.27 161.25 118.581 162.475 118.803C163.699 119.039 164.941 119.17 166.186 119.195C167.438 119.203 168.688 119.088 169.918 118.852L170 119.146C167.522 119.954 164.902 120.193 162.325 119.845C159.757 119.504 157.243 118.818 154.848 117.803C152.459 116.814 150.163 115.602 147.989 114.181C145.813 112.775 143.803 111.114 142 109.231L142.177 109Z" fill="#2E2E2E"/>
<path d="M372.932 172H280.217C273.131 168.16 266.932 163.605 262.258 157.965C254.842 149.034 254.471 136.236 255.323 127.299C255.516 125.203 255.791 123.314 256.045 121.734C258.588 106.277 274.011 92.1942 293.523 86.5885C294.348 86.3549 295.179 86.1282 296.018 85.9015C303.505 84.0355 311.268 83.5374 318.932 84.4314C319.846 84.5344 320.76 84.6649 321.681 84.8161L322.286 84.926C330.121 86.4401 337.513 89.7044 343.908 94.4749C344.169 94.6535 344.431 94.839 344.685 95.0314C346.676 96.5107 348.588 98.0953 350.41 99.7784C351.022 100.342 351.62 100.912 352.211 101.496C352.609 101.887 353.008 102.286 353.4 102.691C355.07 104.402 356.657 106.195 358.163 108.043C358.983 109.036 359.773 110.046 360.534 111.072C360.795 111.423 361.056 111.759 361.304 112.13C361.551 112.501 361.812 112.817 362.06 113.195C362.829 114.294 363.567 115.402 364.273 116.52C364.513 116.891 364.747 117.262 364.96 117.64C365.785 118.972 366.561 120.326 367.304 121.679C369.085 124.937 370.646 128.311 371.977 131.778L372.39 132.877C372.527 133.248 372.658 133.612 372.781 133.983C373.166 135.091 373.519 136.188 373.84 137.273C374.025 137.926 374.204 138.572 374.369 139.211C375.196 142.288 375.723 145.437 375.943 148.615C375.943 148.904 375.943 149.179 375.991 149.46C376.109 157.084 375.078 164.683 372.932 172Z" fill="url(#paint8_linear_532_2550)"/>
<path d="M310.925 122.547C312.027 120.959 311.818 118.906 310.457 117.961C309.096 117.016 307.099 117.537 305.996 119.125C304.894 120.713 305.103 122.766 306.464 123.711C307.825 124.656 309.822 124.134 310.925 122.547Z" fill="#2E2E2E"/>
<path d="M283.06 109.272C283.972 107.567 283.724 105.658 282.506 105.007C281.289 104.355 279.562 105.209 278.651 106.914C277.739 108.618 277.987 110.528 279.205 111.179C280.422 111.83 282.148 110.976 283.06 109.272Z" fill="#2E2E2E"/>
<path d="M285.196 127.966C284.606 127.873 284.052 127.617 283.59 127.226C281.862 125.695 281.998 122.603 282.005 122.478C282.008 122.412 282.024 122.347 282.052 122.287C282.079 122.228 282.118 122.174 282.165 122.13C282.212 122.085 282.268 122.051 282.328 122.029C282.388 122.007 282.452 121.997 282.516 122.001C282.579 122.004 282.642 122.02 282.699 122.049C282.757 122.077 282.809 122.117 282.851 122.166C282.894 122.215 282.927 122.273 282.949 122.335C282.97 122.397 282.979 122.463 282.976 122.53C282.976 122.53 282.862 125.251 284.225 126.457C284.975 127.123 286.752 127.404 289.279 126.006C289.394 125.945 289.527 125.932 289.651 125.971C289.775 126.009 289.879 126.096 289.942 126.213C290.003 126.332 290.017 126.471 289.979 126.599C289.942 126.728 289.857 126.836 289.743 126.901C288.375 127.748 286.782 128.121 285.196 127.966Z" fill="#2E2E2E"/>
<path d="M294.072 75.4808C295.209 77.4978 295.866 79.7556 295.989 82.0746C296.068 84.1341 295.713 86.1869 294.949 88.0972C294.486 89.2811 293.276 92.227 291.691 91.9861C291.632 91.971 291.577 91.941 291.532 91.8989C291.487 91.8568 291.453 91.804 291.433 91.7452C291.011 90.6577 292.351 89.0333 292.732 88.0077C293.389 86.229 293.652 84.3255 293.5 82.4325C293.341 80.4168 292.679 78.4749 291.576 76.7885C290.549 75.2055 288.74 74.0836 288.046 72.3146C288 72.1671 287.988 72.0108 288.011 71.8579C288.035 71.7049 288.092 71.5594 288.179 71.4324C288.267 71.3054 288.382 71.2004 288.515 71.1255C288.649 71.0505 288.798 71.0076 288.951 71C291.283 71.1377 293.017 73.5811 294.072 75.4808Z" fill="#2E2E2E"/>
<path d="M315.368 133.5C315.637 131.865 313.867 130.213 311.414 129.81C308.962 129.407 306.756 130.405 306.487 132.04C306.218 133.675 307.988 135.327 310.44 135.73C312.893 136.134 315.099 135.135 315.368 133.5Z" fill="#EB8757"/>
<path d="M272.729 117.131C274.133 115.803 273.886 113.262 272.178 111.457C270.469 109.652 267.946 109.266 266.542 110.594C265.138 111.923 265.385 114.463 267.093 116.268C268.801 118.073 271.324 118.46 272.729 117.131Z" fill="#EB8757"/>
<path d="M287 173H285L285.37 172L287 173Z" fill="#FCC440"/>
<path d="M352 101.472C351.786 102.626 351.552 103.828 351.311 105.078C351.18 105.71 351.036 106.356 350.891 107.009C349.798 111.754 348.442 116.436 346.828 121.031C346.766 121.216 346.697 121.402 346.628 121.58C342.644 132.837 337.111 143.487 330.188 153.224C325.361 160 319.88 166.289 313.824 172H301C318.332 157.901 331.418 139.296 338.811 118.242C339.187 117.17 339.541 116.114 339.872 115.074C341.582 109.756 342.917 104.324 343.866 98.8198C344.018 97.9404 344.149 97.1022 344.273 96.3053C344.335 95.8588 344.396 95.4191 344.452 95C346.447 96.4794 348.362 98.064 350.189 99.7472C350.809 100.317 351.408 100.888 352 101.472Z" fill="#2E2E2E"/>
<path d="M367 121.582C366.806 122.553 366.598 123.536 366.375 124.531C365.122 130.397 363.469 136.172 361.428 141.816C358.416 150.026 354.356 157.939 348.895 164.011C346.376 166.816 343.822 169.511 341.303 172H329C333.393 167.964 338.021 163.392 342.518 158.386C348.618 151.607 352.788 141.851 355.619 132.19C357.301 126.375 358.629 120.465 359.596 114.493C359.693 113.895 359.79 113.303 359.873 112.726C359.957 112.148 360.054 111.564 360.137 111C360.664 111.688 361.178 112.409 361.684 113.125C362.721 114.587 363.704 116.07 364.634 117.573C365.466 118.873 366.251 120.227 367 121.582Z" fill="#2E2E2E"/>
<path d="M375 148.755C374.742 149.541 374.477 150.327 374.199 151.119C373.52 153.031 372.842 154.958 372.088 156.87C370.103 162.155 367.549 167.205 364.473 171.932L364.425 172H354C355.31 170.361 356.525 168.735 357.597 167.164C360.713 162.615 363.394 156.522 365.6 150.402C367.636 144.725 369.271 139.029 370.439 134.514C370.67 133.626 370.88 132.786 371.077 132C371.355 132.738 371.627 133.475 371.871 134.206C372.251 135.306 372.604 136.399 372.916 137.478C373.1 138.127 373.276 138.769 373.439 139.404C374.258 142.463 374.78 145.595 375 148.755Z" fill="#2E2E2E"/>
<path d="M371.143 89.2574C381.377 84.6065 401.928 82.5865 400.967 99.7877C400.159 114.136 382.78 115.621 371.82 114.83C366.292 114.441 359.644 113.851 354.544 111.498C346.031 107.576 354.966 99.6974 359.381 96.2614C363.032 93.4966 366.976 91.1476 371.143 89.2574Z" fill="#C6EDFF"/>
<path d="M349.812 66.4012C349.501 66.4914 349.183 66.5816 348.864 66.6926C340.518 69.4681 340.417 79.55 341.453 86.9189C342.441 93.9894 344.634 101.823 349.778 106.965C355.349 112.516 361.779 105.501 364.379 100.366C367.797 93.6286 367.547 85.2328 365.489 78.1067C363.431 70.9807 357.698 64.271 349.812 66.4012Z" fill="#C6EDFF"/>
<path d="M319.084 80.741C320.691 82.6933 321.903 84.9286 322.657 87.327C323.902 91.8042 321.656 96.5817 317.575 98.9294C317.2 99.1478 316.498 98.8339 316.783 98.3357C317.756 96.609 319.292 95.2576 320.099 93.4217C320.491 92.4619 320.676 91.433 320.644 90.3995C320.611 89.366 320.362 88.3502 319.911 87.4158C319.037 85.4566 317.842 83.6513 316.373 82.0718C314.982 80.5158 312.751 79.1985 312.055 77.1852C312.003 77.045 311.987 76.8941 312.01 76.7464C312.034 76.5988 312.095 76.4594 312.188 76.3413C312.281 76.2232 312.403 76.1303 312.543 76.0714C312.683 76.0125 312.836 75.9894 312.987 76.0045C315.552 76.1137 317.652 78.8846 319.084 80.741Z" fill="#2E2E2E"/>
<g style="mix-blend-mode:overlay" opacity="0.3">
<path d="M285.383 92.4456C292.099 88.0968 302.355 86.8553 310.215 87.013C335.006 87.5069 356.504 106.967 367.328 128.079C370.137 133.519 372.133 139.343 373.25 145.365C373.25 145.365 375.544 154.967 372.107 156.847C368.67 158.726 361.098 142.744 359.482 139.651C355.34 131.708 349.212 125.192 342.907 118.922C337.115 113.147 330.583 107.947 322.662 105.526C314.953 103.272 307.012 101.914 298.993 101.479C295.098 101.225 291.045 101.692 287.211 101.02C285.458 100.711 282.165 100.251 281.254 98.3994C280.008 95.8615 283.657 93.5636 285.383 92.4456Z" fill="white"/>
</g>
<path d="M194.199 289C194.199 289 200.771 290.138 204.03 292.117C207.289 294.096 209.233 297.13 207.116 298.668C204.998 300.205 191 295.909 191 295.909L194.199 289Z" fill="#FCC440"/>
<path d="M191 269.911C191 269.911 196.371 265.692 200.07 264.556C203.769 263.42 207.324 263.985 206.976 266.621C206.628 269.257 193.832 277 193.832 277L191 269.911Z" fill="#FCC440"/>
<path d="M195.122 236.644C198.997 245.459 199.541 255.565 198.598 265.094C198.508 265.992 198.412 266.884 198.295 267.769C197.985 270.177 197.606 272.53 197.2 274.835C196.925 276.408 196.645 277.957 196.361 279.48C196.078 281.085 195.789 282.67 195.541 284.234C195.245 286.079 194.991 287.904 194.812 289.722C194.528 292.307 194.466 294.912 194.626 297.508C194.626 297.831 194.674 298.146 194.709 298.462C194.884 300.31 195.241 302.137 195.775 303.916C196.183 305.277 196.701 306.603 197.324 307.881L186.786 307.812L130.46 307.469L113.3 307.36H107.147C107.147 307.36 107.691 308.8 107.092 307.36C106.871 306.845 106.665 306.331 106.458 305.816L106.39 305.624C105.372 303.034 104.497 300.392 103.767 297.707C102.825 294.293 102.124 290.818 101.668 287.307C101.516 286.216 101.399 285.126 101.303 284.028C101.241 283.342 101.179 282.656 101.145 281.97C101.048 280.438 101 278.903 101 277.367C101 276.749 101 276.139 101 275.521C101.333 260.67 106.283 246.288 115.166 234.36C117.755 230.845 120.723 227.624 124.018 224.755C124.589 224.261 125.174 223.774 125.766 223.308C133.207 217.38 141.969 213.614 151.385 213.072C152.246 213.017 153.12 212.99 154.001 213.003C157.724 213.021 161.427 213.533 165.014 214.526C166.943 215.005 168.813 215.696 170.59 216.585C180.625 221.188 190.111 225.249 195.122 236.644Z" fill="url(#paint9_linear_532_2550)"/>
<path d="M151.012 200.697C150.134 203.057 149.821 205.591 150.098 208.094C150.373 210.312 151.117 212.447 152.28 214.358C152.972 215.54 154.822 218.457 156.505 217.939C156.568 217.913 156.624 217.872 156.666 217.819C156.708 217.765 156.736 217.702 156.747 217.635C157.01 216.397 155.272 214.869 154.669 213.867C153.641 212.079 153.019 210.087 152.848 208.032C152.676 205.855 153.055 203.671 153.949 201.678C154.787 199.791 156.553 198.27 156.989 196.251C157.013 196.085 156.998 195.916 156.945 195.757C156.893 195.598 156.805 195.453 156.688 195.333C156.571 195.213 156.429 195.121 156.271 195.065C156.113 195.008 155.944 194.988 155.777 195.007C153.256 195.581 151.823 198.47 151.012 200.697Z" fill="#2E2E2E"/>
<path d="M138.311 248.423C139.611 247.396 139.557 245.159 138.188 243.424C136.82 241.69 134.656 241.116 133.355 242.142C132.055 243.168 132.109 245.406 133.478 247.14C134.846 248.875 137.01 249.449 138.311 248.423Z" fill="#2E2E2E"/>
<path d="M166.752 232.236C168.162 231.367 168.366 229.137 167.207 227.257C166.047 225.376 163.964 224.557 162.554 225.426C161.143 226.295 160.94 228.524 162.099 230.405C163.258 232.286 165.341 233.105 166.752 232.236Z" fill="#2E2E2E"/>
<path d="M135.432 260.713C138.124 260.099 139.958 258.073 139.528 256.188C139.098 254.304 136.567 253.274 133.875 253.888C131.183 254.502 129.349 256.528 129.778 258.412C130.208 260.297 132.739 261.327 135.432 260.713Z" fill="#EB8757"/>
<path d="M180.344 237.299C182.116 235.181 182.18 232.315 180.485 230.898C178.791 229.48 175.981 230.048 174.209 232.165C172.437 234.283 172.374 237.149 174.068 238.567C175.762 239.984 178.572 239.417 180.344 237.299Z" fill="#EB8757"/>
<path d="M125.531 210.07C124.246 212.398 123.404 214.958 123.052 217.612C122.561 222.542 125.616 227.19 130.098 228.964C130.517 229.133 131.165 228.681 130.799 228.202C129.529 226.549 127.756 225.382 126.644 223.588C126.09 222.643 125.732 221.59 125.59 220.496C125.448 219.402 125.526 218.289 125.819 217.227C126.366 215.015 127.264 212.911 128.476 211.001C129.601 209.126 131.629 207.359 131.983 205.119C132.013 204.963 132.003 204.801 131.956 204.649C131.908 204.497 131.823 204.36 131.71 204.251C131.597 204.142 131.458 204.065 131.308 204.027C131.158 203.989 131 203.991 130.851 204.033C128.299 204.593 126.663 207.864 125.531 210.07Z" fill="#2E2E2E"/>
<g style="mix-blend-mode:overlay" opacity="0.3">
<path d="M134.276 224.97C135.707 226.689 134.66 230.134 134.164 231.997C133.075 236.066 130.758 239.84 129.23 243.779C125.989 251.853 123.708 260.267 122.432 268.855C121.985 272.156 121.962 275.5 122.362 278.807C122.833 282.605 123.672 286.351 124.868 289.993C125.377 291.602 125.942 293.198 126.536 294.787C127.813 298.212 129.132 301.575 130.612 304.89C130.926 305.575 131.247 306.301 131.575 307L114.182 306.89C113.868 306.267 113.554 305.644 113.254 305.014C109.975 298.267 107.607 291.129 106.212 283.78C106.086 283.157 105.981 282.533 105.884 281.903C105.628 280.319 105.428 278.732 105.283 277.143C105.186 276.163 105.123 275.184 105.074 274.204C104.953 271.693 104.981 269.178 105.158 266.67C105.388 263.31 105.92 259.978 106.749 256.711C107.471 253.85 108.433 251.052 109.625 248.347C113.072 240.552 119.005 231.032 126.431 226.381L126.599 226.278C127.122 225.942 127.778 225.538 128.497 225.155C130.458 224.093 132.873 223.285 134.276 224.97Z" fill="white"/>
</g>
<path d="M196 279.136C195.719 280.698 195.431 282.247 195.184 283.762C189.106 286.041 182.852 287.849 176.482 289.169C175.371 289.409 174.26 289.59 173.143 289.797C172.025 290.003 170.922 290.217 169.797 290.371L166.431 290.845C165.314 290.991 164.183 291.118 163.058 291.238C161.934 291.359 160.803 291.472 159.671 291.539C158.54 291.606 157.402 291.732 156.244 291.792C153.974 291.879 151.705 291.993 149.429 291.999C147.153 292.006 144.884 291.959 142.614 291.899C140.345 291.839 138.069 291.666 135.807 291.472C131.754 291.16 127.726 290.595 123.747 289.783C123.274 289.69 122.794 289.583 122.315 289.476C117.867 288.491 113.51 287.152 109.289 285.471C107.986 284.937 106.69 284.37 105.415 283.755C104.627 283.382 103.852 282.988 103.084 282.581C102.433 282.227 101.782 281.866 101.137 281.486C101.041 279.991 101 278.495 101 277C102.175 277.085 103.34 277.178 104.496 277.28H104.764C106.951 277.474 109.124 277.654 111.277 277.874L121.272 278.896L124.09 279.183L136.814 280.484C141.058 280.872 145.316 281.152 149.58 281.299C153.844 281.446 158.122 281.533 162.407 281.472L165.622 281.432L168.844 281.326C170.99 281.279 173.136 281.125 175.289 281.032C182.151 280.618 189.007 279.917 196 279.136Z" fill="#2E2E2E"/>
<path d="M196 303.222C193.074 304.599 190.085 305.849 187.049 307L130.967 306.667L113.881 306.588H107.754L107 304.905L109.46 304.851C110.639 304.851 111.804 304.805 112.969 304.798C113.97 304.798 114.971 304.798 115.964 304.765L128.774 304.685H130.021L141.466 304.652L144.64 304.579L147.813 304.452C148.868 304.452 149.924 304.359 150.979 304.299C152.035 304.239 153.097 304.186 154.152 304.093C162.652 303.495 171.115 302.482 179.51 301.06C184.664 300.182 189.791 299.137 194.972 298C195.14 299.769 195.484 301.518 196 303.222Z" fill="#2E2E2E"/>
<path d="M79.8905 271.029C68.782 275.812 52.2638 290.754 66.552 302.486C78.4727 312.272 92.2792 299.482 99.6229 290.166C103.312 285.48 107.682 279.736 109.527 273.957C112.603 264.309 99.8913 265.7 93.9929 266.724C89.147 267.625 84.4168 269.069 79.8905 271.029Z" fill="#C6EDFF"/>
<path d="M76.6323 238.08C76.9334 237.888 77.2461 237.704 77.5704 237.526C86.0554 232.815 94.1582 239.96 99.2659 246.087C104.13 251.96 108.779 259.352 108.995 267.195C109.266 275.673 98.849 275.803 92.8031 274.21C84.8671 272.118 78.3487 265.889 74.207 259.106C70.0653 252.323 69.0298 242.9 76.6323 238.08Z" fill="#C6EDFF"/>
<path d="M170.22 243.079C171.185 244.827 171.776 246.753 171.958 248.737C172.233 252.036 171.168 255.233 168.27 257.183C166.771 258.256 164.994 258.881 163.149 258.985C161.304 259.088 159.468 258.667 157.857 257.769C155.636 256.566 153.81 254.757 152.595 252.554C150.651 248.996 153.742 248.103 157.925 248.144C159.254 248.157 160.561 247.806 161.703 247.131C162.844 246.455 163.776 245.48 164.396 244.313C166.182 240.946 168.27 239.507 170.22 243.079Z" fill="#2E2E2E"/>
<path d="M171.959 249.007C172.231 252.219 171.177 255.332 168.308 257.231C166.824 258.275 165.065 258.884 163.239 258.985C161.413 259.086 159.595 258.675 158 257.801C159.224 254.764 161.54 252.265 164.514 250.772C166.786 249.538 169.359 248.928 171.959 249.007Z" fill="#E24450"/>
<defs>
<linearGradient id="paint0_linear_532_2550" x1="333.829" y1="225.901" x2="377.508" y2="353.501" gradientUnits="userSpaceOnUse">
<stop offset="0.15" stop-color="#FCD844"/>
<stop offset="0.42" stop-color="#FCD443"/>
<stop offset="0.69" stop-color="#FCC740"/>
<stop offset="0.97" stop-color="#FBB33C"/>
<stop offset="1" stop-color="#FBB03B"/>
</linearGradient>
<linearGradient id="paint1_linear_532_2550" x1="6441.21" y1="3230.76" x2="7289.41" y2="4710.73" gradientUnits="userSpaceOnUse">
<stop offset="0.15" stop-color="#FCD844"/>
<stop offset="0.42" stop-color="#FCD443"/>
<stop offset="0.69" stop-color="#FCC740"/>
<stop offset="0.97" stop-color="#FBB33C"/>
<stop offset="1" stop-color="#FBB03B"/>
</linearGradient>
<linearGradient id="paint2_linear_532_2550" x1="5697.41" y1="6145.73" x2="8101.76" y2="8329.53" gradientUnits="userSpaceOnUse">
<stop offset="0.15" stop-color="#FCD844"/>
<stop offset="0.42" stop-color="#FCD443"/>
<stop offset="0.69" stop-color="#FCC740"/>
<stop offset="0.97" stop-color="#FBB33C"/>
<stop offset="1" stop-color="#FBB03B"/>
</linearGradient>
<linearGradient id="paint3_linear_532_2550" x1="4412.54" y1="7558.52" x2="6835.81" y2="9750.95" gradientUnits="userSpaceOnUse">
<stop offset="0.15" stop-color="#FCD844"/>
<stop offset="0.42" stop-color="#FCD443"/>
<stop offset="0.69" stop-color="#FCC740"/>
<stop offset="0.97" stop-color="#FBB33C"/>
<stop offset="1" stop-color="#FBB03B"/>
</linearGradient>
<linearGradient id="paint4_linear_532_2550" x1="19525.4" y1="10305.7" x2="23423.7" y2="25997.2" gradientUnits="userSpaceOnUse">
<stop offset="0.15" stop-color="#FCD844"/>
<stop offset="0.42" stop-color="#FCD443"/>
<stop offset="0.69" stop-color="#FCC740"/>
<stop offset="0.97" stop-color="#FBB33C"/>
<stop offset="1" stop-color="#FBB03B"/>
</linearGradient>
<linearGradient id="paint5_linear_532_2550" x1="488.21" y1="257.718" x2="490.266" y2="275.358" gradientUnits="userSpaceOnUse">
<stop offset="0.15" stop-color="#FCD844"/>
<stop offset="0.42" stop-color="#FCD443"/>
<stop offset="0.69" stop-color="#FCC740"/>
<stop offset="0.97" stop-color="#FBB33C"/>
<stop offset="1" stop-color="#FBB03B"/>
</linearGradient>
<linearGradient id="paint6_linear_532_2550" x1="40003.7" y1="21980.8" x2="38538.3" y2="24889.2" gradientUnits="userSpaceOnUse">
<stop offset="0.15" stop-color="#FCD844"/>
<stop offset="0.42" stop-color="#FCD443"/>
<stop offset="0.69" stop-color="#FCC740"/>
<stop offset="0.97" stop-color="#FBB33C"/>
<stop offset="1" stop-color="#FBB03B"/>
</linearGradient>
<linearGradient id="paint7_linear_532_2550" x1="35344.1" y1="26072.1" x2="33692.1" y2="28318.8" gradientUnits="userSpaceOnUse">
<stop offset="0.15" stop-color="#FCD844"/>
<stop offset="0.42" stop-color="#FCD443"/>
<stop offset="0.69" stop-color="#FCC740"/>
<stop offset="0.97" stop-color="#FBB33C"/>
<stop offset="1" stop-color="#FBB03B"/>
</linearGradient>
<linearGradient id="paint8_linear_532_2550" x1="54949.4" y1="8745.84" x2="55553.3" y2="22862" gradientUnits="userSpaceOnUse">
<stop offset="0.15" stop-color="#FCD844"/>
<stop offset="0.42" stop-color="#FCD443"/>
<stop offset="0.69" stop-color="#FCC740"/>
<stop offset="0.97" stop-color="#FBB33C"/>
<stop offset="1" stop-color="#FBB03B"/>
</linearGradient>
<linearGradient id="paint9_linear_532_2550" x1="19150.2" y1="30353.7" x2="23139.3" y2="42828.8" gradientUnits="userSpaceOnUse">
<stop offset="0.15" stop-color="#FCD844"/>
<stop offset="0.42" stop-color="#FCD443"/>
<stop offset="0.69" stop-color="#FCC740"/>
<stop offset="0.97" stop-color="#FBB33C"/>
<stop offset="1" stop-color="#FBB03B"/>
</linearGradient>
</defs>
</svg>
