<svg width="515" height="377" viewBox="0 0 515 377" fill="none" xmlns="http://www.w3.org/2000/svg">
<path d="M412.651 309.37C403.669 318.612 395.629 324.047 389.456 328.145C329.426 368.147 260.599 363.402 239.38 359.458C205.151 353.101 176.467 341.836 151.641 319.452C95.2482 268.592 97.9929 162.491 141.096 96.7656C146.207 88.9727 189.246 25.2874 258.017 16.3371C259.697 16.1142 260.955 15.9899 262.05 15.8742C272.69 14.7511 338.613 8.81852 392.369 53.763C400.066 60.1928 413.759 71.0163 423.93 89.4999C460.337 155.637 466.05 254.442 412.651 309.37Z" fill="#F8F8F8"/>
<path d="M409 156.273C408.897 155.844 408.794 155.389 408.687 154.947C392.44 88.0947 324.547 47.2099 257 63.6248L286.709 186L409 156.273Z" fill="#FCB05C"/>
<path d="M287 185.256L406.158 226C413.817 203.869 415.074 180.04 409.786 157.232C409.614 156.485 409.435 155.741 409.249 155L287 185.256Z" fill="#0059DF"/>
<path d="M287 185L311.187 308C311.958 307.846 312.734 307.693 313.506 307.526C358.167 297.921 392.136 265.808 406 225.693L287 185Z" fill="#A0E0ED"/>
<path d="M271.985 175.2L246.726 54C189.611 65.6726 149.501 113.746 146 168.741L271.291 175.999C271.394 176.005 271.497 175.988 271.592 175.948C271.687 175.908 271.771 175.847 271.838 175.77C271.905 175.693 271.954 175.601 271.979 175.502C272.005 175.403 272.007 175.3 271.985 175.2V175.2Z" fill="#92CE91"/>
<path d="M287 185.18L161.143 181C160.602 192.018 161.595 201.254 164.105 212.542C175.822 265.21 218.931 302.783 269.39 310L287 185.18Z" fill="#FC81B3"/>
<path d="M268 310.591C282.281 312.745 296.827 312.427 311 309.651L286.873 186L268 310.591Z" fill="#FBFBFC"/>
<g opacity="0.61">
<path opacity="0.61" d="M241.23 298C241.122 297.999 241.014 297.977 240.914 297.936C223.197 290.641 207.458 279.248 194.984 264.69C182.511 250.132 173.658 232.822 169.15 214.179C168.723 212.466 168.359 210.753 168.025 209.04C167.998 208.93 167.993 208.816 168.01 208.704C168.028 208.592 168.068 208.485 168.129 208.389C168.189 208.293 168.269 208.211 168.362 208.147C168.455 208.083 168.56 208.038 168.671 208.016C168.782 207.994 168.896 207.995 169.007 208.018C169.118 208.042 169.222 208.088 169.315 208.153C169.407 208.218 169.485 208.302 169.545 208.398C169.604 208.495 169.643 208.602 169.659 208.714C169.993 210.389 170.365 212.089 170.771 213.763C175.217 232.151 183.948 249.224 196.251 263.582C208.553 277.941 224.077 289.178 241.551 296.373C241.712 296.46 241.841 296.596 241.919 296.762C241.997 296.928 242.019 297.115 241.983 297.294C241.947 297.474 241.855 297.638 241.719 297.761C241.584 297.884 241.412 297.96 241.23 297.979V298Z" fill="white"/>
</g>
<g opacity="0.61">
<path opacity="0.61" d="M332.831 299C332.637 298.998 332.449 298.93 332.3 298.805C332.152 298.681 332.051 298.509 332.015 298.319C331.979 298.128 332.01 297.931 332.103 297.761C332.196 297.591 332.346 297.459 332.526 297.387C347.984 291.212 361.994 281.904 373.675 270.049C385.356 258.193 394.454 244.048 400.394 228.505C400.48 228.307 400.639 228.15 400.838 228.066C401.036 227.982 401.26 227.978 401.462 228.055C401.663 228.132 401.827 228.284 401.919 228.479C402.012 228.674 402.025 228.897 401.957 229.101C395.931 244.858 386.705 259.197 374.861 271.213C363.017 283.23 348.812 292.665 333.14 298.923C333.042 298.968 332.937 298.994 332.831 299V299Z" fill="white"/>
</g>
<g opacity="0.61">
<path opacity="0.61" d="M385.163 114C385.033 114.001 384.904 113.971 384.788 113.914C384.671 113.857 384.57 113.773 384.492 113.67C369.416 93.86 348.496 79.1737 324.622 71.6411C324.512 71.6115 324.409 71.5601 324.32 71.49C324.231 71.42 324.157 71.3328 324.102 71.2336C324.048 71.1345 324.014 71.0255 324.004 70.9132C323.993 70.8008 324.006 70.6876 324.04 70.5802C324.075 70.4727 324.132 70.3734 324.206 70.2882C324.281 70.2029 324.372 70.1336 324.475 70.0842C324.577 70.0348 324.689 70.0065 324.802 70.001C324.916 69.9955 325.03 70.0128 325.137 70.052C349.343 77.6872 370.554 92.5773 385.838 112.664C385.967 112.842 386.022 113.063 385.992 113.281C385.961 113.498 385.847 113.696 385.673 113.833C385.527 113.943 385.347 114.002 385.163 114Z" fill="white"/>
</g>
<g opacity="0.74">
<path opacity="0.74" d="M214.186 168.987H214.13L150 164.82L150.142 163.905C151.828 152.946 154.607 142.331 158.879 130.514C158.963 130.315 159.12 130.156 159.316 130.07C159.513 129.984 159.735 129.977 159.937 130.051C160.138 130.125 160.304 130.274 160.4 130.467C160.496 130.66 160.515 130.884 160.453 131.091C156.336 142.482 153.622 152.734 151.94 163.263L214.242 167.313C214.454 167.334 214.651 167.435 214.792 167.597C214.932 167.759 215.007 167.968 215 168.183C214.992 168.398 214.904 168.602 214.753 168.754C214.602 168.905 214.399 168.994 214.186 169V168.987Z" fill="white"/>
</g>
<g opacity="0.74">
<path opacity="0.74" d="M264.687 171H264.599L251.822 170.145C251.611 170.124 251.415 170.02 251.278 169.855C251.14 169.691 251.071 169.478 251.084 169.261C251.098 169.045 251.193 168.843 251.351 168.698C251.508 168.552 251.715 168.475 251.927 168.482L264.285 169.29L251.012 105.978C250.976 105.766 251.021 105.547 251.139 105.368C251.258 105.189 251.439 105.064 251.646 105.019C251.853 104.973 252.069 105.011 252.249 105.125C252.429 105.239 252.559 105.419 252.611 105.628L265.971 169.371C266.012 169.566 266.009 169.768 265.964 169.962C265.918 170.156 265.831 170.337 265.708 170.492C265.585 170.647 265.429 170.773 265.253 170.859C265.076 170.945 264.883 170.991 264.687 170.991V171Z" fill="white"/>
</g>
<path d="M436.62 94C435.902 94.0015 435.195 94.1801 434.561 94.5201C433.928 94.8601 433.388 95.351 432.988 95.9498C432.588 96.5485 432.341 97.2366 432.269 97.9536C432.196 98.6705 432.301 99.3944 432.572 100.061L401.147 118.668C400.82 118.142 400.385 117.691 399.871 117.345C399.358 116.999 398.777 116.767 398.167 116.663C397.557 116.56 396.932 116.587 396.333 116.743C395.735 116.9 395.176 117.182 394.694 117.571C394.212 117.96 393.818 118.447 393.537 119C393.257 119.553 393.096 120.16 393.067 120.78C393.037 121.4 393.139 122.019 393.365 122.597C393.592 123.174 393.937 123.697 394.38 124.131L368.85 149.26C368.34 148.744 367.71 148.364 367.017 148.153C366.323 147.942 365.589 147.907 364.879 148.051C364.169 148.196 363.506 148.515 362.95 148.981C362.394 149.446 361.961 150.043 361.692 150.718L332.045 137.633C332.23 136.966 332.254 136.265 332.117 135.586C331.98 134.908 331.684 134.271 331.255 133.729C330.826 133.187 330.275 132.755 329.647 132.467C329.019 132.18 328.333 132.046 327.643 132.075C326.954 132.105 326.281 132.298 325.68 132.638C325.08 132.979 324.567 133.457 324.186 134.034C323.804 134.611 323.564 135.27 323.485 135.958C323.406 136.645 323.491 137.342 323.732 137.991L290.888 155.999C290.27 155.161 289.375 154.572 288.363 154.336C287.351 154.1 286.289 154.234 285.366 154.712C284.443 155.191 283.72 155.983 283.326 156.948C282.933 157.912 282.894 158.986 283.217 159.977C283.54 160.967 284.204 161.81 285.09 162.354C285.976 162.898 287.026 163.109 288.052 162.947C289.078 162.785 290.014 162.262 290.691 161.472C291.368 160.682 291.743 159.675 291.748 158.633C291.748 158.11 291.653 157.591 291.468 157.102L324.316 139.095C324.741 139.666 325.299 140.124 325.941 140.43C326.583 140.736 327.29 140.88 328 140.849C328.71 140.819 329.402 140.615 330.016 140.255C330.629 139.895 331.146 139.39 331.521 138.784L361.4 151.959C361.4 152.093 361.378 152.222 361.378 152.356C361.378 153.024 361.529 153.683 361.821 154.284C362.113 154.884 362.537 155.41 363.062 155.821C363.587 156.233 364.199 156.518 364.85 156.656C365.502 156.795 366.176 156.782 366.822 156.619C367.468 156.457 368.068 156.149 368.577 155.718C369.087 155.288 369.491 154.746 369.761 154.135C370.03 153.524 370.157 152.859 370.131 152.192C370.106 151.524 369.929 150.871 369.615 150.282L395.424 124.876C396.046 125.207 396.74 125.378 397.444 125.377C398.116 125.377 398.78 125.221 399.383 124.922C399.985 124.622 400.511 124.188 400.92 123.651C401.328 123.115 401.607 122.491 401.736 121.829C401.865 121.167 401.84 120.483 401.663 119.832L433.221 101.144C433.685 101.721 434.287 102.171 434.971 102.451C435.655 102.732 436.399 102.834 437.133 102.748C437.867 102.662 438.567 102.391 439.168 101.96C439.77 101.529 440.252 100.952 440.571 100.283C440.89 99.6145 441.035 98.8755 440.993 98.1352C440.95 97.395 440.721 96.6777 440.327 96.0502C439.934 95.4228 439.388 94.9057 438.741 94.5472C438.094 94.1886 437.367 94.0004 436.628 94H436.62Z" fill="#2E2E2E"/>
<path d="M211 98.8849L227.116 99.9964C227.284 100.012 227.453 99.9747 227.599 99.8885C227.745 99.8023 227.861 99.672 227.93 99.5158C227.999 99.3597 228.017 99.1856 227.983 99.0181C227.949 98.8507 227.864 98.6982 227.74 98.5821L212.282 87L211 98.8849Z" fill="#91B3FA"/>
<path d="M118.731 47.561L210.217 47C212.311 47 214.013 48.545 214 50.4524L213.634 96.5981C213.634 98.5228 211.872 100.051 209.756 99.9987L119.257 97.513C117.249 97.4612 115.642 95.968 115.616 94.134L115 51.0436C114.979 49.1319 116.65 47.5912 118.731 47.561Z" fill="#48CEE9"/>
<path opacity="0.14" d="M121.5 50.4842L207.319 50C209.287 50 210.879 51.337 210.866 52.9996L210.504 93.0313C210.504 94.6982 211.928 97.0464 209.951 96.9993L121.984 93.8283C120.098 93.7812 118.592 92.4871 118.57 90.893L118 53.4967C117.974 51.8469 119.545 50.4971 121.5 50.4842Z" fill="white"/>
<path opacity="0.77" d="M209.905 96.9995L119.298 94.5371C119.122 94.5396 118.952 94.4747 118.824 94.356C118.695 94.2373 118.618 94.074 118.608 93.9001L118 51.2057C118 51.1193 118.019 51.034 118.054 50.9552C118.09 50.8763 118.142 50.8059 118.207 50.7483C118.344 50.6224 118.525 50.5535 118.712 50.5559L210.284 50.0001C210.472 49.9964 210.654 50.0637 210.793 50.1883C210.859 50.2458 210.912 50.3169 210.948 50.3966C210.983 50.4763 211.001 50.5627 211 50.65L210.616 96.3582C210.606 96.5363 210.526 96.7033 210.393 96.8232C210.26 96.9432 210.084 97.0065 209.905 96.9995V96.9995ZM119.35 93.8787L209.931 96.3411L210.284 50.6457L118.716 51.2185L119.35 93.8787Z" fill="#48CEE9"/>
<path opacity="0.77" d="M124 61C124 62.6555 124.947 64 126.119 64H203.881C205.053 64 206 62.6555 206 61C206 59.3445 205.053 58 203.881 58H126.101C124.93 58 124 59.3401 124 61Z" fill="white"/>
<path opacity="0.77" d="M127.884 69H201.111C202.707 69 204 69.8965 204 70.9976C204 72.0987 202.703 73 201.111 73H127.884C126.293 73 125 72.1035 125 70.9976C125 69.8916 126.293 69 127.884 69Z" fill="white"/>
<path opacity="0.77" d="M125 79.0914C125 80.1435 126.297 81 127.88 81H201.12C202.707 81 204 80.1435 204 79.0914V77.909C204 76.8384 202.664 75.9772 201.051 76.0005L127.811 77.1828C126.245 77.2015 125 78.0487 125 79.0914Z" fill="white"/>
<path opacity="0.77" d="M127.884 84H201.116C202.711 84 204 84.8954 204 86C204 87.1046 202.703 88 201.116 88H127.884C126.293 88 125 87.1046 125 86C125 84.8954 126.293 84 127.884 84Z" fill="white"/>
<path d="M163 306.013L169.475 311.5C169.823 311.793 170.246 311.966 170.688 311.995C171.13 312.025 171.57 311.91 171.949 311.665C172.328 311.42 172.628 311.057 172.809 310.625C172.991 310.193 173.044 309.713 172.963 309.247L171.324 300L163 306.013Z" fill="#2E2E2E"/>
<path d="M192 211.127C192 223.656 184.811 235.65 176.384 233.813C165.977 231.547 165 225.276 165 212.747C165 200.218 170.039 192 178.654 192C187.268 192 192 198.594 192 211.127Z" fill="#C6EDFF"/>
<path d="M80.0977 246.01C76.6211 245.908 73.1684 246.604 70.0148 248.043C60.1267 252.754 63.9538 266.12 70.6036 271.88C78.1841 278.438 92.6092 278.578 100.826 272.979C108.567 267.712 104.138 258.637 98.8347 253.382C94.302 248.87 87.0721 246.112 80.0977 246.01Z" fill="#C6EDFF"/>
<path d="M184.837 274.663C183.922 284.701 179.177 298.751 167.26 304.969C156.954 310.354 145.664 309.886 135.173 306.255C131.176 304.861 127.326 303.081 123.677 300.938C120.246 298.936 116.976 296.672 113.894 294.168C113.095 293.522 112.309 292.855 111.536 292.166C110.844 291.557 110.164 290.935 109.497 290.301C107.152 288.073 104.949 285.702 102.9 283.2L102.75 283.016C99.5756 279.107 96.8018 274.889 94.4706 270.427C93.128 267.846 91.9476 265.184 90.9364 262.457C86.7279 251.09 85.6328 238.703 88.9309 226.578C92.1903 214.602 100.526 204.668 111.262 198.386C132.54 185.952 156.443 196.753 169.21 213.423C170.407 214.991 171.504 216.632 172.495 218.337C174.002 220.956 175.32 223.678 176.441 226.483C178.108 230.649 179.481 234.925 180.551 239.282C181.444 242.841 182.157 246.365 182.724 249.714C183.613 254.906 184.15 259.665 184.498 263.434C184.699 265.672 184.837 267.567 184.927 269.008C185.048 270.893 185.018 272.784 184.837 274.663V274.663Z" fill="url(#paint0_linear_553_2395)"/>
<path d="M121.972 179.021C117.542 178.695 114.074 182.189 113.255 186.143C112.826 188.373 112.94 190.667 113.586 192.848C114.119 194.763 114.93 197.824 116.807 198.897C116.914 198.956 117.033 198.99 117.156 198.998C117.279 199.006 117.402 198.987 117.517 198.943C117.631 198.899 117.733 198.831 117.816 198.743C117.899 198.655 117.959 198.551 117.994 198.438C118.312 196.879 117.34 195.265 116.793 193.819C116.082 192.076 115.68 190.232 115.606 188.362C115.575 184.756 117.819 181.03 121.972 181.065C123.365 181.069 123.32 179.12 121.972 179.021Z" fill="#2E2E2E"/>
<path d="M105.342 199.589C103.717 198.106 101.725 197.023 99.5446 196.436C97.1892 195.837 94.7037 195.856 92.3587 196.489C90.448 196.995 87.7625 197.945 87.04 199.821C86.8398 200.343 87.4317 200.722 87.9105 200.637C89.6515 200.339 91.1792 199.005 92.968 198.573C94.8699 198.103 96.8707 198.116 98.7658 198.609C100.661 199.102 102.382 200.058 103.753 201.379C104.889 202.46 105.673 204.087 107.018 204.923C107.101 204.968 107.195 204.993 107.29 204.999C107.386 205.004 107.482 204.99 107.571 204.955C107.66 204.921 107.739 204.869 107.803 204.802C107.867 204.735 107.914 204.655 107.94 204.569C108.336 202.729 106.678 200.796 105.342 199.589Z" fill="#2E2E2E"/>
<path d="M100.552 229.954C100.221 229.358 100.033 228.695 100.004 228.017C99.9747 227.339 100.104 226.663 100.383 226.042C100.667 225.404 101.083 224.831 101.603 224.358C102.123 223.885 102.737 223.522 103.407 223.291C104.074 223.065 104.781 222.969 105.486 223.009C106.183 223.057 106.864 223.24 107.489 223.548C108.095 223.852 108.631 224.275 109.062 224.791C109.494 225.308 109.812 225.906 109.996 226.548C110 226.561 110.001 226.575 109.999 226.589C109.997 226.603 109.993 226.616 109.986 226.628C109.979 226.64 109.969 226.65 109.958 226.659C109.946 226.667 109.934 226.673 109.92 226.676C109.896 226.682 109.871 226.68 109.85 226.669C109.828 226.658 109.811 226.64 109.801 226.618C109.27 225.516 108.338 224.648 107.188 224.183C106.083 223.736 104.844 223.722 103.729 224.146C102.621 224.562 101.715 225.37 101.188 226.411C100.646 227.488 100.481 228.71 100.718 229.888C100.723 229.912 100.717 229.938 100.703 229.959C100.689 229.98 100.667 229.995 100.641 230C100.624 230.001 100.606 229.998 100.59 229.99C100.574 229.981 100.561 229.969 100.552 229.954Z" fill="#2E2E2E"/>
<path d="M135.086 212.96C134.627 212.427 134.301 211.8 134.132 211.126C133.963 210.452 133.956 209.75 134.111 209.074C134.269 208.38 134.573 207.725 135.004 207.15C135.435 206.574 135.984 206.091 136.617 205.729C137.248 205.372 137.946 205.139 138.671 205.043C139.391 204.953 140.122 205.005 140.821 205.195C141.5 205.381 142.132 205.7 142.677 206.133C143.221 206.567 143.667 207.105 143.985 207.713C143.992 207.725 143.997 207.738 143.999 207.751C144.001 207.765 144 207.778 143.997 207.791C143.993 207.805 143.987 207.817 143.979 207.828C143.97 207.839 143.96 207.848 143.948 207.855C143.936 207.862 143.922 207.867 143.908 207.868C143.894 207.87 143.88 207.87 143.866 207.866C143.853 207.863 143.84 207.857 143.829 207.849C143.817 207.841 143.808 207.831 143.801 207.819C143.035 206.817 141.91 206.128 140.645 205.886C139.434 205.66 138.179 205.887 137.135 206.522C136.103 207.158 135.353 208.144 135.033 209.285C134.705 210.469 134.789 211.724 135.27 212.858C135.276 212.87 135.279 212.883 135.279 212.896C135.279 212.909 135.276 212.922 135.271 212.934C135.265 212.946 135.257 212.957 135.247 212.966C135.238 212.975 135.226 212.981 135.213 212.986C135.193 212.998 135.168 213.003 135.144 212.998C135.12 212.993 135.099 212.98 135.086 212.96V212.96Z" fill="#2E2E2E"/>
<path d="M120.101 223.198C120.801 223.198 121.463 223.198 122.101 223.171C122.711 223.169 123.316 223.062 123.882 222.855C124.425 222.636 124.868 222.255 125.14 221.775C125.429 221.241 125.626 220.67 125.722 220.081C125.724 220.069 125.729 220.057 125.736 220.046C125.744 220.035 125.753 220.026 125.765 220.018C125.776 220.011 125.789 220.005 125.802 220.002C125.816 220 125.83 219.999 125.844 220.001C125.865 220.006 125.884 220.016 125.899 220.03C125.914 220.044 125.924 220.062 125.928 220.081C126.06 220.733 126.011 221.404 125.785 222.035C125.652 222.365 125.46 222.673 125.215 222.946C124.952 223.215 124.638 223.438 124.289 223.606C123.603 223.912 122.84 224.043 122.08 223.988C121.354 223.94 120.653 223.726 120.042 223.366C120.021 223.352 120.006 223.331 120.002 223.307C119.997 223.284 120.003 223.26 120.017 223.24C120.026 223.228 120.038 223.218 120.052 223.212C120.066 223.205 120.081 223.202 120.097 223.202L120.101 223.198Z" fill="#2E2E2E"/>
<path d="M152.889 213.85C153.514 211.731 152.732 209.636 151.142 209.17C149.552 208.704 147.756 210.044 147.131 212.163C146.507 214.282 147.289 216.378 148.879 216.844C150.469 217.309 152.264 215.969 152.889 213.85Z" fill="#EB8757"/>
<path d="M101 239C103.209 239 105 237.881 105 236.5C105 235.119 103.209 234 101 234C98.7909 234 97 235.119 97 236.5C97 237.881 98.7909 239 101 239Z" fill="#EB8757"/>
<path d="M138.176 301C134.565 302.959 136.23 311.879 137.617 314.676C138.937 317.323 141.39 318.184 142.592 314.707C143.57 311.804 144.045 308.754 143.997 305.69C143.821 302.178 142.614 301.675 138.176 301Z" fill="url(#paint1_linear_553_2395)"/>
<path d="M178.538 281.215C179.236 283.932 188.627 289.025 190.423 286.144C193.175 281.725 185.401 275.09 181.601 275.001C178.301 274.925 177.241 278.388 178.538 281.215Z" fill="url(#paint2_linear_553_2395)"/>
<path d="M177 226.116C169.537 233.821 157.375 245.156 142.955 253.785C127.222 263.203 106.932 267.873 94.5587 270C93.2037 267.425 92.015 264.767 91 262.042C102.423 260.189 123.218 255.776 138.571 246.59C153.588 237.601 166.264 225.23 173.027 218C174.544 220.609 175.871 223.321 177 226.116V226.116Z" fill="#2E2E2E"/>
<path d="M183 249.41C175.473 257.909 163.85 269.651 152.635 275.579C140.779 281.849 121.711 287.069 109.601 290C107.254 287.773 105.049 285.401 103 282.899C113.875 280.396 136.136 274.777 148.672 268.143C160.98 261.637 174.492 246.569 180.814 239C181.709 242.544 182.428 246.067 183 249.41Z" fill="#2E2E2E"/>
<g style="mix-blend-mode:overlay" opacity="0.4">
<path d="M173 229.9L111.827 292C111.131 291.39 110.448 290.767 109.777 290.132C107.422 287.901 105.209 285.526 103.151 283.02L103 282.835L169.299 226L173 229.9Z" fill="#2E2E2E"/>
</g>
<path d="M184.841 274.262C178.498 280.182 169.937 287.948 163.205 293.252C156.858 298.255 145.384 302.724 135.439 306C131.463 304.601 127.631 302.813 124 300.662C134.325 297.7 150.706 292.374 158.045 286.592C166.627 279.829 178.694 268.511 184.504 263C184.709 265.247 184.845 267.146 184.931 268.597C185.047 270.485 185.017 272.379 184.841 274.262V274.262Z" fill="#2E2E2E"/>
<path d="M168.325 224L102.183 280.709C101.527 281.272 100.995 281.964 100.62 282.741C100.245 283.518 100.035 284.364 100.004 285.226C99.973 286.087 100.121 286.946 100.44 287.748C100.758 288.55 101.239 289.277 101.853 289.885L102.282 290.312C102.828 290.852 103.476 291.279 104.189 291.569C104.902 291.858 105.665 292.005 106.435 292C107.205 291.995 107.967 291.838 108.675 291.539C109.384 291.239 110.027 290.804 110.566 290.256L172 227.872L168.325 224Z" fill="#2E2E2E"/>
<path opacity="0.23" d="M212.289 231.495C233.217 223.6 243.825 200.457 235.984 179.804C228.143 159.151 204.821 148.809 183.893 156.704C162.965 164.6 152.357 187.742 160.198 208.395C168.039 229.048 191.361 239.39 212.289 231.495Z" fill="url(#paint3_linear_553_2395)"/>
<path d="M182.319 151.985C159.033 160.822 147.18 186.568 155.828 209.492C164.475 232.416 190.38 243.861 213.679 235.002C236.978 226.144 248.819 200.419 240.171 177.491C231.523 154.562 205.61 143.161 182.319 151.985ZM211.365 228.885C191.498 236.424 169.408 226.681 162.02 207.121C154.632 187.561 164.758 165.599 184.625 158.059C204.492 150.52 226.582 160.263 233.966 179.823C241.349 199.383 231.232 221.349 211.365 228.906V228.885Z" fill="#2E2E2E"/>
<path d="M160.15 213.979C160.082 214.006 160.006 214.007 159.937 213.981C159.869 213.954 159.812 213.903 159.779 213.837C159.28 212.891 158.82 211.919 158.398 210.948C158.367 210.873 158.365 210.789 158.395 210.714C158.425 210.639 158.482 210.578 158.556 210.546C158.591 210.527 158.631 210.516 158.671 210.513C158.711 210.511 158.751 210.517 158.789 210.532C158.827 210.547 158.861 210.57 158.889 210.599C158.917 210.628 158.938 210.663 158.952 210.701C159.378 211.66 159.805 212.619 160.312 213.552C160.33 213.587 160.342 213.626 160.345 213.666C160.349 213.705 160.345 213.746 160.333 213.784C160.321 213.822 160.302 213.857 160.276 213.888C160.251 213.918 160.219 213.944 160.184 213.962L160.15 213.979ZM156.087 202.203H156.036C155.998 202.21 155.958 202.21 155.919 202.202C155.881 202.194 155.844 202.178 155.812 202.156C155.779 202.133 155.751 202.104 155.73 202.071C155.709 202.038 155.694 202 155.687 201.961C155.157 199.089 154.933 196.167 155.017 193.247V193.247C155.512 176.069 166.242 160.976 182.36 154.814C189.826 151.938 197.94 151.249 205.773 152.827C205.848 152.847 205.913 152.895 205.954 152.961C205.995 153.028 206.009 153.108 205.994 153.185C205.979 153.262 205.935 153.33 205.872 153.375C205.808 153.42 205.73 153.439 205.654 153.428C197.932 151.87 189.933 152.548 182.574 155.384C166.677 161.494 156.087 176.349 155.61 193.277C155.525 196.154 155.746 199.032 156.266 201.862C156.281 201.931 156.27 202.003 156.238 202.065C156.205 202.127 156.152 202.176 156.087 202.203Z" fill="#565656"/>
<path d="M107.776 289.996C107.743 290 107.71 290 107.677 289.996C104.284 290.092 102.912 288.618 102.363 287.366C101.977 286.445 101.897 285.429 102.132 284.46C102.367 283.492 102.907 282.619 103.675 281.965L111.541 275.044C111.6 275.008 111.67 274.994 111.739 275.002C111.808 275.011 111.871 275.043 111.919 275.092C111.966 275.142 111.995 275.206 111.999 275.273C112.004 275.341 111.985 275.408 111.945 275.463L104.083 282.421C103.406 282.994 102.929 283.76 102.721 284.611C102.512 285.462 102.582 286.355 102.92 287.165C103.611 288.744 105.206 289.506 107.66 289.439C107.7 289.437 107.739 289.443 107.777 289.456C107.814 289.47 107.848 289.491 107.877 289.517C107.907 289.543 107.93 289.575 107.946 289.611C107.963 289.646 107.972 289.685 107.973 289.723C107.969 289.782 107.949 289.839 107.914 289.887C107.879 289.935 107.831 289.973 107.776 289.996V289.996Z" fill="#565656"/>
<path d="M114.513 273.976C114.443 274.003 114.368 274.007 114.295 273.989C114.223 273.97 114.157 273.929 114.107 273.871C114.039 273.798 114 273.699 114 273.595C114 273.492 114.039 273.393 114.107 273.32L115.346 272.141C115.379 272.099 115.42 272.065 115.466 272.041C115.512 272.017 115.562 272.003 115.614 272C115.665 271.998 115.716 272.007 115.764 272.026C115.812 272.046 115.855 272.076 115.892 272.115C115.928 272.153 115.956 272.199 115.975 272.25C115.994 272.3 116.002 272.355 116 272.409C115.997 272.463 115.984 272.516 115.962 272.565C115.939 272.614 115.907 272.657 115.867 272.692L114.628 273.871C114.597 273.913 114.558 273.949 114.513 273.976V273.976Z" fill="#565656"/>
<path d="M164.177 230.694C164.203 230.261 164.229 229.851 164.251 229.444C164.382 227.045 164.33 225.121 167.365 226.418C169.842 227.46 171.29 229.954 172.162 232.393C173.173 235.32 173.644 239.086 171.359 241.844C169.401 244.209 165.354 242.653 164.565 239.804C163.776 236.954 163.985 233.651 164.177 230.694Z" fill="url(#paint4_linear_553_2395)"/>
<path d="M109.315 281.871C109.405 282.311 109.494 282.706 109.588 283.11C110.117 285.491 110.688 287.349 107.487 286.945C104.878 286.615 102.827 284.581 101.373 282.434C99.6257 279.86 98.1592 276.31 99.5575 272.981C100.755 270.13 104.98 270.526 106.493 273.086C108.007 275.647 108.684 278.928 109.315 281.871Z" fill="url(#paint5_linear_553_2395)"/>
<g style="mix-blend-mode:overlay" opacity="0.3">
<path d="M136.675 197.638C133.824 196.687 129.169 197.055 127.626 197.145C121.921 197.472 116.367 199.119 111.4 201.958C108.361 203.709 92.4666 216.943 100.011 220.642C102.445 221.837 106.451 219.786 108.241 218.215C112.078 214.832 116.826 212.268 121.288 209.819C126.271 207.083 131.68 205.713 136.633 203.281C137.191 203.042 137.688 202.681 138.087 202.223C138.486 201.764 138.777 201.222 138.939 200.635C139.267 199.064 138.244 198.143 136.675 197.638Z" fill="white"/>
</g>
<g style="mix-blend-mode:overlay" opacity="0.4">
<path d="M180.25 245.228C180.755 245.591 181.22 246.384 181.521 247.59C184.18 258.143 185.107 269.847 182.252 280.583C179.445 291.127 171.063 304.997 158.146 303.943C157.006 303.85 155.818 303.598 154.956 302.86C151.083 299.548 160.096 294.163 162.172 292.385C166.422 288.694 169.705 284.057 171.746 278.864C175.685 269.02 176.263 258.152 177.878 247.799C178.27 245.36 179.323 244.555 180.25 245.228Z" fill="#2E2E2E"/>
</g>
<defs>
<linearGradient id="paint0_linear_553_2395" x1="109.93" y1="162.743" x2="144.507" y2="281.351" gradientUnits="userSpaceOnUse">
<stop offset="0.15" stop-color="#FFE167"/>
<stop offset="0.42" stop-color="#FFDE66"/>
<stop offset="0.69" stop-color="#FFD56C"/>
<stop offset="0.97" stop-color="#FFC667"/>
<stop offset="1" stop-color="#FFBF5B"/>
</linearGradient>
<linearGradient id="paint1_linear_553_2395" x1="-181.36" y1="7533.32" x2="3111.34" y2="9301.07" gradientUnits="userSpaceOnUse">
<stop offset="0.15" stop-color="#FCD844"/>
<stop offset="0.42" stop-color="#FCD443"/>
<stop offset="0.69" stop-color="#FCC740"/>
<stop offset="0.97" stop-color="#FBB33C"/>
<stop offset="1" stop-color="#FBB03B"/>
</linearGradient>
<linearGradient id="paint2_linear_553_2395" x1="805.64" y1="4716.32" x2="3734.94" y2="8123.73" gradientUnits="userSpaceOnUse">
<stop offset="0.15" stop-color="#FCD844"/>
<stop offset="0.42" stop-color="#FCD443"/>
<stop offset="0.69" stop-color="#FCC740"/>
<stop offset="0.97" stop-color="#FBB33C"/>
<stop offset="1" stop-color="#FBB03B"/>
</linearGradient>
<linearGradient id="paint3_linear_553_2395" x1="160.198" y1="208.395" x2="235.924" y2="179.645" gradientUnits="userSpaceOnUse">
<stop stop-color="#B37CFF"/>
<stop offset="1" stop-color="#F895E7"/>
</linearGradient>
<linearGradient id="paint4_linear_553_2395" x1="887.69" y1="6009.23" x2="4494.34" y2="8059.5" gradientUnits="userSpaceOnUse">
<stop offset="0.15" stop-color="#FCD844"/>
<stop offset="0.42" stop-color="#FCD443"/>
<stop offset="0.69" stop-color="#FCC740"/>
<stop offset="0.97" stop-color="#FBB33C"/>
<stop offset="1" stop-color="#FBB03B"/>
</linearGradient>
<linearGradient id="paint5_linear_553_2395" x1="-430.76" y1="7629.72" x2="3344.58" y2="10416.6" gradientUnits="userSpaceOnUse">
<stop offset="0.15" stop-color="#FCD844"/>
<stop offset="0.42" stop-color="#FCD443"/>
<stop offset="0.69" stop-color="#FCC740"/>
<stop offset="0.97" stop-color="#FBB33C"/>
<stop offset="1" stop-color="#FBB03B"/>
</linearGradient>
</defs>
</svg>
