<svg width="521" height="300" viewBox="0 0 521 300" fill="none" xmlns="http://www.w3.org/2000/svg">
<g clip-path="url(#clip0_1051_2954)">
<path d="M185.149 208.13C184.085 207.018 182.539 206.596 181.107 206.07C177.945 204.902 175.099 203.013 172.793 200.552C170.487 198.092 168.785 195.127 167.822 191.893C166.858 188.659 166.66 185.245 167.243 181.921C167.826 178.598 169.173 175.456 171.179 172.744L170.963 171.625C170.474 166.427 164.205 162.699 159.415 164.758C154.625 166.818 152.98 173.94 156.401 177.871C150.778 178.336 147.063 184.752 147.857 190.348C148.651 195.944 152.735 200.531 157.288 203.873C164.823 209.372 173.889 212.371 183.213 212.447C183.844 212.501 184.479 212.388 185.053 212.117C186.386 211.347 186.202 209.241 185.149 208.13Z" fill="#A0E0ED"/>
<path d="M376.936 197.673C378.971 196.281 380.29 193.767 379.942 191.331C379.595 188.896 377.397 186.748 374.936 186.776C375.97 186.077 376.685 184.995 376.923 183.768C377.16 182.541 376.902 181.27 376.204 180.234C375.505 179.198 374.425 178.482 373.2 178.244C371.975 178.006 370.705 178.265 369.671 178.964C367.363 180.466 366.834 183.627 367.001 186.378C367.168 189.13 367.856 191.942 367.132 194.605C366.395 197.325 364.26 199.491 361.814 200.886C359.368 202.282 356.613 203.017 353.89 203.727L353.344 203.922C354.875 205.345 356.684 206.434 358.657 207.121C360.63 207.808 362.724 208.078 364.806 207.913C367.161 207.711 369.678 206.763 370.759 204.664C371.366 203.493 371.468 202.086 372.178 200.975C373.231 199.331 375.322 198.774 376.936 197.673Z" fill="#A0E0ED"/>
<path d="M257.786 226.622C255.726 226.664 253.56 226.071 252.114 224.584C251.195 223.629 250.642 222.389 249.816 221.356C248.99 220.323 247.689 219.471 246.409 219.787C244.42 220.277 243.466 223.263 241.445 223.057C240.222 222.933 239.46 221.637 239.275 220.408C239.091 219.18 239.275 217.923 238.942 216.737C238.027 213.403 233.429 212.362 230.33 213.896C227.231 215.43 222.863 220.074 221.133 223.068C223.898 226.455 228.681 227.233 233.024 227.683C240.321 228.429 247.638 228.903 254.975 229.104C256.694 229.15 258.446 229.175 260.091 228.667C261.736 228.159 263.282 227.019 263.832 225.393C261.857 225.976 259.85 226.579 257.786 226.622Z" fill="#A0E0ED"/>
<path d="M161.018 207.973C160.943 207.973 160.883 205.772 160.883 203.059C160.883 200.347 160.943 198.145 161.018 198.145C161.092 198.145 161.156 200.343 161.156 203.059C161.156 205.776 161.096 207.973 161.018 207.973Z" fill="#D5E0DE"/>
<path d="M166.089 203.056C166.089 203.131 163.816 203.191 161.015 203.191C158.214 203.191 155.945 203.131 155.945 203.056C155.945 202.981 158.214 202.917 161.015 202.917C163.816 202.917 166.089 202.981 166.089 203.056Z" fill="#D5E0DE"/>
<path d="M146.076 234C145.998 234 145.938 231.798 145.938 229.086C145.938 226.373 145.998 224.172 146.076 224.172C146.154 224.172 146.211 226.373 146.211 229.086C146.211 231.798 146.15 234 146.076 234Z" fill="#D5E0DE"/>
<path d="M151.144 229.086C151.144 229.161 148.875 229.224 146.074 229.224C143.273 229.224 141 229.161 141 229.086C141 229.011 143.269 228.948 146.074 228.948C148.878 228.948 151.144 229.011 151.144 229.086Z" fill="#D5E0DE"/>
<path d="M326.943 89.8534C326.869 89.8534 326.805 87.652 326.805 84.9393C326.805 82.2266 326.869 80.0251 326.943 80.0251C327.017 80.0251 327.081 82.223 327.081 84.9393C327.081 87.6555 327.017 89.8534 326.943 89.8534Z" fill="#D5E0DE"/>
<path d="M332.014 84.9393C332.014 85.0138 329.742 85.0742 326.941 85.0742C324.14 85.0742 321.867 85.0138 321.867 84.9393C321.867 84.8647 324.14 84.8008 326.941 84.8008C329.742 84.8008 332.014 84.8611 332.014 84.9393Z" fill="#D5E0DE"/>
<path d="M167.195 153.237C168.851 153.237 170.194 151.892 170.194 150.233C170.194 148.574 168.851 147.229 167.195 147.229C165.538 147.229 164.195 148.574 164.195 150.233C164.195 151.892 165.538 153.237 167.195 153.237Z" fill="#FC81B3"/>
<path d="M225.116 83.4231C225.116 84.0172 224.94 84.5979 224.611 85.0919C224.281 85.5859 223.813 85.9709 223.265 86.1983C222.716 86.4256 222.113 86.4851 221.532 86.3692C220.95 86.2533 220.415 85.9672 219.996 85.5471C219.576 85.127 219.291 84.5918 219.175 84.0091C219.059 83.4264 219.118 82.8224 219.346 82.2735C219.573 81.7246 219.957 81.2555 220.45 80.9254C220.944 80.5954 221.523 80.4192 222.117 80.4192C222.511 80.4187 222.901 80.4961 223.265 80.6469C223.629 80.7977 223.96 81.0189 224.239 81.298C224.517 81.577 224.738 81.9083 224.889 82.273C225.039 82.6376 225.117 83.0285 225.116 83.4231Z" fill="#FC81B3"/>
<path d="M240.101 86.4234C240.102 86.7208 240.014 87.0117 239.85 87.2592C239.685 87.5067 239.451 87.6998 239.177 87.8139C238.903 87.928 238.601 87.9581 238.31 87.9002C238.018 87.8424 237.751 87.6993 237.541 87.489C237.331 87.2787 237.188 87.0108 237.13 86.7191C237.072 86.4274 237.102 86.1252 237.216 85.8506C237.33 85.576 237.523 85.3415 237.77 85.1767C238.017 85.0119 238.308 84.9244 238.605 84.9251C239.002 84.9251 239.382 85.0829 239.663 85.3639C239.943 85.6449 240.101 86.026 240.101 86.4234Z" fill="#FC81B3"/>
<path d="M306.14 167.659C306.14 167.956 306.052 168.247 305.887 168.494C305.722 168.741 305.488 168.934 305.214 169.047C304.939 169.161 304.638 169.19 304.346 169.132C304.055 169.074 303.788 168.93 303.579 168.72C303.369 168.51 303.226 168.242 303.169 167.95C303.112 167.658 303.142 167.356 303.256 167.082C303.37 166.808 303.563 166.573 303.81 166.409C304.057 166.244 304.347 166.157 304.644 166.157C305.041 166.158 305.422 166.317 305.702 166.598C305.983 166.88 306.14 167.261 306.14 167.659Z" fill="#FC81B3"/>
<path d="M162.17 81.9781C162.17 81.9781 158.831 83.6931 163.511 90.6985C168.191 97.704 171.254 101.081 171.254 101.081C171.254 101.081 172.13 102.728 170.708 103.172C169.286 103.616 166.024 103.481 165.585 105.338C165.131 107.266 166.68 108.853 169.577 110.06C172.474 111.268 178.732 114.147 179.288 114.41C179.845 114.673 180.458 115.411 179.536 115.866C178.615 116.32 171.499 117.929 172.445 121.263C173.392 124.597 182.036 126.635 182.976 126.876C183.915 127.118 184.174 127.473 184.16 127.973C184.146 128.474 181.703 128.79 179.699 129.33C177.696 129.87 175.445 130.846 176.179 132.724C176.913 134.603 182.277 138.089 194.314 137.848L199.909 137.369L202.391 132.316C207 121.181 205.731 114.893 204.249 113.54C202.767 112.187 201.058 113.895 199.806 115.582C198.555 117.268 197.37 119.416 196.899 119.26C196.427 119.104 196.19 118.72 196.31 117.755C196.431 116.789 197.686 108.005 194.938 105.888C192.19 103.772 188.099 109.822 187.337 110.504C186.574 111.186 186.11 110.352 186.074 109.741C186.039 109.13 185.642 102.238 185.578 99.0888C185.514 95.9393 184.606 93.9261 182.646 93.6456C180.756 93.3758 179.689 96.4648 178.746 97.6295C177.803 98.7941 176.601 97.3738 176.601 97.3738C176.601 97.3738 174.58 93.2834 169.776 86.3667C164.971 79.45 162.107 82.0065 162.107 82.0065" fill="#92CE91"/>
<path d="M200.353 138.643C196.847 133.548 190.762 124.391 185.501 116.554C180.239 108.718 175.467 101.642 171.985 96.5216C170.245 93.9722 168.837 91.9057 167.855 90.4854L166.734 88.8415L166.447 88.4118L166.352 88.2627C166.352 88.2627 166.391 88.3053 166.461 88.4012L166.763 88.8201L167.912 90.4499C168.908 91.8702 170.333 93.9189 172.088 96.4647C175.595 101.56 180.381 108.636 185.643 116.469C190.904 124.302 196.988 133.477 200.456 138.586" fill="#D5E0DE"/>
<path d="M170.148 105.707C170.283 105.713 170.416 105.735 170.546 105.771C170.801 105.821 171.17 105.902 171.609 106.009C172.513 106.225 173.737 106.556 175.116 106.943L178.601 107.951L179.665 108.249C179.797 108.276 179.925 108.318 180.048 108.374C179.913 108.367 179.78 108.347 179.65 108.313C179.395 108.264 179.026 108.182 178.587 108.068C177.686 107.845 176.459 107.5 175.087 107.11L171.591 106.122L170.528 105.828C170.397 105.802 170.27 105.761 170.148 105.707Z" fill="#D5E0DE"/>
<path d="M180.394 107.973C180.344 107.973 180.911 105.373 181.656 102.189C182.4 99.0036 183.042 96.4293 183.074 96.44C183.106 96.4506 182.556 99.0426 181.812 102.228C181.067 105.413 180.44 107.983 180.394 107.973Z" fill="#92CE91"/>
<path d="M187.93 120.371C187.979 120.247 188.04 120.128 188.114 120.016C188.263 119.757 188.447 119.427 188.667 119.04C189.128 118.213 189.766 117.069 190.422 115.78C191.078 114.491 191.635 113.295 192.028 112.443L192.5 111.424C192.547 111.297 192.611 111.177 192.691 111.069C192.662 111.203 192.618 111.334 192.56 111.459C192.468 111.711 192.326 112.066 192.142 112.503C191.787 113.38 191.238 114.577 190.575 115.869C189.912 117.162 189.263 118.301 188.774 119.111C188.525 119.516 188.32 119.842 188.171 120.062C188.101 120.173 188.02 120.277 187.93 120.371Z" fill="#D5E0DE"/>
<path d="M178.227 120.361C178.343 120.336 178.462 120.324 178.581 120.325L179.616 120.283C180.492 120.258 181.701 120.233 183.038 120.219C184.374 120.205 185.584 120.197 186.459 120.219H187.498C187.625 120.214 187.753 120.225 187.877 120.251C187.753 120.277 187.626 120.289 187.498 120.286L186.463 120.329C185.587 120.354 184.378 120.379 183.041 120.396C181.705 120.414 180.496 120.414 179.62 120.396H178.581C178.462 120.4 178.343 120.388 178.227 120.361Z" fill="#D5E0DE"/>
<path d="M183.484 132.153C183.645 132.123 183.807 132.109 183.97 132.11L185.3 132.053C186.42 132.011 187.969 131.968 189.682 131.932C191.394 131.897 192.944 131.872 194.068 131.861H195.397C195.56 131.852 195.722 131.861 195.883 131.886C195.723 131.913 195.56 131.928 195.397 131.929L194.068 131.986C192.947 132.025 191.398 132.067 189.685 132.106C187.973 132.145 186.424 132.167 185.3 132.174H183.97C183.808 132.182 183.645 132.175 183.484 132.153Z" fill="#D5E0DE"/>
<path d="M195.602 131.808C195.663 131.644 195.737 131.484 195.825 131.332C195.992 131.006 196.211 130.58 196.477 130.068C197.03 129.003 197.786 127.519 198.573 125.861C199.36 124.203 200.037 122.686 200.519 121.582C200.75 121.053 200.945 120.616 201.09 120.279C201.154 120.116 201.23 119.958 201.317 119.807C201.28 119.978 201.225 120.144 201.154 120.304C201.037 120.62 200.86 121.074 200.633 121.632C200.179 122.747 199.519 124.277 198.729 125.935C197.938 127.594 197.165 129.071 196.601 130.125C196.311 130.654 196.07 131.077 195.892 131.368C195.809 131.523 195.711 131.67 195.602 131.808Z" fill="#D5E0DE"/>
<path d="M343.057 182.462C337.119 177.278 336.559 168.778 337.622 161.307C337.799 160.061 337.803 158.729 338.516 157.693C339.228 156.656 340.696 156.059 341.76 156.709C342.639 157.245 342.926 158.371 343.352 159.319C343.916 160.586 344.827 161.668 345.979 162.44C346.731 162.933 347.706 163.288 348.521 162.933C349.663 162.454 349.939 160.977 350.078 159.738L350.787 152.775C350.914 151.529 351.049 150.257 351.563 149.118C352.077 147.978 353.049 146.987 354.265 146.771C355.481 146.554 356.871 147.406 356.991 148.653C356.983 149.172 356.939 149.691 356.86 150.204C356.839 150.726 357.016 151.323 357.491 151.521C357.966 151.72 358.509 151.422 358.909 151.095C360.328 149.977 361.374 148.454 362.359 146.93C363.345 145.407 364.313 143.845 365.625 142.602C366.937 141.359 368.663 140.443 370.454 140.536C372.244 140.628 374.024 141.931 374.286 143.731C374.549 145.531 373.333 147.207 372.067 148.507C370.187 150.437 368.037 152.084 365.685 153.396C365.241 153.589 364.869 153.917 364.621 154.334C364.267 155.133 364.958 156.041 365.745 156.404C366.639 156.812 367.656 156.826 368.614 157.043C369.571 157.259 370.574 157.803 370.84 158.761C371.195 160.089 370.007 161.307 368.869 162.067C366.586 163.591 364.058 164.71 361.395 165.373C360.445 165.611 359.452 165.802 358.647 166.363C357.842 166.924 357.275 168 357.626 168.923C357.977 169.847 359.09 170.255 360.065 170.18C361.04 170.106 361.955 169.676 362.902 169.431C364.674 168.969 366.873 169.325 367.809 170.922C368.422 171.97 368.341 173.33 367.851 174.448C367.312 175.544 366.558 176.521 365.635 177.321C362.551 180.243 358.768 182.455 354.644 183.403C350.521 184.351 346.823 184.326 343.04 182.458" fill="#92CE91"/>
<path d="M345.492 177.963C347.175 174.015 349.082 170.165 351.204 166.434C351.764 165.44 352.315 164.458 352.856 163.487C353.402 162.521 353.941 161.566 354.53 160.647C355.658 158.914 356.881 157.245 358.192 155.647C359.437 154.113 360.674 152.704 361.833 151.387C362.993 150.069 364.113 148.88 365.173 147.836C366.835 146.17 368.628 144.641 370.534 143.263C371.204 142.773 371.74 142.41 372.105 142.169L372.523 141.899C372.569 141.866 372.617 141.837 372.669 141.814C372.629 141.854 372.585 141.889 372.537 141.92L372.13 142.208C371.775 142.46 371.25 142.837 370.584 143.334C368.706 144.738 366.936 146.281 365.287 147.95C364.223 149.015 363.135 150.204 361.975 151.518C360.816 152.832 359.589 154.245 358.355 155.779C357.055 157.369 355.84 159.029 354.718 160.75C354.136 161.652 353.601 162.6 353.055 163.569L351.406 166.512C349.286 170.236 347.377 174.075 345.687 178.013" fill="#D5E0DE"/>
<path d="M354.594 160.661C354.555 160.482 354.534 160.3 354.53 160.118C354.502 159.763 354.477 159.255 354.459 158.626C354.416 157.369 354.416 155.63 354.424 153.712C354.431 151.795 354.424 150.059 354.346 148.802C354.317 148.177 354.289 147.669 354.264 147.318C354.245 147.136 354.245 146.953 354.264 146.771C354.318 146.946 354.351 147.127 354.363 147.31C354.416 147.666 354.47 148.163 354.519 148.791C354.622 150.048 354.672 151.791 354.665 153.709C354.658 155.626 354.64 157.316 354.629 158.623V160.111C354.639 160.295 354.627 160.48 354.594 160.661Z" fill="#D5E0DE"/>
<path d="M370.898 159.383C370.684 159.404 370.467 159.404 370.253 159.383C369.838 159.383 369.239 159.361 368.48 159.383C367.002 159.383 364.956 159.454 362.704 159.631C360.453 159.809 358.418 160.068 356.954 160.292C356.22 160.398 355.628 160.501 355.22 160.572C355.009 160.618 354.794 160.647 354.578 160.657C354.78 160.578 354.989 160.518 355.202 160.48C355.606 160.384 356.195 160.256 356.929 160.125C358.39 159.859 360.425 159.582 362.687 159.397C364.615 159.239 366.549 159.177 368.484 159.212C369.225 159.212 369.827 159.269 370.256 159.305C370.472 159.313 370.687 159.339 370.898 159.383Z" fill="#D5E0DE"/>
<path d="M345.718 177.69C345.68 177.625 345.65 177.556 345.629 177.484C345.573 177.321 345.505 177.129 345.42 176.877C345.239 176.348 344.998 175.574 344.711 174.615C344.154 172.698 343.445 170.035 342.687 167.066C341.928 164.098 341.268 161.431 340.726 159.507L340.088 157.227L339.918 156.606C339.892 156.535 339.877 156.461 339.875 156.386C339.913 156.45 339.943 156.52 339.964 156.592C340.02 156.755 340.088 156.947 340.173 157.199C340.354 157.728 340.595 158.502 340.882 159.461C341.456 161.378 342.165 164.048 342.906 167.009C343.647 169.971 344.325 172.644 344.867 174.569L345.505 176.848L345.675 177.47C345.699 177.541 345.713 177.615 345.718 177.69Z" fill="#D5E0DE"/>
<path d="M367.69 173.131C367.62 173.161 367.546 173.183 367.471 173.195L366.832 173.333L364.478 173.827C362.493 174.242 359.755 174.849 356.731 175.524C353.707 176.199 350.959 176.781 348.963 177.157C347.967 177.345 347.155 177.487 346.595 177.576L345.949 177.672C345.874 177.691 345.796 177.697 345.719 177.69C345.789 177.66 345.863 177.639 345.939 177.626L346.58 177.487L348.931 176.994C350.92 176.579 353.657 175.971 356.682 175.297C359.706 174.622 362.454 174.04 364.45 173.663C365.446 173.475 366.254 173.333 366.818 173.244L367.463 173.149C367.537 173.129 367.614 173.123 367.69 173.131Z" fill="#D5E0DE"/>
<path d="M297.297 93.3402C298.254 87.8473 300.867 79.8122 304.001 75.2034C307.136 70.5946 311.968 66.909 317.485 66.1421C323.002 65.3751 329.09 67.9671 331.575 72.9594C332.908 75.6366 333.153 78.715 334.124 81.5413C335.096 84.3677 337.223 87.194 340.201 87.4248C342.839 87.6236 345.378 85.724 347.973 86.2282C351.348 86.8886 352.653 91.0571 352.671 94.5013C352.689 97.9454 352.203 101.777 354.316 104.493C356.046 106.719 359.01 107.486 361.407 108.977C366.573 112.205 368.785 118.87 368.26 124.955C367.736 131.041 364.945 136.673 361.978 141.999C359.501 133.257 356.138 124.792 351.94 116.736C349.544 112.137 345.172 108.214 341.304 104.78C335.358 99.4935 322.307 96.969 314.415 95.9961C306.522 95.0232 305.125 94.8137 297.311 93.3473" fill="#A0E0ED"/>
<path d="M244.663 99.7952C225.135 101.215 203.812 103.807 188.18 109.819L193.122 143.277C193.122 143.277 223.426 132.419 248.078 133.171L244.663 99.7952Z" fill="#FCB05C"/>
<g opacity="0.8">
<path opacity="0.8" d="M244.663 99.7952C225.135 101.215 203.812 103.807 188.18 109.819L193.122 143.277C193.122 143.277 223.426 132.419 248.078 133.171L244.663 99.7952Z" fill="white"/>
</g>
<path d="M243.249 128.758C243.188 128.776 243.125 128.788 243.061 128.794L242.508 128.868L240.381 129.135C239.456 129.245 238.321 129.383 237.009 129.575C235.697 129.767 234.201 129.951 232.556 130.225C225.968 131.244 216.899 132.93 207.028 135.48C203.603 136.364 200.292 137.28 197.282 138.228L197.133 138.274L197.111 138.118C196.048 130.448 195.034 123.833 194.25 119.139C193.849 116.81 193.541 114.946 193.307 113.65L193.052 112.184C193.023 112.024 193.006 111.9 192.988 111.804C192.983 111.76 192.983 111.716 192.988 111.672C193.003 111.713 193.015 111.754 193.023 111.797C193.045 111.896 193.073 112.017 193.105 112.173C193.176 112.528 193.279 113.007 193.406 113.632C193.662 114.907 194.013 116.771 194.424 119.115C195.243 123.798 196.307 130.409 197.388 138.079L197.214 137.972C200.246 137.013 203.543 136.097 206.975 135.21C215.395 133.037 223.923 131.307 232.524 130.029C234.173 129.767 235.672 129.593 236.988 129.419C238.303 129.245 239.434 129.12 240.363 129.028L242.491 128.811L243.047 128.762C243.114 128.754 243.182 128.752 243.249 128.758Z" fill="#FCB05C"/>
<path d="M243.913 120.624C243.913 120.624 243.839 120.389 243.687 119.956C243.434 119.336 243.097 118.753 242.683 118.227C242.023 117.398 241.22 116.694 240.311 116.15C240.038 115.984 239.757 115.833 239.467 115.699C239.158 115.559 238.839 115.44 238.514 115.344C237.812 115.121 237.072 115.048 236.34 115.131C235.539 115.221 234.775 115.522 234.128 116.004C233.427 116.535 232.827 117.187 232.355 117.929C231.327 119.452 230.66 121.309 229.873 123.237C229.484 124.252 228.853 125.158 228.037 125.875C227.596 126.24 227.072 126.491 226.512 126.606C225.933 126.707 225.337 126.638 224.796 126.408C222.569 125.523 221.58 122.956 219.332 122.179C218.228 121.825 217.028 121.924 215.996 122.452C215.493 122.701 215.045 123.047 214.677 123.471C214.326 123.907 214.03 124.384 213.794 124.891C213.294 125.886 212.915 126.986 212.068 127.764C211.653 128.154 211.12 128.395 210.554 128.449C210.002 128.48 209.452 128.357 208.965 128.094C208.057 127.59 207.303 126.847 206.785 125.946C206.332 125.099 205.947 124.218 205.632 123.311C205.334 122.48 204.95 121.681 204.487 120.929C204.052 120.249 203.452 119.691 202.743 119.306C202.129 118.981 201.448 118.801 200.753 118.781C200.059 118.76 199.369 118.9 198.736 119.189C197.758 119.595 196.888 120.223 196.194 121.025C195.759 121.549 195.435 122.157 195.244 122.811C195.109 123.251 195.092 123.496 195.07 123.493C195.084 123.252 195.125 123.014 195.191 122.782C195.367 122.123 195.683 121.509 196.116 120.982C196.808 120.152 197.686 119.499 198.68 119.075C199.332 118.767 200.046 118.614 200.767 118.629C201.488 118.644 202.196 118.826 202.835 119.161C203.579 119.554 204.209 120.131 204.668 120.837C205.146 121.598 205.541 122.409 205.845 123.255C206.163 124.146 206.547 125.013 206.994 125.847C207.491 126.702 208.209 127.407 209.072 127.888C209.517 128.124 210.019 128.231 210.522 128.197C211.032 128.15 211.512 127.931 211.883 127.576C212.663 126.866 213.043 125.8 213.546 124.781C213.791 124.253 214.099 123.757 214.464 123.304C214.859 122.85 215.341 122.48 215.883 122.218C216.98 121.656 218.254 121.552 219.428 121.927C220.626 122.321 221.481 123.248 222.264 124.078C223.048 124.909 223.871 125.751 224.892 126.17C225.386 126.38 225.93 126.444 226.459 126.354C226.979 126.249 227.466 126.017 227.877 125.68C228.665 124.991 229.273 124.121 229.65 123.145C230.433 121.241 231.121 119.356 232.174 117.819C232.665 117.059 233.285 116.392 234.007 115.848C234.687 115.352 235.486 115.045 236.322 114.957C237.079 114.876 237.844 114.957 238.567 115.195C238.898 115.291 239.223 115.41 239.538 115.55C239.833 115.689 240.119 115.846 240.396 116.018C241.311 116.578 242.116 117.3 242.772 118.149C243.184 118.688 243.511 119.286 243.743 119.924C243.798 120.092 243.844 120.263 243.881 120.435C243.899 120.497 243.909 120.56 243.913 120.624Z" fill="#FCB05C"/>
<path d="M192.165 116.231C192.165 116.306 191.924 116.416 191.594 116.48C191.264 116.544 190.991 116.533 190.977 116.458C190.963 116.384 191.215 116.27 191.544 116.21C191.874 116.15 192.151 116.157 192.165 116.231Z" fill="#FCB05C"/>
<path d="M193.022 122.342C193.054 122.41 192.862 122.569 192.593 122.697C192.323 122.825 192.082 122.868 192.05 122.8C192.018 122.733 192.21 122.573 192.479 122.445C192.749 122.317 192.99 122.275 193.022 122.342Z" fill="#FCB05C"/>
<path d="M194.099 129.021C194.123 129.092 193.928 129.227 193.659 129.319C193.389 129.411 193.152 129.429 193.127 129.358C193.102 129.287 193.301 129.152 193.57 129.06C193.84 128.968 194.074 128.946 194.099 129.021Z" fill="#FCB05C"/>
<path d="M195.396 135.593C195.417 135.668 195.194 135.803 194.896 135.895C194.598 135.987 194.339 136.005 194.314 135.934C194.29 135.863 194.516 135.728 194.814 135.632C195.112 135.536 195.371 135.511 195.396 135.593Z" fill="#FCB05C"/>
<path d="M232.226 104.049C232.432 103.973 232.646 103.924 232.865 103.903C233.283 103.832 233.9 103.74 234.68 103.63C236.247 103.41 238.477 103.119 241.14 102.789H241.264V102.916C241.47 105.16 241.711 107.749 241.973 110.49V110.604V110.735H241.842L233.113 111.8H232.996V111.683C232.751 109.389 232.549 107.475 232.4 106.098C232.339 105.454 232.289 104.939 232.251 104.553C232.227 104.378 232.216 104.201 232.219 104.024C232.263 104.209 232.294 104.396 232.315 104.585C232.368 104.976 232.439 105.498 232.528 106.14C232.698 107.504 232.939 109.393 233.237 111.655L233.109 111.555L241.835 110.44L241.714 110.589V110.476C241.473 107.731 241.243 105.15 241.048 102.899L241.182 103.009L232.226 104.049Z" fill="#FCB05C"/>
<path d="M240.335 105.38C240.335 105.462 238.831 105.462 236.998 105.657C235.165 105.853 233.698 106.162 233.68 106.084C233.662 106.005 235.098 105.579 236.97 105.373C238.842 105.167 240.338 105.309 240.335 105.38Z" fill="#FCB05C"/>
<path d="M240.433 107.341C240.433 107.419 239.032 107.472 237.316 107.642C235.6 107.813 234.217 108.022 234.203 107.944C234.189 107.866 235.561 107.532 237.291 107.369C239.022 107.206 240.433 107.27 240.433 107.341Z" fill="#FCB05C"/>
<path d="M238.342 109.052C238.342 109.126 237.555 109.29 236.57 109.407C235.584 109.524 234.765 109.574 234.758 109.499C234.751 109.425 235.541 109.258 236.531 109.144C237.52 109.031 238.332 108.963 238.342 109.052Z" fill="#FCB05C"/>
<path d="M339.861 109.641C320.74 103.804 304.607 98.8223 282.944 98.9573L279.633 133.044C302.133 135.039 309.653 136.513 330.429 144.051L339.861 109.641Z" fill="#FCB05C"/>
<g opacity="0.8">
<path opacity="0.8" d="M339.861 109.641C320.74 103.804 304.607 98.8223 282.944 98.9573L279.633 133.044C302.133 135.039 309.653 136.513 330.429 144.051L339.861 109.641Z" fill="white"/>
</g>
<path d="M296.567 115.504L297.41 108.271C295.31 108.061 293.208 108.643 291.514 109.904C290.392 110.728 289.48 111.804 288.85 113.047C288.221 114.289 287.892 115.662 287.891 117.055C287.891 117.41 287.891 117.765 287.919 118.12C287.918 118.129 287.918 118.137 287.919 118.145L296.354 117.194L296.567 115.504Z" fill="#FCB05C"/>
<path d="M305.291 114.321C304.457 111.637 302.454 109.322 299.281 108.583L299.022 108.526C298.969 108.526 298.916 108.501 298.859 108.494C298.699 108.462 298.533 108.438 298.366 108.416H298.324L297.48 115.649L297.281 117.35L305.244 120.261C305.446 119.66 305.584 119.038 305.656 118.408C305.822 117.035 305.697 115.643 305.291 114.321Z" fill="#FCB05C"/>
<g opacity="0.3">
<path opacity="0.3" d="M305.291 114.321C304.457 111.637 302.454 109.322 299.281 108.583L299.022 108.526C298.969 108.526 298.916 108.501 298.859 108.494C298.699 108.462 298.533 108.438 298.366 108.416H298.324L297.48 115.649L297.281 117.35L305.244 120.261C305.446 119.66 305.584 119.038 305.656 118.408C305.822 117.035 305.697 115.643 305.291 114.321Z" fill="black"/>
</g>
<path d="M296.688 118.159L288.25 119.107C288.605 123.201 291.586 126.592 295.593 127.086C299.599 127.579 303.35 124.987 304.662 121.071L296.699 118.159" fill="#FCB05C"/>
<path d="M332.455 116.139C332.198 116.062 331.948 115.961 331.71 115.837C331.242 115.624 330.554 115.326 329.707 114.971C325.272 113.108 320.629 111.784 315.88 111.026C314.972 110.877 314.231 110.77 313.72 110.703C313.453 110.682 313.188 110.636 312.93 110.564C313.197 110.551 313.465 110.562 313.731 110.596C314.249 110.632 314.993 110.71 315.908 110.834C320.692 111.486 325.359 112.819 329.767 114.793C330.611 115.173 331.285 115.503 331.742 115.741C331.99 115.855 332.228 115.988 332.455 116.139Z" fill="#FCB05C"/>
<path d="M331.89 119.7C331.634 119.62 331.384 119.519 331.145 119.398C330.673 119.185 329.989 118.887 329.138 118.529C324.709 116.666 320.072 115.342 315.328 114.584C314.417 114.438 313.68 114.328 313.169 114.261C312.901 114.237 312.636 114.192 312.375 114.126C312.644 114.11 312.913 114.12 313.18 114.154C313.694 114.19 314.438 114.268 315.357 114.392C320.141 115.045 324.808 116.378 329.216 118.351C330.06 118.731 330.734 119.061 331.191 119.303C331.436 119.413 331.67 119.546 331.89 119.7Z" fill="#FCB05C"/>
<path d="M331.306 123.258C331.05 123.179 330.801 123.078 330.562 122.956C330.094 122.743 329.41 122.445 328.559 122.09C324.124 120.223 319.482 118.897 314.731 118.142C313.823 117.996 313.086 117.89 312.572 117.822C312.305 117.799 312.04 117.752 311.781 117.684C312.049 117.671 312.317 117.681 312.583 117.716C313.1 117.747 313.845 117.829 314.759 117.95C319.544 118.607 324.212 119.94 328.622 121.909C329.466 122.289 330.14 122.619 330.594 122.86C330.844 122.97 331.082 123.103 331.306 123.258Z" fill="#FCB05C"/>
<path d="M330.153 126.816C329.908 126.74 329.67 126.64 329.444 126.518C328.99 126.305 328.327 126.006 327.505 125.651C325.361 124.725 323.163 123.928 320.924 123.265C318.684 122.607 316.406 122.085 314.103 121.703C313.216 121.554 312.5 121.447 312.004 121.38C311.743 121.36 311.486 121.313 311.234 121.241C311.495 121.228 311.756 121.239 312.014 121.273C312.518 121.309 313.241 121.387 314.142 121.511C316.465 121.839 318.762 122.336 321.013 122.999C323.263 123.668 325.462 124.499 327.593 125.484C328.409 125.864 329.061 126.195 329.501 126.433C329.728 126.543 329.946 126.671 330.153 126.816Z" fill="#FCB05C"/>
<path d="M327.636 129.656C327.412 129.593 327.194 129.506 326.988 129.397L325.247 128.623C321.43 126.887 317.377 125.729 313.22 125.186L311.334 124.923C311.094 124.907 310.857 124.866 310.625 124.803C310.861 124.776 311.098 124.776 311.334 124.803C311.784 124.831 312.433 124.891 313.235 124.98C317.43 125.421 321.518 126.589 325.314 128.431C326.045 128.786 326.626 129.071 327.023 129.287C327.24 129.387 327.446 129.511 327.636 129.656Z" fill="#FCB05C"/>
<path d="M319.139 130.058C318.678 130.002 318.223 129.908 317.777 129.777C316.944 129.582 315.792 129.333 314.505 129.11C313.218 128.886 312.048 128.726 311.2 128.605C310.736 128.569 310.277 128.49 309.828 128.368C310.293 128.333 310.76 128.349 311.222 128.414C312.076 128.485 313.257 128.616 314.551 128.84C315.656 129.028 316.75 129.278 317.827 129.589C318.281 129.692 318.722 129.85 319.139 130.058Z" fill="#FCB05C"/>
<path d="M286.26 102.998C286.26 102.998 286.405 102.998 286.7 102.977L288.019 102.934C289.181 102.902 290.855 102.934 293.011 103.044C298.958 103.43 304.843 104.486 310.554 106.19L310.65 106.219L310.632 106.321C309.313 113.877 307.749 122.86 306.072 132.476C306.001 132.863 305.934 133.253 305.867 133.633L305.842 133.782L305.697 133.743C301.84 132.736 297.935 131.928 293.996 131.322C290.224 130.743 286.615 130.331 283.26 130.118H283.133V129.994C284.055 121.927 284.828 115.17 285.37 110.419C285.647 108.065 285.863 106.211 286.012 104.93C286.09 104.308 286.147 103.829 286.189 103.492C286.21 103.335 286.225 103.218 286.239 103.137C286.253 103.055 286.256 103.016 286.256 103.016C286.26 103.061 286.26 103.106 286.256 103.151C286.256 103.247 286.239 103.371 286.221 103.531C286.189 103.886 286.139 104.362 286.076 104.994C285.937 106.282 285.742 108.147 285.494 110.511C284.98 115.251 284.25 121.987 283.367 130.04L283.25 129.905C286.618 130.111 290.231 130.512 294.014 131.091C297.968 131.689 301.887 132.495 305.757 133.505L305.587 133.615C305.654 133.232 305.721 132.845 305.792 132.454C307.48 122.846 309.061 113.863 310.401 106.307L310.479 106.439C304.789 104.727 298.929 103.643 293.004 103.208C290.876 103.066 289.167 103.03 288.04 103.03H286.721C286.423 103.005 286.26 102.998 286.26 102.998Z" fill="#FCB05C"/>
<path d="M224.946 159.312C224.946 159.312 224.645 159.379 224.06 159.496C223.475 159.613 222.599 159.777 221.457 160.022C219.171 160.501 215.806 161.232 211.53 162.404C206.323 163.792 201.235 165.592 196.313 167.787C194.894 168.444 193.423 169.165 191.962 169.996C190.449 170.836 188.991 171.772 187.598 172.801C186.116 173.878 184.763 175.123 183.566 176.511C182.287 177.954 181.352 179.67 180.833 181.528C180.329 183.492 180.485 185.567 181.276 187.433C182.127 189.369 183.369 191.108 184.924 192.539C188.041 195.536 192.015 197.804 196.21 199.757C204.694 203.617 214.384 206.205 224.67 208.137C235.456 210.09 246.364 211.296 257.317 211.744C269.073 212.273 280.851 212.063 292.581 211.116C304.635 210.111 316.335 208.339 327.376 205.435C332.795 204.046 338.094 202.224 343.221 199.984C345.7 198.89 348.092 197.61 350.38 196.157C352.625 194.761 354.656 193.045 356.407 191.062C358.084 189.095 359.325 186.68 359.396 184.138C359.397 183.509 359.353 182.882 359.265 182.26L359.059 181.343C358.98 181.042 358.879 180.746 358.758 180.459C358.311 179.301 357.702 178.212 356.949 177.225C355.421 175.325 353.621 173.662 351.606 172.289C349.658 170.947 347.614 169.75 345.49 168.707C341.448 166.742 337.258 165.095 332.96 163.782C328.837 162.489 324.806 161.463 320.941 160.608C305.44 157.259 292.577 156.347 283.745 155.857C279.32 155.626 275.878 155.615 273.545 155.558L270.889 155.498C270.29 155.498 269.985 155.47 269.985 155.47H270.889L273.545 155.502C275.878 155.544 279.324 155.534 283.752 155.75C292.595 156.208 305.458 157.089 320.98 160.416C324.852 161.272 328.887 162.291 333.035 163.579C337.346 164.892 341.548 166.538 345.604 168.504C347.739 169.549 349.794 170.75 351.752 172.098C353.789 173.484 355.61 175.165 357.155 177.086C357.921 178.093 358.541 179.202 358.999 180.381C359.123 180.675 359.226 180.978 359.307 181.287L359.516 182.228C359.576 182.544 359.61 182.865 359.619 183.186C359.656 183.508 359.668 183.832 359.655 184.156C359.604 185.462 359.293 186.745 358.74 187.93C358.19 189.126 357.473 190.237 356.613 191.232C354.846 193.236 352.797 194.971 350.529 196.381C348.23 197.844 345.826 199.131 343.335 200.233C338.195 202.479 332.883 204.308 327.451 205.701C316.403 208.613 304.671 210.388 292.609 211.382C280.863 212.334 269.068 212.546 257.295 212.018C246.334 211.56 235.418 210.345 224.624 208.382C214.342 206.44 204.623 203.841 196.114 199.96C191.891 197.996 187.92 195.717 184.768 192.688C183.194 191.234 181.939 189.469 181.081 187.504C180.278 185.594 180.126 183.473 180.648 181.468C181.177 179.582 182.128 177.842 183.428 176.38C184.637 174.984 186.001 173.732 187.495 172.648C188.899 171.62 190.366 170.682 191.888 169.839C193.352 169.008 194.82 168.291 196.252 167.634C201.185 165.455 206.283 163.674 211.498 162.308C215.781 161.151 219.153 160.434 221.425 159.976C223.698 159.517 224.946 159.312 224.946 159.312Z" fill="#50B8D4"/>
<path d="M195.806 205.343C195.806 205.675 195.707 206 195.522 206.277C195.336 206.553 195.074 206.768 194.767 206.895C194.459 207.022 194.122 207.055 193.796 206.989C193.47 206.924 193.171 206.763 192.936 206.528C192.702 206.292 192.542 205.992 192.477 205.666C192.413 205.34 192.446 205.001 192.574 204.694C192.701 204.387 192.916 204.124 193.193 203.939C193.469 203.755 193.794 203.656 194.126 203.656C194.347 203.656 194.566 203.7 194.77 203.784C194.974 203.869 195.159 203.994 195.315 204.15C195.472 204.307 195.595 204.493 195.68 204.697C195.764 204.902 195.807 205.121 195.806 205.343Z" fill="#FC81B3"/>
<path d="M346.227 208.165C347.156 208.165 347.908 207.412 347.908 206.482C347.908 205.553 347.156 204.799 346.227 204.799C345.299 204.799 344.547 205.553 344.547 206.482C344.547 207.412 345.299 208.165 346.227 208.165Z" fill="#FC81B3"/>
<path d="M271.344 197.978L275.091 202.64C275.292 202.891 275.565 203.075 275.873 203.166C276.181 203.257 276.51 203.251 276.815 203.15C277.12 203.049 277.386 202.857 277.579 202.599C277.771 202.342 277.881 202.032 277.892 201.71L278.126 195.337L271.344 197.978Z" fill="#020202"/>
<path d="M304.851 138.707C302.919 147.229 296.197 154.312 290.768 151.763C284.06 148.617 284.365 144.193 286.297 135.654C288.23 127.114 292.913 122.296 298.76 123.62C304.607 124.945 306.787 130.168 304.851 138.707Z" fill="#C6EDFF"/>
<path d="M224.289 145.013C221.981 144.418 219.567 144.371 217.237 144.875C209.902 146.59 210.387 156.294 213.947 161.233C218 166.86 227.619 169.14 233.972 166.559C239.957 164.133 238.401 157.27 235.667 152.878C233.323 149.121 228.93 146.142 224.289 145.013Z" fill="#C6EDFF"/>
<path d="M290.761 180.158C288.609 186.801 283.266 195.567 274.288 197.946C266.516 200.009 258.986 197.968 252.473 193.923C249.994 192.369 247.673 190.577 245.541 188.573C243.538 186.694 241.682 184.664 239.989 182.501C239.549 181.944 239.12 181.368 238.705 180.79C238.333 180.271 237.971 179.749 237.617 179.217C236.375 177.354 235.25 175.415 234.249 173.411L234.174 173.262C232.634 170.135 231.411 166.862 230.522 163.491C230.012 161.541 229.624 159.562 229.359 157.565C228.264 149.242 229.42 140.706 233.497 133.015C237.525 125.424 244.648 119.984 252.863 117.392C269.094 112.254 283.546 123.198 289.598 136.413C290.161 137.655 290.646 138.931 291.051 140.234C291.668 142.23 292.142 144.267 292.47 146.33C292.956 149.399 293.227 152.498 293.282 155.605C293.338 158.147 293.282 160.636 293.15 162.986C292.955 166.629 292.587 169.928 292.243 172.534C292.037 174.079 291.842 175.375 291.69 176.362C291.481 177.65 291.171 178.919 290.761 180.158Z" fill="url(#paint0_linear_1051_2954)"/>
<path d="M262.198 106.087C259.39 105.217 256.617 107.071 255.482 109.617C254.866 111.059 254.588 112.623 254.67 114.19C254.724 115.56 254.78 117.74 255.83 118.745C255.89 118.801 255.961 118.841 256.039 118.865C256.118 118.888 256.2 118.893 256.28 118.88C256.361 118.867 256.437 118.835 256.503 118.788C256.569 118.74 256.624 118.678 256.663 118.607C257.106 117.606 256.727 116.37 256.596 115.315C256.4 114.035 256.423 112.732 256.663 111.459C257.191 109.02 259.209 106.843 261.886 107.465C262.779 107.674 263.056 106.353 262.198 106.087Z" fill="#2E2E2E"/>
<path d="M248.324 117.225C247.482 115.927 246.332 114.858 244.977 114.112C243.508 113.333 241.854 112.971 240.194 113.064C238.843 113.135 236.907 113.419 236.124 114.63C235.908 114.985 236.237 115.34 236.574 115.34C237.79 115.393 239.01 114.673 240.269 114.63C241.691 114.587 243.098 114.939 244.332 115.649C245.416 116.283 246.327 117.176 246.984 118.248C247.569 119.185 247.828 120.464 248.586 121.255C248.634 121.3 248.692 121.333 248.755 121.352C248.817 121.372 248.884 121.376 248.948 121.365C249.013 121.355 249.075 121.329 249.128 121.291C249.181 121.253 249.225 121.203 249.256 121.145C249.81 119.906 249.019 118.287 248.324 117.225Z" fill="#2E2E2E"/>
<path d="M248.016 134.061C248.161 134.531 248.194 135.028 248.113 135.514C248.032 135.999 247.838 136.458 247.548 136.855C247.249 137.264 246.869 137.606 246.431 137.861C245.994 138.115 245.508 138.275 245.006 138.332C244.507 138.387 244.002 138.342 243.52 138.201C243.044 138.054 242.603 137.813 242.222 137.491C241.854 137.181 241.554 136.796 241.343 136.362C241.133 135.929 241.015 135.455 240.999 134.973C240.999 134.962 241.001 134.95 241.005 134.939C241.009 134.928 241.015 134.918 241.023 134.91C241.031 134.901 241.04 134.894 241.051 134.889C241.061 134.884 241.073 134.881 241.084 134.881C241.104 134.881 241.124 134.888 241.14 134.9C241.156 134.912 241.168 134.929 241.173 134.948C241.374 135.79 241.879 136.528 242.591 137.019C243.268 137.486 244.097 137.679 244.91 137.558C245.71 137.435 246.438 137.02 246.952 136.394C247.492 135.736 247.809 134.924 247.86 134.075C247.861 134.064 247.864 134.054 247.869 134.044C247.874 134.035 247.88 134.026 247.889 134.019C247.897 134.012 247.906 134.007 247.917 134.004C247.927 134.001 247.938 133.999 247.948 134C247.964 134.003 247.979 134.01 247.991 134.021C248.003 134.032 248.011 134.045 248.016 134.061Z" fill="#2E2E2E"/>
<path d="M256.142 144.533C255.822 144.122 255.665 143.648 255.681 143.147C255.698 142.646 255.889 142.133 256.239 141.649C256.599 141.15 257.095 140.689 257.697 140.295C258.299 139.9 258.993 139.582 259.736 139.359C260.473 139.139 261.241 139.014 261.995 138.991C262.741 138.976 263.457 139.064 264.098 139.251C264.719 139.431 265.252 139.707 265.662 140.06C266.073 140.413 266.352 140.836 266.48 141.301C266.484 141.312 266.483 141.324 266.48 141.336C266.476 141.348 266.469 141.36 266.459 141.371C266.449 141.382 266.436 141.392 266.421 141.4C266.407 141.409 266.39 141.415 266.373 141.419C266.342 141.426 266.312 141.426 266.285 141.42C266.258 141.413 266.237 141.4 266.225 141.383C265.741 140.628 264.822 140.077 263.646 139.835C262.529 139.605 261.242 139.693 260.047 140.082C258.872 140.47 257.87 141.117 257.233 141.9C256.566 142.722 256.265 143.621 256.373 144.467C256.374 144.477 256.372 144.489 256.367 144.5C256.361 144.511 256.353 144.521 256.342 144.531C256.331 144.54 256.318 144.548 256.303 144.555C256.289 144.562 256.273 144.566 256.256 144.569C256.232 144.572 256.209 144.57 256.188 144.563C256.168 144.557 256.152 144.546 256.142 144.533Z" fill="#2E2E2E"/>
<path d="M272.612 126.335C272.847 126.769 272.977 127.252 272.991 127.745C273.005 128.239 272.903 128.729 272.694 129.175C272.481 129.634 272.175 130.044 271.796 130.378C271.417 130.712 270.973 130.964 270.492 131.118C270.012 131.268 269.507 131.322 269.006 131.277C268.509 131.226 268.027 131.076 267.588 130.837C267.165 130.605 266.797 130.286 266.506 129.901C266.215 129.516 266.009 129.074 265.9 128.604C265.898 128.593 265.897 128.581 265.899 128.57C265.901 128.558 265.906 128.547 265.912 128.538C265.918 128.528 265.927 128.52 265.936 128.514C265.946 128.507 265.956 128.503 265.968 128.501C265.987 128.496 266.007 128.498 266.024 128.506C266.042 128.515 266.056 128.529 266.063 128.547C266.425 129.332 267.062 129.956 267.854 130.301C268.608 130.629 269.459 130.657 270.233 130.379C270.993 130.102 271.625 129.553 272.006 128.838C272.407 128.09 272.561 127.233 272.445 126.392C272.444 126.381 272.445 126.37 272.447 126.359C272.45 126.349 272.455 126.339 272.462 126.331C272.468 126.322 272.476 126.315 272.486 126.309C272.495 126.304 272.506 126.301 272.516 126.299C272.534 126.295 272.552 126.296 272.57 126.303C272.587 126.309 272.601 126.32 272.612 126.335Z" fill="#2E2E2E"/>
<path d="M278.528 134.023C279.286 132.662 279.07 131.094 278.046 130.522C277.022 129.95 275.577 130.59 274.818 131.951C274.06 133.313 274.276 134.881 275.3 135.453C276.324 136.025 277.77 135.385 278.528 134.023Z" fill="#EB8757"/>
<path d="M242.944 142.454C243.165 141.479 242.125 140.412 240.622 140.07C239.119 139.729 237.722 140.243 237.501 141.219C237.281 142.194 238.32 143.261 239.823 143.603C241.326 143.944 242.723 143.43 242.944 142.454Z" fill="#EB8757"/>
<path d="M255.017 190.866C252.355 191.616 252.121 197.723 252.613 199.779C253.085 201.728 254.574 202.644 255.879 200.538C256.954 198.778 257.719 196.846 258.141 194.825C258.549 192.482 257.832 191.974 255.017 190.866Z" fill="url(#paint1_linear_1051_2954)"/>
<path d="M285.579 183.563C285.643 185.541 291.383 190.526 293.081 188.828C295.684 186.226 291.309 180.435 288.678 179.774C286.391 179.199 285.115 181.415 285.579 183.563Z" fill="url(#paint2_linear_1051_2954)"/>
<path d="M292.474 146.323C286.294 150.41 276.416 156.226 265.432 159.873C253.452 163.853 239.146 163.931 230.53 163.491C230.02 161.542 229.632 159.562 229.367 157.565C237.302 158.048 251.91 158.222 263.599 154.337C275.034 150.542 285.418 144.09 291.059 140.227C291.674 142.223 292.146 144.26 292.474 146.323Z" fill="#2E2E2E"/>
<path d="M293.155 162.976C286.802 167.56 277.2 173.738 268.744 176.035C259.817 178.464 246.198 179.082 237.615 179.231C236.372 177.362 235.249 175.418 234.25 173.408C241.944 173.376 257.76 172.971 267.223 170.404C276.491 167.883 287.876 159.752 293.29 155.598C293.343 158.14 293.286 160.629 293.155 162.976Z" fill="#2E2E2E"/>
<path d="M290.759 180.158C285.561 183.172 278.583 187.078 273.215 189.613C268.156 192.006 259.703 193.263 252.471 193.923C249.992 192.369 247.671 190.577 245.539 188.573C252.985 188.168 264.887 187.099 270.737 184.337C277.576 181.106 287.472 175.357 292.248 172.527C292.046 174.072 291.847 175.368 291.695 176.358C291.484 177.647 291.171 178.918 290.759 180.158Z" fill="#020202"/>
<path d="M293.616 143.802L294.3 143.28C295.605 142.272 296.58 141.381 297.264 143.525C297.821 145.269 297.168 147.14 296.275 148.67C295.211 150.502 293.438 152.434 291.003 152.491C288.907 152.541 287.922 149.753 289.053 148.07C290.184 146.387 291.995 145.031 293.616 143.802Z" fill="url(#paint3_linear_1051_2954)"/>
<path d="M227.611 159.898L226.799 159.606C225.253 159.045 224.055 158.499 224.055 160.746C224.055 162.578 225.242 164.162 226.558 165.362C228.136 166.782 230.391 168.089 232.741 167.397C234.755 166.804 234.847 163.846 233.255 162.589C231.663 161.332 229.529 160.576 227.611 159.898Z" fill="url(#paint4_linear_1051_2954)"/>
<g style="mix-blend-mode:overlay" opacity="0.3">
<path d="M269.705 121.035C267.915 119.97 264.699 119.487 263.639 119.31C259.717 118.653 255.696 118.912 251.889 120.066C249.556 120.776 236.746 127.285 241.299 130.956C242.767 132.138 245.802 131.368 247.255 130.58C250.382 128.882 253.992 127.878 257.395 126.908C261.196 125.825 265.079 125.729 268.826 124.852C269.235 124.774 269.621 124.606 269.957 124.361C270.293 124.115 270.57 123.798 270.769 123.432C271.244 122.417 270.691 121.635 269.705 121.035Z" fill="white"/>
</g>
<g style="mix-blend-mode:overlay" opacity="0.4">
<path d="M291.571 159.766C291.848 160.089 292.035 160.7 292.053 161.563C292.195 169.136 291.011 177.225 287.462 184.092C283.976 190.838 276.272 199.004 267.848 196.327C267.085 196.137 266.401 195.711 265.894 195.109C263.827 192.269 270.645 189.975 272.301 189.073C275.697 187.209 278.596 184.554 280.754 181.333C284.884 175.236 286.941 167.94 289.617 161.151C290.231 159.557 291.057 159.166 291.571 159.766Z" fill="black"/>
</g>
<path d="M222.539 137.606C222.772 137.606 222.961 137.417 222.961 137.184C222.961 136.95 222.772 136.761 222.539 136.761C222.306 136.761 222.117 136.95 222.117 137.184C222.117 137.417 222.306 137.606 222.539 137.606Z" fill="#FCB05C"/>
<path d="M298.36 201.966C277.938 207.38 258.25 206.972 236.796 201.966L234.289 162.688C256.459 167.013 278.718 166.466 298.36 161.761V201.966Z" fill="#FCB05C"/>
<g opacity="0.8">
<path opacity="0.8" d="M298.36 201.966C277.938 207.38 258.25 206.972 236.796 201.966L234.289 162.688C256.459 167.013 278.718 166.466 298.36 161.761V201.966Z" fill="white"/>
</g>
<path d="M295.19 195.994C295.15 196.021 295.107 196.043 295.062 196.058L294.675 196.224C294.321 196.359 293.839 196.58 293.179 196.817C291.327 197.507 289.441 198.099 287.528 198.593C282.695 199.885 275.792 200.915 268.151 200.805C261.63 200.676 255.133 199.98 248.733 198.724C246.275 198.259 244.301 197.826 242.939 197.51C242.255 197.357 241.73 197.222 241.372 197.133L240.982 197.02C240.935 197.008 240.889 196.993 240.844 196.974C240.893 196.973 240.942 196.979 240.989 196.991L241.4 197.07L242.975 197.396C244.343 197.68 246.325 198.081 248.782 198.525C255.18 199.718 261.663 200.385 268.169 200.521C275.788 200.627 282.663 199.633 287.492 198.39C289.914 197.783 291.843 197.169 293.165 196.7C293.828 196.484 294.328 196.278 294.679 196.157L295.072 196.019L295.19 195.994Z" fill="#FCB05C"/>
<path d="M265.184 197.595C262.621 198.355 259.994 198.153 257.32 197.332V183.353C259.915 182.824 262.59 182.824 265.184 183.353V197.595Z" fill="#FCB05C"/>
<path d="M277.878 196.764C277.874 196.729 277.874 196.693 277.878 196.658C277.878 196.576 277.878 196.473 277.878 196.352C277.878 196.068 277.86 195.678 277.846 195.184C277.846 194.151 277.796 192.681 277.761 190.845C277.704 187.135 277.626 181.944 277.537 175.932L277.64 176.057C274.954 175.527 272.19 175.527 269.503 176.057L269.617 175.922V176.199C269.702 184.461 269.776 191.921 269.829 197.251L269.755 197.158C270.882 197.404 272.03 197.545 273.184 197.577C274.051 197.594 274.918 197.522 275.772 197.364C276.31 197.26 276.84 197.12 277.36 196.945L277.757 196.807C277.805 196.789 277.853 196.775 277.903 196.764C277.862 196.789 277.819 196.811 277.775 196.828L277.378 196.998C276.862 197.194 276.332 197.351 275.793 197.467C274.934 197.647 274.058 197.734 273.18 197.726C272.016 197.712 270.856 197.585 269.716 197.346L269.642 197.329V197.254C269.564 191.928 269.461 184.472 269.344 176.202C269.344 176.106 269.344 176.01 269.344 175.925V175.808L269.457 175.787C272.177 175.248 274.977 175.248 277.697 175.787L277.803 175.808V175.915C277.849 181.951 277.888 187.177 277.913 190.902C277.913 192.734 277.913 194.197 277.913 195.223C277.913 195.71 277.913 196.089 277.913 196.37C277.913 196.487 277.913 196.583 277.913 196.661C277.909 196.698 277.897 196.733 277.878 196.764Z" fill="#FCB05C"/>
<path d="M289.965 195.117C287.859 196.26 285.087 196.409 282.102 196.239V173.159C284.778 172.591 287.42 172.485 289.965 173.159V195.117Z" fill="#FCB05C"/>
<path d="M252.683 196.452C252.665 196.256 252.657 196.059 252.658 195.862C252.658 195.454 252.64 194.914 252.626 194.247C252.626 192.826 252.591 190.895 252.566 188.566L252.64 188.676C250.538 187.905 247.9 187.17 245.071 187.419L245.195 187.284C245.195 190.163 245.195 192.862 245.177 195.159L245.106 195.049C246.084 195.447 247.101 195.738 248.141 195.915C249.07 196.086 249.889 196.182 250.566 196.249L252.141 196.381C252.327 196.391 252.513 196.411 252.697 196.441C252.511 196.455 252.323 196.455 252.137 196.441C251.782 196.441 251.236 196.42 250.556 196.374C249.875 196.327 249.049 196.246 248.106 196.093C247.047 195.93 246.01 195.649 245.014 195.255L244.94 195.223V195.145C244.94 192.848 244.94 190.149 244.922 187.27V187.142H245.046C247.943 186.886 250.612 187.65 252.726 188.452L252.804 188.48V188.562C252.779 190.913 252.757 192.887 252.743 194.311C252.729 194.966 252.718 195.495 252.711 195.898C252.716 196.083 252.706 196.268 252.683 196.452Z" fill="#FCB05C"/>
<path d="M256.403 176.021C255.895 176.106 255.379 176.138 254.864 176.117C253.914 176.117 252.599 176.117 251.149 176.028C249.699 175.939 248.39 175.808 247.447 175.673C246.934 175.63 246.426 175.539 245.93 175.4C246.444 175.384 246.959 175.412 247.468 175.481C248.415 175.556 249.72 175.662 251.163 175.748C252.606 175.833 253.918 175.883 254.864 175.915C255.379 175.909 255.894 175.944 256.403 176.021Z" fill="#FCB05C"/>
<path d="M255.226 177.743C254.778 177.788 254.327 177.788 253.879 177.743C253.046 177.704 251.897 177.629 250.628 177.534C249.358 177.438 248.21 177.331 247.384 177.242C246.932 177.222 246.484 177.156 246.047 177.044C246.497 176.997 246.951 176.997 247.401 177.044C248.234 177.083 249.383 177.154 250.649 177.253C251.915 177.353 253.06 177.452 253.89 177.541C254.341 177.561 254.789 177.629 255.226 177.743Z" fill="#FCB05C"/>
<path d="M258.105 179.994C258.096 179.831 258.096 179.668 258.105 179.504C258.105 179.167 258.133 178.713 258.158 178.144C258.215 176.951 258.293 175.275 258.388 173.213L258.491 173.319C253.633 173.366 248.777 173.095 243.954 172.51L244.107 172.382V172.485V172.598V172.822L244.082 173.262C244.064 173.56 244.05 173.852 244.032 174.143C243.997 174.725 243.965 175.3 243.93 175.868C243.862 177.001 243.798 178.098 243.735 179.149L243.621 179.014C247.83 179.533 251.467 179.753 254.045 179.852L257.059 179.945L257.853 179.969C257.95 179.969 258.047 179.975 258.144 179.987C258.056 179.999 257.967 180.005 257.878 180.005C257.697 180.005 257.413 180.026 257.059 180.03C256.35 180.03 255.329 180.03 254.038 180.03C251.457 179.973 247.808 179.788 243.589 179.288L243.469 179.27V179.149C243.529 178.084 243.589 177.019 243.653 175.868C243.685 175.3 243.717 174.725 243.752 174.143C243.752 173.852 243.784 173.557 243.802 173.262L243.827 172.818V172.595V172.485V172.378C243.795 172.407 244.118 172.133 243.983 172.25C248.801 172.827 253.649 173.121 258.502 173.131H258.612V173.237C258.466 175.318 258.353 177.015 258.257 178.208C258.215 178.769 258.179 179.213 258.154 179.543C258.147 179.695 258.13 179.845 258.105 179.994Z" fill="#FCB05C"/>
<path d="M259.896 182.956C259.829 182.995 259.393 182.356 258.882 181.535C258.372 180.715 258.035 180.016 258.102 179.98C258.17 179.945 258.606 180.58 259.116 181.4C259.627 182.221 259.96 182.92 259.896 182.956Z" fill="#FCB05C"/>
<path d="M174.555 131.812L181.234 172.257C181.234 172.257 191.424 191.367 218.501 195.674L214.133 159.567C214.133 159.567 189.091 151.813 174.555 131.812Z" fill="#FCB05C"/>
<g opacity="0.8">
<path opacity="0.8" d="M174.555 131.812L181.234 172.257C181.234 172.257 191.424 191.367 218.501 195.674L214.133 159.567C214.133 159.567 189.091 151.813 174.555 131.812Z" fill="white"/>
</g>
<path d="M215.011 192.791C214.953 192.787 214.895 192.773 214.841 192.752L214.341 192.606L212.434 192.024C211.607 191.761 210.579 191.488 209.441 191.023L207.597 190.312C206.942 190.067 206.25 189.805 205.552 189.467C204.133 188.821 202.577 188.157 200.985 187.262C199.354 186.442 197.702 185.402 195.972 184.298C192.246 181.847 188.862 178.911 185.909 175.566C184.529 174.006 183.312 172.307 182.279 170.496V170.478V170.457C181.059 162.575 179.988 155.647 179.223 150.673C178.868 148.187 178.553 146.224 178.347 144.839L178.123 143.266L178.07 142.858C178.07 142.765 178.07 142.719 178.07 142.719C178.085 142.763 178.096 142.808 178.102 142.854C178.123 142.961 178.148 143.092 178.18 143.259L178.446 144.825C178.673 146.206 178.999 148.184 179.403 150.648L182.552 170.414V170.375C183.577 172.164 184.783 173.843 186.151 175.385C189.088 178.711 192.448 181.637 196.145 184.088C197.861 185.192 199.503 186.219 201.109 187.06C202.69 187.962 204.247 188.637 205.647 189.29C206.356 189.645 207.03 189.897 207.679 190.149L209.512 190.859C210.643 191.339 211.664 191.626 212.483 191.907L214.376 192.535L214.866 192.709C214.917 192.732 214.965 192.759 215.011 192.791Z" fill="#FCB05C"/>
<path d="M212.62 181.042C212.592 181.073 212.562 181.102 212.528 181.127L212.241 181.358L211.113 182.235L206.859 185.498L206.791 185.548L206.742 185.48C205.323 183.495 203.551 181.052 201.54 178.272L201.696 178.301L197.711 181.141L197.576 181.237L197.52 181.084L192.411 167.13L191.673 165.121H191.925C190.804 167.343 189.72 169.502 188.677 171.576L188.535 171.856L188.433 171.562C185.596 163.395 183.206 156.471 181.65 151.972H181.792L180.781 156.187C180.664 156.659 180.572 157.029 180.508 157.295C180.476 157.412 180.452 157.504 180.434 157.579C180.427 157.612 180.417 157.644 180.402 157.675C180.397 157.642 180.397 157.608 180.402 157.575C180.402 157.497 180.434 157.405 180.459 157.288L180.71 156.187C180.93 155.193 181.242 153.762 181.639 151.958L181.696 151.703L181.785 151.948C183.366 156.439 185.805 163.356 188.677 171.498H188.433C189.473 169.419 190.553 167.265 191.673 165.035L191.815 164.755L191.925 165.05C192.166 165.714 192.414 166.385 192.662 167.059L197.779 181.035L197.591 180.974L201.59 178.134L201.682 178.066L201.75 178.159L206.901 185.402L206.784 185.384L211.081 182.189L212.234 181.344L212.535 181.131C212.559 181.097 212.587 181.067 212.62 181.042Z" fill="#FCB05C"/>
<path d="M211.694 161.652C211.5 161.632 211.31 161.589 211.127 161.524C210.772 161.428 210.247 161.268 209.613 161.059C206.306 159.948 203.121 158.507 200.104 156.755C199.526 156.418 199.065 156.134 198.753 155.928C198.583 155.828 198.424 155.709 198.281 155.573C198.466 155.634 198.642 155.717 198.806 155.821L200.196 156.574C201.373 157.203 203.011 158.044 204.862 158.882C206.712 159.72 208.429 160.395 209.68 160.86L211.159 161.41C211.347 161.467 211.527 161.548 211.694 161.652Z" fill="#FCB05C"/>
<path d="M212.773 163.331C212.329 163.306 211.89 163.227 211.464 163.097C210.425 162.846 209.4 162.539 208.394 162.177C207.388 161.818 206.403 161.405 205.441 160.941C205.03 160.769 204.641 160.55 204.281 160.288C204.707 160.41 205.121 160.569 205.519 160.764C206.274 161.076 207.316 161.499 208.486 161.921C209.656 162.344 210.734 162.674 211.514 162.912C211.945 163.013 212.367 163.154 212.773 163.331Z" fill="#FCB05C"/>
<path d="M202.103 178.293C202.103 178.627 201.901 178.897 201.649 178.897C201.397 178.897 201.195 178.627 201.195 178.293C201.195 177.96 201.397 177.686 201.649 177.686C201.901 177.686 202.103 177.956 202.103 178.293Z" fill="#FCB05C"/>
<path d="M191.743 166.111C191.994 166.111 192.197 165.839 192.197 165.504C192.197 165.169 191.994 164.897 191.743 164.897C191.492 164.897 191.289 165.169 191.289 165.504C191.289 165.839 191.492 166.111 191.743 166.111Z" fill="#FCB05C"/>
<path d="M182.197 152.16C182.197 152.516 181.991 152.768 181.743 152.768C181.495 152.768 181.289 152.498 181.289 152.16C181.289 151.823 181.491 151.557 181.743 151.557C181.995 151.557 182.197 151.827 182.197 152.16Z" fill="#FCB05C"/>
<path d="M351.209 139.016L347.866 180.111C347.866 180.111 338.098 197.684 311.188 198.355L314.513 156.979C314.513 156.979 337.988 156.027 351.209 139.016Z" fill="#FCB05C"/>
<path d="M350.712 136.875C349.836 134.034 347.709 129.976 342.653 129.131L336.672 184.408C336.672 184.408 347.897 182.164 348.198 176C348.227 175.471 350.471 147.996 351.035 141.203C351.212 139.753 351.102 138.282 350.712 136.875Z" fill="#FCB05C"/>
<g opacity="0.8">
<path opacity="0.8" d="M351.209 139.016L347.866 180.111C347.866 180.111 338.098 197.684 311.188 198.355L314.513 156.979C314.513 156.979 337.988 156.027 351.209 139.016Z" fill="white"/>
</g>
<path d="M350.403 149.494C347.712 153.411 346.223 158.031 346.117 162.784C346.092 164.144 346.17 165.557 345.652 166.818C345.135 168.078 343.784 169.133 342.461 168.774C341.089 168.394 340.476 166.772 339.27 166.012C338.207 165.334 336.753 165.451 335.661 166.086C334.588 166.776 333.758 167.786 333.289 168.973C332.314 171.228 332.25 173.77 331.516 176.117C330.782 178.464 329.034 180.832 326.581 180.939C325.684 180.978 324.808 180.708 323.904 180.733C322.011 180.79 320.359 182.199 319.486 183.879C318.614 185.558 318.338 187.483 318.086 189.361C318.086 189.361 332.424 190.728 348.521 171.696L350.403 149.494Z" fill="#FCB05C"/>
<path d="M327.608 174.42C327.608 174.931 327.357 175.343 327.048 175.343C326.74 175.343 326.484 174.931 326.484 174.42C326.484 173.908 326.736 173.497 327.048 173.497C327.36 173.497 327.608 173.912 327.608 174.42Z" fill="#FCB05C"/>
<path d="M334.366 157.334C334.366 157.845 334.114 158.257 333.802 158.257C333.49 158.257 333.242 157.845 333.242 157.334C333.242 156.823 333.494 156.411 333.802 156.411C334.111 156.411 334.366 156.826 334.366 157.334Z" fill="#FCB05C"/>
<path d="M350.085 151.475C350.064 151.557 350.033 151.635 349.993 151.71C349.919 151.877 349.816 152.097 349.692 152.377C349.408 152.974 349.011 153.819 348.507 154.888L344.253 163.803L344.193 163.924L344.079 163.853L333.939 157.426L334.137 157.362L333.716 158.403L327.142 174.459L327.096 174.569L326.993 174.512C324.465 173.092 322.384 171.941 320.966 171.164C320.257 170.773 319.686 170.475 319.303 170.28L318.863 170.063C318.81 170.047 318.759 170.024 318.711 169.996C318.729 169.946 319.569 170.305 321.019 171.061C322.469 171.817 324.565 172.925 327.093 174.331L326.944 174.381C328.674 170.099 330.947 164.46 333.435 158.296C333.577 157.941 333.723 157.586 333.854 157.259L333.918 157.107L334.056 157.195L344.189 163.643L344.019 163.693L348.383 154.817C348.912 153.751 349.326 152.928 349.624 152.331C349.766 152.061 349.876 151.848 349.979 151.681C350.009 151.61 350.045 151.541 350.085 151.475Z" fill="#FCB05C"/>
</g>
<path d="M10.4898 198V161L70.0898 76H117.89V159.6H132.29V198H117.89V220H73.0898V198H10.4898ZM76.6898 126.6L55.0898 159.6H76.6898V126.6Z" fill="#A0E0ED"/>
<path d="M390.49 198V161L450.09 76H497.89V159.6H512.29V198H497.89V220H453.09V198H390.49ZM456.69 126.6L435.09 159.6H456.69V126.6Z" fill="#A0E0ED"/>
<defs>
<linearGradient id="paint0_linear_1051_2954" x1="257.416" y1="93.0876" x2="262.656" y2="178.508" gradientUnits="userSpaceOnUse">
<stop offset="0.15" stop-color="#FFE371"/>
<stop offset="0.42" stop-color="#FFDD61"/>
<stop offset="0.69" stop-color="#FFD56C"/>
<stop offset="0.97" stop-color="#FFC76C"/>
<stop offset="1" stop-color="#FFC05E"/>
</linearGradient>
<linearGradient id="paint1_linear_1051_2954" x1="2991.15" y1="-318.11" x2="4935.44" y2="803.017" gradientUnits="userSpaceOnUse">
<stop offset="0.15" stop-color="#FCD844"/>
<stop offset="0.42" stop-color="#FCD443"/>
<stop offset="0.69" stop-color="#FCC740"/>
<stop offset="0.97" stop-color="#FBB33C"/>
<stop offset="1" stop-color="#FBB03B"/>
</linearGradient>
<linearGradient id="paint2_linear_1051_2954" x1="4839.79" y1="-915.155" x2="6798.07" y2="944.305" gradientUnits="userSpaceOnUse">
<stop offset="0.15" stop-color="#FCD844"/>
<stop offset="0.42" stop-color="#FCD443"/>
<stop offset="0.69" stop-color="#FCC740"/>
<stop offset="0.97" stop-color="#FBB33C"/>
<stop offset="1" stop-color="#FBB03B"/>
</linearGradient>
<linearGradient id="paint3_linear_1051_2954" x1="4655.76" y1="3351.24" x2="4535.4" y2="6241.65" gradientUnits="userSpaceOnUse">
<stop offset="0.15" stop-color="#FCD844"/>
<stop offset="0.42" stop-color="#FCD443"/>
<stop offset="0.69" stop-color="#FCC740"/>
<stop offset="0.97" stop-color="#FBB33C"/>
<stop offset="1" stop-color="#FBB03B"/>
</linearGradient>
<linearGradient id="paint4_linear_1051_2954" x1="-5257.85" y1="6613.05" x2="-3883.4" y2="9027.7" gradientUnits="userSpaceOnUse">
<stop offset="0.15" stop-color="#FCD844"/>
<stop offset="0.42" stop-color="#FCD443"/>
<stop offset="0.69" stop-color="#FCC740"/>
<stop offset="0.97" stop-color="#FBB33C"/>
<stop offset="1" stop-color="#FBB03B"/>
</linearGradient>
<clipPath id="clip0_1051_2954">
<rect width="239" height="168" fill="white" transform="translate(141 66)"/>
</clipPath>
</defs>
</svg>
