<svg width="661" height="429" viewBox="0 0 661 429" fill="none" xmlns="http://www.w3.org/2000/svg">
<path d="M276.526 183.52H224.326V198.64C226.606 196.6 229.546 194.98 233.146 193.78C236.866 192.58 241.006 191.98 245.566 191.98C253.726 191.98 260.626 193.9 266.266 197.74C271.906 201.58 276.106 206.74 278.866 213.22C281.626 219.58 283.006 226.66 283.006 234.46C283.006 248.86 278.926 260.08 270.766 268.12C262.726 276.04 251.626 280 237.466 280C227.146 280 218.206 278.2 210.646 274.6C203.206 271 197.506 266.02 193.546 259.66C189.706 253.3 187.906 246.04 188.146 237.88H227.026C227.026 239.8 227.686 241.6 229.006 243.28C230.326 244.96 232.486 245.8 235.486 245.8C238.486 245.8 240.706 244.72 242.146 242.56C243.586 240.4 244.306 237.46 244.306 233.74C244.306 230.26 243.466 227.62 241.786 225.82C240.226 224.02 237.946 223.12 234.946 223.12C232.426 223.12 230.506 223.72 229.186 224.92C227.866 226.12 227.206 227.5 227.206 229.06H188.326V148.42H276.526V183.52ZM295.994 212.32C295.994 191.56 300.374 175.24 309.134 163.36C318.014 151.48 331.634 145.54 349.994 145.54C368.234 145.54 381.794 151.54 390.674 163.54C399.554 175.42 403.994 191.68 403.994 212.32C403.994 233.08 399.554 249.46 390.674 261.46C381.794 273.34 368.234 279.28 349.994 279.28C331.634 279.28 318.014 273.34 309.134 261.46C300.374 249.46 295.994 233.08 295.994 212.32ZM364.574 212.32C364.574 202.72 363.614 195.52 361.694 190.72C359.774 185.8 355.874 183.34 349.994 183.34C343.994 183.34 340.034 185.8 338.114 190.72C336.194 195.52 335.234 202.72 335.234 212.32C335.234 222.04 336.194 229.36 338.114 234.28C340.034 239.08 343.994 241.48 349.994 241.48C355.874 241.48 359.774 239.08 361.694 234.28C363.614 229.36 364.574 222.04 364.574 212.32ZM415.174 212.32C415.174 191.56 419.554 175.24 428.314 163.36C437.194 151.48 450.814 145.54 469.174 145.54C487.414 145.54 500.974 151.54 509.854 163.54C518.734 175.42 523.174 191.68 523.174 212.32C523.174 233.08 518.734 249.46 509.854 261.46C500.974 273.34 487.414 279.28 469.174 279.28C450.814 279.28 437.194 273.34 428.314 261.46C419.554 249.46 415.174 233.08 415.174 212.32ZM483.754 212.32C483.754 202.72 482.794 195.52 480.874 190.72C478.954 185.8 475.054 183.34 469.174 183.34C463.174 183.34 459.214 185.8 457.294 190.72C455.374 195.52 454.414 202.72 454.414 212.32C454.414 222.04 455.374 229.36 457.294 234.28C459.214 239.08 463.174 241.48 469.174 241.48C475.054 241.48 478.954 239.08 480.874 234.28C482.794 229.36 483.754 222.04 483.754 212.32Z" fill="#A0E0ED"/>
<g clip-path="url(#clip0_1051_2955)">
<path d="M117.164 172.629H0L19.0836 186.389V213.452C19.0862 214.95 19.6831 216.386 20.7437 217.445C21.8043 218.504 23.242 219.1 24.7419 219.103H117.164C118.665 219.103 120.104 218.507 121.165 217.448C122.226 216.388 122.822 214.951 122.822 213.452V178.28C122.822 176.781 122.226 175.344 121.165 174.284C120.104 173.224 118.665 172.629 117.164 172.629Z" fill="#F5F5F5"/>
<path d="M112.281 191.754C112.281 191.868 94.6092 191.964 72.8157 191.964C51.0222 191.964 33.3984 191.868 33.3984 191.754C33.3984 191.64 51.0126 191.535 72.8157 191.535C94.6187 191.535 112.281 191.64 112.281 191.754Z" fill="#E1E1E1"/>
<path d="M112.281 202.15C112.281 202.255 94.6092 202.35 72.8157 202.35C51.0222 202.35 33.3984 202.255 33.3984 202.15C33.3984 202.045 51.0603 201.941 72.8634 201.941C94.6664 201.941 112.281 202.017 112.281 202.15Z" fill="#E1E1E1"/>
<path d="M374.993 61.9391L358.305 22.7269C366.502 19.2552 375.582 18.4348 384.27 20.381C392.957 22.3272 400.817 26.9421 406.744 33.5778C412.67 40.2134 416.367 48.5363 417.314 57.3777C418.262 66.2191 416.412 75.1347 412.026 82.8726C407.639 90.6104 400.936 96.7817 392.857 100.52C384.778 104.258 375.73 105.375 366.983 103.714C358.236 102.053 350.23 97.6979 344.088 91.2598C337.947 84.8217 333.979 76.6242 332.742 67.8186L374.993 61.9391Z" fill="#ECECEC"/>
<path d="M330.664 59.0805L363.545 55.9836L349.805 26.4434C349.805 26.4434 333.25 35.5246 330.664 59.0805Z" fill="#E1E1E1"/>
<path d="M593.501 300.052C593.453 295.931 594.628 291.887 596.879 288.432C599.129 284.977 602.355 282.266 606.147 280.64C609.94 279.014 614.13 278.546 618.188 279.296C622.246 280.046 625.991 281.98 628.95 284.854C631.908 287.728 633.948 291.412 634.812 295.443C635.675 299.473 635.324 303.669 633.802 307.5C632.28 311.331 629.655 314.626 626.26 316.969C622.864 319.312 618.849 320.598 614.723 320.664C609.176 320.725 603.831 318.591 599.855 314.729C595.878 310.867 593.594 305.591 593.501 300.052ZM624.369 299.547C624.335 297.574 623.715 295.655 622.588 294.033C621.462 292.411 619.878 291.16 618.039 290.437C616.2 289.714 614.187 289.552 612.256 289.972C610.324 290.392 608.561 291.374 607.189 292.795C605.817 294.216 604.898 296.011 604.548 297.954C604.198 299.897 604.433 301.9 605.223 303.709C606.013 305.518 607.323 307.053 608.987 308.119C610.651 309.184 612.594 309.733 614.57 309.696C617.217 309.643 619.736 308.546 621.576 306.645C623.416 304.743 624.427 302.191 624.388 299.547H624.369Z" fill="#F5F5F5"/>
<path d="M593.503 300.052C593.416 294.511 595.529 289.162 599.38 285.173C603.232 281.183 608.508 278.879 614.056 278.764L614.227 289.694C611.676 289.887 609.294 291.046 607.57 292.935C605.846 294.823 604.908 297.297 604.95 299.852C604.991 302.407 606.008 304.85 607.793 306.682C609.578 308.513 611.995 309.594 614.552 309.705L614.724 320.635C609.182 320.696 603.841 318.567 599.866 314.711C595.89 310.855 593.603 305.586 593.503 300.052Z" fill="#E1E1E1"/>
<path d="M612.195 277.078C615.369 277 618.527 277.556 621.483 278.714C624.439 279.871 627.134 281.606 629.41 283.816C631.686 286.027 633.497 288.669 634.737 291.588C635.977 294.507 636.622 297.644 636.632 300.815L623.884 301.024C623.779 294.564 618.856 290.542 612.434 290.599L612.195 277.078Z" fill="#ECECEC"/>
<path d="M168.248 391.97C168.248 391.97 142.295 382.117 125.778 366.87C109.261 351.624 113.221 352.138 113.221 352.138C113.221 352.138 131.426 365.736 142.352 371.073C153.277 376.409 171.149 383.175 171.149 383.175L168.248 391.97Z" fill="#ECECEC"/>
<path d="M141.797 339.446C141.588 339.312 141.337 339.259 141.092 339.297C140.846 339.335 140.623 339.461 140.464 339.652C140.304 339.842 140.22 340.084 140.227 340.332C140.234 340.58 140.331 340.817 140.5 340.999C145.223 347.002 156.12 361.181 161.807 371.168C169.201 384.147 172.207 389.083 172.207 389.083L178.514 385.433C178.514 385.433 161.902 359.371 155.747 352.081C151.71 347.24 147.014 342.987 141.797 339.446Z" fill="#ECECEC"/>
<path d="M173.184 385.614C172.114 377.656 169.94 369.885 166.724 362.525C164.482 357.465 159.825 351.576 153.471 343.8C151.113 340.966 149 337.938 147.154 334.748C146.938 334.416 146.843 334.02 146.885 333.626C146.926 333.233 147.102 332.865 147.383 332.586C147.664 332.307 148.033 332.132 148.427 332.092C148.821 332.052 149.217 332.149 149.549 332.366C151.152 333.318 156.228 337.044 158.585 339.827C165.026 347.402 169.215 350.642 172.554 359.438C175.894 368.233 178.184 383.451 178.184 383.451L173.184 385.614Z" fill="#ECECEC"/>
<path d="M179.182 382.87C179.182 382.87 173.695 335.1 171.548 328.773C169.402 322.446 165.766 307.142 166.663 307.609C167.56 308.076 172.235 314.565 173.81 324.18C175.384 333.795 185.518 380.745 185.518 380.745L179.859 384.023" fill="#ECECEC"/>
<path d="M170.694 385.509C170.47 385.496 170.247 385.47 170.026 385.433C169.587 385.366 168.948 385.29 168.118 385.128C165.786 384.705 163.477 384.164 161.2 383.508C153.599 381.278 146.319 378.075 139.54 373.979C132.68 369.821 126.221 365.036 120.247 359.685C117.937 357.637 116.125 355.874 114.894 354.702C114.273 354.101 113.806 353.625 113.491 353.301C113.324 353.139 113.168 352.968 113.023 352.786C113.21 352.921 113.386 353.071 113.548 353.234L114.999 354.587C116.268 355.759 118.109 357.446 120.437 359.457C126.443 364.718 132.899 369.444 139.731 373.579C146.482 377.662 153.712 380.898 161.257 383.213C164.12 384.07 166.496 384.633 168.127 384.966C168.948 385.147 169.587 385.252 170.036 385.347C170.261 385.377 170.481 385.432 170.694 385.509Z" fill="#E1E1E1"/>
<path d="M161.899 366.156C161.603 365.837 161.334 365.492 161.098 365.126L159.018 362.268C157.252 359.847 154.781 356.55 151.928 352.958C149.075 349.365 146.365 346.287 144.39 344.01L142.033 341.351C141.731 341.04 141.454 340.705 141.203 340.351C141.545 340.62 141.864 340.916 142.157 341.237C142.749 341.828 143.589 342.704 144.61 343.81C146.642 346.002 149.38 349.118 152.243 352.691C155.106 356.264 157.548 359.628 159.256 362.106C160.105 363.335 160.783 364.355 161.231 365.06C161.481 365.408 161.704 365.774 161.899 366.156Z" fill="#E1E1E1"/>
<path d="M147.828 332.956C148.001 333.061 148.162 333.185 148.305 333.328L149.632 334.452C150.204 334.938 150.901 335.548 151.664 336.311C152.427 337.073 153.334 337.883 154.24 338.893L155.691 340.446C156.196 340.989 156.645 341.599 157.198 342.199C158.257 343.4 159.278 344.772 160.376 346.192C165.026 352.475 168.738 359.399 171.396 366.746C171.978 368.443 172.551 370.053 172.961 371.587C173.171 372.359 173.41 373.093 173.582 373.807C173.753 374.522 173.915 375.208 174.068 375.875C174.412 377.181 174.593 378.391 174.793 379.439C174.994 380.487 175.127 381.402 175.213 382.155C175.299 382.908 175.366 383.432 175.414 383.87C175.424 384.07 175.424 384.271 175.414 384.471C175.35 384.278 175.305 384.081 175.28 383.88C175.213 383.441 175.118 382.879 175.003 382.164C174.889 381.45 174.746 380.516 174.517 379.477C174.288 378.439 174.087 377.228 173.734 375.923C173.572 375.275 173.4 374.589 173.228 373.874C173.057 373.16 172.799 372.435 172.58 371.673C172.16 370.148 171.625 368.547 170.986 366.908C169.627 363.274 168.033 359.731 166.215 356.303C164.36 352.893 162.289 349.605 160.013 346.459C158.935 345.039 157.933 343.667 156.883 342.466C156.378 341.856 155.929 341.256 155.404 340.703L153.983 339.141C153.086 338.121 152.198 337.282 151.444 336.52C150.691 335.758 150.032 335.119 149.469 334.614L148.2 333.423C148.063 333.278 147.939 333.122 147.828 332.956Z" fill="#E1E1E1"/>
<path d="M166.984 308.486C166.984 308.486 166.984 308.543 167.07 308.667L167.29 309.2C167.461 309.677 167.748 310.382 168.063 311.297C168.692 313.117 169.522 315.794 170.353 319.139C171.183 322.484 172.003 326.496 172.795 330.965C173.587 335.434 174.37 340.36 175.372 345.497C176.374 350.633 177.624 355.483 178.73 359.905C179.837 364.326 180.81 368.309 181.45 371.683C181.981 374.34 182.367 377.025 182.604 379.725C182.709 380.678 182.728 381.421 182.757 381.926C182.757 382.155 182.757 382.336 182.757 382.498C182.767 382.561 182.767 382.626 182.757 382.689C182.748 382.625 182.748 382.561 182.757 382.498C182.757 382.336 182.757 382.155 182.7 381.926C182.643 381.421 182.595 380.688 182.471 379.735C182.27 377.829 181.879 375.094 181.192 371.73C180.505 368.366 179.532 364.393 178.387 359.981C177.242 355.569 175.982 350.719 175 345.563C174.017 340.408 173.225 335.482 172.442 331.022C171.66 326.562 170.897 322.541 170.095 319.196C169.293 315.852 168.521 313.174 167.939 311.335C167.643 310.382 167.395 309.715 167.232 309.229L167.061 308.676C167.031 308.615 167.005 308.551 166.984 308.486Z" fill="#E1E1E1"/>
<path d="M110.736 329.764C110.367 329.675 109.978 329.714 109.634 329.875C109.289 330.035 109.01 330.307 108.84 330.647C108.671 330.986 108.622 331.373 108.701 331.744C108.78 332.115 108.983 332.448 109.276 332.689C110.982 334.315 112.792 335.827 114.696 337.216C119.991 341.075 137.51 355.788 146.585 364.183C155.659 372.578 171.155 389.073 171.155 389.073L177.195 384.023C177.195 384.023 152.873 356.264 140.325 348.451C130.239 342.18 117.806 331.87 110.736 329.764Z" fill="#ECECEC"/>
<path d="M152.125 369.51C152.432 369.696 152.717 369.917 152.974 370.167C153.499 370.615 154.243 371.273 155.14 372.121C156.944 373.807 159.358 376.228 161.963 378.953C164.568 381.678 166.877 384.204 168.527 386.043L170.436 388.225C170.69 388.484 170.917 388.768 171.113 389.073C170.824 388.858 170.558 388.612 170.321 388.339L168.279 386.243L161.6 379.249C158.995 376.523 156.619 374.074 154.873 372.34L152.793 370.291C152.548 370.051 152.324 369.789 152.125 369.51Z" fill="#E1E1E1"/>
<path d="M174.183 386.538C174.126 386.486 174.075 386.429 174.03 386.367L173.629 385.852C173.276 385.395 172.78 384.69 172.093 383.842C170.757 382.098 168.744 379.639 166.101 376.752C163.004 373.383 159.74 370.171 156.321 367.128C152.504 363.678 148.086 360.095 143.372 356.484C133.916 349.289 125.09 343.143 118.888 338.445C115.777 336.101 113.296 334.157 111.598 332.785C110.749 332.099 110.1 331.555 109.69 331.184L109.193 330.755L109.031 330.603C109.031 330.603 109.098 330.603 109.222 330.726L109.737 331.117L111.722 332.651C113.44 333.985 115.949 335.891 119.079 338.207C125.319 342.857 134.174 348.937 143.639 356.141C148.41 359.762 152.752 363.364 156.588 366.832C160.01 369.895 163.266 373.14 166.339 376.552C168.963 379.477 170.948 381.964 172.255 383.737C172.923 384.614 173.391 385.328 173.725 385.795C173.877 386.024 174.002 386.195 174.097 386.348C174.192 386.5 174.192 386.529 174.183 386.538Z" fill="#E1E1E1"/>
<path d="M177.195 384.023C176.851 383.687 176.532 383.328 176.241 382.946L173.808 379.954C171.737 377.448 168.808 374.036 165.382 370.425C161.957 366.813 158.703 363.754 156.26 361.639L153.398 359.104C153.032 358.811 152.688 358.492 152.367 358.151C152.763 358.398 153.14 358.675 153.493 358.98C154.209 359.542 155.23 360.362 156.461 361.42C158.922 363.526 162.253 366.546 165.688 370.139C169.123 373.731 172.033 377.181 174.046 379.744C175.048 381.031 175.859 382.079 176.384 382.822C176.684 383.202 176.955 383.603 177.195 384.023Z" fill="#E1E1E1"/>
<path d="M190.369 375.037L164.148 390.21L183.915 424.278L210.136 409.105L190.369 375.037Z" fill="#E1E1E1"/>
<path d="M182.007 379.867L158.742 393.33L178.509 427.398L201.774 413.935L182.007 379.867Z" fill="#ECECEC"/>
<path d="M145.247 60.9482L146.459 134.103L60.6398 135.714L59.4375 62.5587L145.247 60.9482Z" fill="#FAFAFA"/>
<path d="M145.246 60.9864H144.836H143.634L138.968 61.1007L121.401 61.4914L59.4365 62.7969L59.6559 62.5491C60.0281 84.3231 60.4479 109.289 60.8964 135.695L60.6388 135.437L146.458 133.874L146.248 134.094C145.933 112.062 145.666 93.8046 145.485 81.0356C145.399 74.6511 145.332 69.6007 145.294 66.2083C145.294 64.5026 145.294 63.1971 145.246 62.2919V60.9864C145.246 60.9864 145.246 61.4247 145.294 62.2919C145.342 63.159 145.294 64.474 145.38 66.1607C145.446 69.5816 145.551 74.5749 145.675 80.9403C145.914 93.7474 146.258 112.053 146.63 134.132V134.36H146.42L60.6483 135.98H60.4002V135.714C59.9804 109.308 59.5701 84.3422 59.2266 62.5682V62.3205H59.4556L121.563 61.2723L139.063 60.9864L143.681 60.9292H145.246V60.9864Z" fill="#E1E1E1"/>
<path d="M63.5279 131.054L143.307 129.558L142.257 65.6079L62.4688 67.104L63.5279 131.054Z" fill="#ECECEC"/>
<path d="M63.5312 131.054L90.735 90.7837L108.406 115.321L119.904 101.809L143.31 129.558L63.5312 131.054Z" fill="#E1E1E1"/>
<path d="M115.245 85.4474C115.189 86.6735 114.775 87.8564 114.054 88.8503C113.333 89.8443 112.336 90.6058 111.187 91.0411C110.038 91.4764 108.787 91.5664 107.587 91.3C106.387 91.0336 105.292 90.4225 104.436 89.542C103.58 88.6614 103 87.55 102.769 86.3446C102.537 85.1392 102.664 83.8925 103.134 82.7582C103.603 81.624 104.395 80.6517 105.411 79.9612C106.427 79.2707 107.623 78.8922 108.852 78.8723C110.57 78.9049 112.206 79.6141 113.404 80.8456C114.601 82.077 115.263 83.731 115.245 85.4474Z" fill="#E1E1E1"/>
<path d="M243.89 23.356L226.695 132.378L98.7969 109.442L116.001 0.409912L243.89 23.356Z" fill="#FAFAFA"/>
<path d="M243.888 23.3559L243.268 23.2606L241.474 22.9652L234.518 21.755L208.316 17.1524L115.941 0.771925L116.333 0.476523C111.218 32.9231 105.369 70.1247 99.1574 109.499L98.8521 109.032L226.712 132.045L226.35 132.312L238.993 53.2201C240.529 43.691 241.731 36.2487 242.552 31.1412C242.972 28.6001 243.29 26.6561 243.506 25.3093C243.726 23.9943 243.859 23.2987 243.859 23.2987C243.859 23.2987 243.783 23.9562 243.592 25.2045C243.401 26.4528 243.096 28.4635 242.714 30.9792C241.932 36.0772 240.806 43.529 239.317 53.02C236.35 72.0781 232.094 99.4076 226.97 132.331L226.922 132.664L226.608 132.607L98.7471 109.737L98.375 109.67L98.4418 109.28C104.663 69.915 110.541 32.7135 115.674 0.266883L115.732 -0.0856934L116.066 -0.0285188L208.621 16.7522L234.718 21.5168L241.56 22.8699L243.315 23.2129L243.888 23.3559Z" fill="#E1E1E1"/>
<path d="M104.289 103.372L223.199 124.698L238.228 29.3974L119.327 8.07129L104.289 103.372Z" fill="#ECECEC"/>
<path d="M104.289 103.372L155.166 51.5811L175.042 93.2518L195.623 76.5759L223.199 124.698L104.289 103.372Z" fill="#E1E1E1"/>
<path d="M192.966 50.8949C192.088 56.4123 187.241 60.1286 182.022 59.2043C176.802 58.28 173.367 53.0485 174.236 47.5407C175.104 42.0329 180.008 38.307 185.171 39.2313C190.333 40.1556 193.835 45.3871 192.966 50.8949Z" fill="#E1E1E1"/>
<path d="M434.724 338.979L448.54 407.464L506.745 368.557L497.833 316.728C497.782 316.333 497.644 315.953 497.428 315.618C497.213 315.282 496.925 314.998 496.587 314.787C496.248 314.575 495.867 314.441 495.47 314.395C495.074 314.348 494.672 314.39 494.293 314.518L436.527 335.634C435.876 335.884 435.336 336.359 435.005 336.973C434.674 337.586 434.575 338.298 434.724 338.979Z" fill="#ECECEC"/>
<path d="M507.66 429L448.539 407.464L506.716 368.319L547.936 375.818L507.66 429Z" fill="#ECECEC"/>
<path d="M451.681 403.138L504.639 367.699L495.316 318.005L439.43 339.56L451.681 403.138Z" fill="#E1E1E1"/>
<path d="M455.914 407.15L507.888 370.539H507.946H508.003L531.275 375.494L531.562 375.551L531.352 375.771L529.119 378.01L489.644 417.47H489.578L455.962 407.121L489.644 417.222H489.53L528.957 377.695L531.189 375.456L531.266 375.732L507.993 370.758H508.098L455.914 407.15Z" fill="#E1E1E1"/>
<path d="M521.528 387.511C521.528 387.511 521.853 387.511 522.483 387.682L525.145 388.244L534.763 390.35H534.963L534.83 390.522L523.923 404.291L523.857 404.367H523.761L522.998 404.139L509.229 399.936L509 399.87L509.172 399.698L518.122 390.817L520.651 388.349C521.233 387.777 521.548 387.501 521.548 387.501C521.548 387.501 521.242 387.844 520.67 388.454L518.122 390.989L509.296 399.917L509.239 399.67L523.026 403.834L523.79 404.062L523.628 404.12L534.582 390.388L534.648 390.607L525.107 388.397L522.444 387.758L521.528 387.511Z" fill="#E1E1E1"/>
<path d="M526.706 388.387C526.773 388.444 524.283 391.427 521.163 395.057C518.042 398.688 515.438 401.556 515.438 401.499C515.438 401.442 517.861 398.459 520.981 394.829C524.101 391.198 526.63 388.32 526.706 388.387Z" fill="#E1E1E1"/>
<path d="M471.078 382.86C471.078 382.86 471.078 382.67 471.202 382.308C471.326 381.945 471.45 381.355 471.612 380.754C472.013 379.268 472.567 377.352 473.158 375.037C474.523 370.082 476.336 363.526 478.349 356.284C482.099 342.857 484.666 333.7 485.763 329.783C485.763 329.783 485.763 329.974 485.658 330.336C485.553 330.698 485.458 331.222 485.286 331.899L483.788 337.616C482.433 342.562 480.629 349.127 478.635 356.379L473.359 375.113L471.727 380.773L471.259 382.308C471.154 382.679 471.078 382.86 471.078 382.86Z" fill="white"/>
<path d="M469.096 373.236C469.02 373.236 470.747 366.442 472.913 358.123C475.079 349.804 477.026 343.048 477.092 343.105C477.159 343.162 475.451 349.89 473.276 358.218C471.1 366.546 469.173 373.264 469.096 373.236Z" fill="white"/>
<path d="M660.997 162.948L627.935 170.733L556.867 225.392L573.661 248.042L643.068 194.27L660.997 162.948Z" fill="#ECECEC"/>
<path d="M647.707 166.083C647.707 166.083 645.083 172.4 653.651 175.783L660.998 162.948L647.707 166.083Z" fill="#E1E1E1"/>
<path d="M634.366 181.93L565.207 235.988L556.867 225.401L627.935 170.733L628.183 170.676C627.638 171.641 627.312 172.715 627.229 173.82C627.127 175.273 627.413 176.727 628.059 178.032C628.829 179.582 630.138 180.799 631.742 181.453C632.575 181.789 633.468 181.951 634.366 181.93Z" fill="#E1E1E1"/>
<path d="M641.821 191.163L571.555 245.146L573.711 248.004L643.118 194.27C642.596 194.087 642.158 193.72 641.887 193.237C641.617 192.755 641.532 192.19 641.649 191.649C641.693 191.483 641.75 191.32 641.821 191.163Z" fill="#E1E1E1"/>
<path d="M637.631 174.773C637.508 174.827 637.407 174.921 637.345 175.04C637.266 175.214 637.25 175.409 637.299 175.592C637.348 175.776 637.458 175.938 637.612 176.05C638.115 176.348 638.701 176.475 639.282 176.412C639.634 176.383 639.968 176.243 640.236 176.012C640.394 175.88 640.518 175.711 640.596 175.52C640.674 175.329 640.705 175.122 640.684 174.916C640.643 174.694 640.557 174.483 640.431 174.297C640.304 174.11 640.14 173.951 639.95 173.83C639.544 173.551 639.096 173.338 638.623 173.201C637.607 172.847 636.525 172.723 635.455 172.839C635.17 172.861 634.893 172.947 634.645 173.09C634.397 173.234 634.185 173.431 634.024 173.668C633.885 173.944 633.812 174.249 633.812 174.559C633.812 174.868 633.885 175.173 634.024 175.45C634.349 176.007 634.785 176.492 635.306 176.874C635.826 177.256 636.419 177.527 637.049 177.67C638.24 178.009 639.503 177.997 640.688 177.637C641.872 177.278 642.928 176.584 643.728 175.64C643.897 175.412 644.015 175.15 644.072 174.872C644.13 174.594 644.126 174.307 644.062 174.03C643.929 173.508 643.674 173.025 643.318 172.62C642.689 171.879 641.952 171.237 641.133 170.714C639.971 169.991 638.671 169.518 637.316 169.323C636.949 169.269 636.58 169.241 636.209 169.237H635.818C636.319 169.183 636.825 169.183 637.326 169.237C638.704 169.409 640.031 169.87 641.219 170.59C642.057 171.106 642.81 171.749 643.451 172.496C643.829 172.922 644.101 173.431 644.243 173.982C644.315 174.285 644.32 174.599 644.257 174.904C644.195 175.208 644.066 175.496 643.881 175.745C643.06 176.728 641.971 177.45 640.745 177.824C639.52 178.198 638.213 178.207 636.982 177.851C636.337 177.67 635.725 177.387 635.169 177.013C634.592 176.653 634.129 176.138 633.833 175.526C633.691 175.215 633.622 174.874 633.634 174.532C633.646 174.19 633.737 173.855 633.9 173.554C634.077 173.298 634.308 173.084 634.577 172.928C634.846 172.771 635.146 172.676 635.455 172.648C636.552 172.532 637.66 172.663 638.7 173.029C639.182 173.179 639.639 173.4 640.055 173.687C640.262 173.823 640.439 173.999 640.575 174.205C640.711 174.412 640.804 174.644 640.847 174.888C640.867 175.117 640.832 175.347 640.744 175.56C640.656 175.772 640.518 175.96 640.341 176.107C640.044 176.353 639.676 176.497 639.291 176.517C638.685 176.572 638.078 176.424 637.564 176.098C637.4 175.976 637.285 175.8 637.239 175.6C637.194 175.401 637.221 175.192 637.316 175.012C637.347 174.951 637.392 174.898 637.446 174.857C637.501 174.816 637.564 174.787 637.631 174.773Z" fill="white"/>
<path d="M650.238 181.167C649.932 180.963 649.614 180.778 649.284 180.615C648.389 180.19 647.412 179.966 646.422 179.957C644.975 179.943 643.532 180.112 642.128 180.462C640.396 180.923 638.597 181.071 636.813 180.9C635.017 180.602 633.354 179.769 632.042 178.509C630.951 177.445 630.127 176.139 629.637 174.697C629.304 173.704 629.127 172.666 629.113 171.619C629.1 171.237 629.123 170.854 629.179 170.476V170.771C629.179 170.962 629.179 171.247 629.179 171.619C629.228 172.652 629.424 173.672 629.761 174.649C630.252 176.074 631.077 177.361 632.166 178.404C633.459 179.644 635.1 180.462 636.87 180.748C638.631 180.906 640.406 180.761 642.118 180.319C643.536 179.975 644.992 179.818 646.45 179.852C647.446 179.88 648.423 180.128 649.313 180.576C649.646 180.731 649.958 180.93 650.238 181.167Z" fill="white"/>
<path d="M646.503 188.514C646.318 187.828 645.896 187.23 645.31 186.827C643.866 186.014 642.301 185.438 640.673 185.122C639.066 184.751 637.427 184.537 635.778 184.483C635.139 184.483 634.633 184.483 634.27 184.483C634.09 184.5 633.907 184.5 633.727 184.483C633.906 184.445 634.088 184.423 634.27 184.417C634.623 184.417 635.139 184.359 635.778 184.417C637.439 184.423 639.094 184.618 640.711 184.998C641.606 185.204 642.489 185.461 643.354 185.77C644.078 186.005 644.762 186.345 645.387 186.78C645.81 187.096 646.139 187.521 646.341 188.009C646.42 188.168 646.474 188.339 646.503 188.514Z" fill="white"/>
<path d="M634.375 188.438C634.731 188.32 635.099 188.241 635.472 188.2C636.372 188.038 637.298 188.093 638.172 188.362C638.629 188.509 639.047 188.757 639.395 189.087C639.744 189.416 640.014 189.82 640.186 190.268C640.287 190.546 640.342 190.839 640.348 191.135C640.369 191.242 640.369 191.352 640.348 191.459C640.322 191.07 640.239 190.688 640.1 190.325C639.92 189.918 639.657 189.553 639.328 189.253C639 188.953 638.613 188.724 638.192 188.581C637.341 188.328 636.447 188.257 635.568 188.371C635.172 188.42 634.774 188.443 634.375 188.438Z" fill="white"/>
<path d="M652.985 177.089H652.832L652.364 177.146C652.119 177.18 651.869 177.164 651.63 177.098C651.308 176.99 651.017 176.807 650.781 176.565C650.227 176.069 649.693 175.345 649.044 174.659C648.343 173.865 647.574 173.135 646.744 172.477C645.238 171.327 643.643 170.297 641.973 169.399L640.466 168.57C640.273 168.478 640.091 168.367 639.922 168.236C640.118 168.31 640.309 168.396 640.494 168.494C640.857 168.675 641.391 168.932 642.031 169.275C643.712 170.138 645.309 171.155 646.802 172.315C647.636 172.974 648.409 173.708 649.111 174.506C649.76 175.259 650.284 175.974 650.819 176.479C650.999 176.694 651.228 176.861 651.487 176.968C651.747 177.074 652.028 177.115 652.307 177.089C652.533 177.069 652.759 177.069 652.985 177.089Z" fill="white"/>
<path d="M81.1509 280.48L74.4239 286.111L71.1415 284.653L70.464 281.88C70.464 281.88 77.7158 276.535 77.4486 276.249C76.7671 275.604 75.8917 275.202 74.9582 275.105C73.2169 274.884 71.4585 275.357 70.0633 276.42L68.7942 277.373C67.6219 278.232 66.7126 279.401 66.1682 280.747C65.6238 282.094 65.4659 283.565 65.7122 284.996L65.7599 285.244L45.7221 301.844C44.3733 301.392 42.9127 301.397 41.5676 301.86C40.2225 302.323 39.0683 303.217 38.2849 304.403C37.5014 305.589 37.1325 307.001 37.2357 308.418C37.339 309.835 37.9084 311.178 38.8555 312.238C39.8025 313.299 41.0741 314.017 42.4721 314.28C43.8701 314.544 45.3162 314.339 46.5853 313.696C47.8543 313.054 48.8751 312.01 49.4886 310.729C50.1022 309.447 50.2742 307.998 49.9777 306.608L69.7579 290.018C70.5511 290.704 71.5715 291.071 72.6205 291.047C73.6163 291.065 74.6054 290.882 75.5285 290.509C76.4516 290.135 77.2897 289.58 77.9925 288.875L79.6623 287.245C80.507 286.362 81.0925 285.264 81.355 284.071C81.6175 282.878 81.5469 281.635 81.1509 280.48ZM42.5065 310.592C41.9738 310.355 41.5232 309.966 41.2119 309.474C40.9005 308.981 40.7422 308.408 40.7571 307.826C40.772 307.244 40.9594 306.679 41.2956 306.203C41.6317 305.728 42.1016 305.362 42.6457 305.153C43.1899 304.944 43.7839 304.901 44.3527 305.029C44.9214 305.157 45.4395 305.45 45.8412 305.872C46.243 306.294 46.5105 306.825 46.6099 307.399C46.7092 307.973 46.6361 308.563 46.3996 309.095C46.2424 309.449 46.0171 309.768 45.7363 310.035C45.4556 310.301 45.125 310.51 44.7635 310.649C44.4019 310.788 44.0165 310.855 43.6292 310.845C43.242 310.835 42.8605 310.749 42.5065 310.592Z" fill="#E1E1E1"/>
<path d="M111.449 318.806L89.9039 320.607H89.9802C86.2991 324.989 81.72 328.532 76.5516 330.998C71.3833 333.464 65.7457 334.794 60.0189 334.9C55.2705 334.962 50.5463 334.214 46.0497 332.689C41.1891 331.027 36.6977 328.438 32.8247 325.066C28.5792 321.393 25.1506 316.873 22.7596 311.797C20.3685 306.721 19.0679 301.201 18.9414 295.593C18.8841 294.86 18.8841 294.124 18.9414 293.391C18.9414 292.658 19.0082 291.914 19.0463 291.181C19.0962 290.439 19.1886 289.701 19.323 288.97L19.6665 286.759C19.8192 286.035 20.0291 285.311 20.2009 284.587C20.3726 283.862 20.5444 283.119 20.802 282.414L21.5749 280.289L21.9661 279.222C22.0997 278.869 22.2905 278.536 22.4432 278.193C24.8492 272.917 28.3562 268.216 32.7293 264.404C37.4075 260.324 42.9681 257.382 48.9754 255.807C54.9827 254.232 61.2735 254.068 67.3551 255.327C73.4366 256.586 79.1437 259.234 84.0291 263.064C88.9145 266.893 92.8457 271.801 95.5145 277.402C95.9729 278.282 96.3714 279.193 96.7072 280.127C97.0316 281.08 97.3847 281.957 97.6614 282.862C98.1774 284.632 98.579 286.434 98.8637 288.255C98.9877 289.141 99.1595 290.009 99.2358 290.866C99.3121 291.724 99.3121 292.572 99.3598 293.411L99.4171 294.64C99.4171 295.05 99.4171 295.45 99.4171 295.85C99.4171 296.65 99.3408 297.432 99.3026 298.204V298.127L111.487 318.806L99.0831 298.251C99.0831 297.489 99.1499 296.708 99.1785 295.907C99.1785 295.516 99.1785 295.116 99.1785 294.706C99.1785 294.297 99.1785 293.897 99.1118 293.477C99.1118 292.658 99.0259 291.819 98.9782 290.962C98.9305 290.104 98.7301 289.246 98.606 288.37C98.3179 286.56 97.9131 284.771 97.3942 283.014C97.0889 282.119 96.7358 281.223 96.44 280.308C96.1042 279.38 95.7057 278.476 95.2473 277.602C92.6155 272.036 88.725 267.157 83.8827 263.35C79.0403 259.542 73.3784 256.91 67.3435 255.661C61.3085 254.411 55.0655 254.579 49.1067 256.151C43.1478 257.723 37.6361 260.656 33.006 264.718C28.7053 268.498 25.2606 273.15 22.9012 278.364C22.7485 278.707 22.5577 279.031 22.4241 279.384L22.0425 280.441L21.2696 282.538C21.0215 283.243 20.8784 283.977 20.6875 284.691C20.4967 285.406 20.2963 286.121 20.1436 286.845C19.991 287.569 19.9242 288.303 19.8097 289.037C19.6741 289.758 19.5816 290.487 19.533 291.219C19.533 291.943 19.4662 292.677 19.428 293.401C19.3756 294.127 19.3756 294.857 19.428 295.583C19.6129 303.709 22.2787 311.586 27.0688 318.157C31.8588 324.729 38.5444 329.683 46.231 332.356C50.6884 333.867 55.3693 334.614 60.0762 334.567C65.7664 334.472 71.3703 333.161 76.5105 330.722C81.6507 328.282 86.2079 324.772 89.8753 320.426L111.449 318.806Z" fill="#E1E1E1"/>
<path d="M568.613 114.873L504.406 98.693L518.118 44.4629L555.36 32.1895L582.315 60.6338L568.613 114.873Z" fill="#FFC800"/>
<path d="M568.613 114.873L504.406 98.693L518.118 44.4629L555.36 32.1895L582.315 60.6338L568.613 114.873Z" fill="#E1E1E1"/>
<path d="M566.041 109.813L509.086 95.4627L527.54 22.4316L569.829 33.0947L580.983 50.7045L566.041 109.813Z" fill="#ECECEC"/>
<path d="M569.832 33.0947L580.986 50.7045L566.32 47.0072L569.832 33.0947Z" fill="#DCDCDC"/>
<path d="M551.277 47.0356C553.533 47.5783 555.614 48.6848 557.325 50.2512C559.035 51.8176 560.319 53.7925 561.056 55.9904C561.792 58.1883 561.957 60.5371 561.535 62.8161C561.113 65.0952 560.118 67.2297 558.643 69.0193C557.562 70.1771 556.105 70.9134 554.531 71.0966C554.269 71.0978 554.009 71.0625 553.758 70.9918C553.342 70.9093 552.952 70.7288 552.62 70.4652C552.288 70.2017 552.024 69.8628 551.849 69.4767C551.61 68.8712 551.547 68.2105 551.668 67.5709L551.964 66.294C551.199 66.8614 550.32 67.2566 549.388 67.4524C548.456 67.6481 547.492 67.6398 546.563 67.4279C544.754 66.9224 543.209 65.7395 542.251 64.1254C541.292 62.5113 540.994 60.5903 541.419 58.7622C541.843 56.9341 542.956 55.3398 544.528 54.3111C546.099 53.2823 548.007 52.8983 549.855 53.2391C551.661 53.7121 553.207 54.8794 554.154 56.4861C555.101 58.0928 555.374 60.0086 554.912 61.8153L554.836 62.1107V62.3013L553.548 67.8472C553.472 68.1377 553.472 68.4429 553.548 68.7334C553.609 68.8484 553.698 68.9468 553.806 69.0198C553.914 69.0929 554.038 69.1385 554.168 69.1527L554.473 69.2289C555.509 69.0999 556.456 68.5778 557.116 67.771C558.34 66.3793 559.19 64.7008 559.588 62.8921C560.107 60.64 559.945 58.2849 559.124 56.1245C558.302 53.9641 556.857 52.0956 554.972 50.7553C553.087 49.4149 550.847 48.663 548.534 48.5946C546.221 48.5262 543.939 49.1444 541.978 50.371C540.017 51.5975 538.464 53.3774 537.516 55.4854C536.568 57.5935 536.267 59.9349 536.652 62.2137C537.036 64.4925 538.089 66.6062 539.677 68.2874C541.264 69.9687 543.316 71.1419 545.571 71.6588C546.506 71.9004 547.468 72.019 548.433 72.0114C548.949 72.0114 549.388 72.3545 549.388 72.8976C549.405 73.0211 549.394 73.1468 549.357 73.2657C549.319 73.3846 549.256 73.4936 549.171 73.5849C549.086 73.6762 548.982 73.7474 548.866 73.7933C548.75 73.8393 548.625 73.8588 548.5 73.8505C546.57 73.8955 544.652 73.5294 542.875 72.7766C541.097 72.0239 539.5 70.9016 538.191 69.4847C536.882 68.0677 535.889 66.3885 535.28 64.5587C534.671 62.729 534.459 60.7906 534.659 58.8727C534.858 56.9549 535.464 55.1014 536.437 53.4356C537.409 51.7699 538.726 50.3301 540.299 49.212C541.872 48.094 543.665 47.3233 545.56 46.9514C547.454 46.5794 549.407 46.6146 551.286 47.0547L551.277 47.0356ZM547.012 65.4173C548.35 65.6752 549.736 65.3942 550.867 64.6355C551.999 63.8768 552.784 62.702 553.052 61.3674C553.392 60.0475 553.203 58.6469 552.524 57.4647C551.844 56.2824 550.729 55.4123 549.416 55.0401C548.077 54.7918 546.693 55.0836 545.568 55.8515C544.444 56.6194 543.669 57.8009 543.414 59.1376C543.234 59.7858 543.184 60.4634 543.268 61.131C543.351 61.7986 543.566 62.4431 543.901 63.0271C544.235 63.6111 544.683 64.123 545.217 64.5333C545.751 64.9436 546.361 65.244 547.012 65.4173Z" fill="#A8A8A8"/>
<path d="M578.89 74.2126L568.613 114.873L504.406 98.6738L514.683 58.0322C517.049 60.2906 519.339 62.6062 521.667 64.8932C523.996 67.1802 526.286 69.5624 528.614 71.8589C531.162 74.4413 533.7 77.0618 536.247 79.6919H536.362C536.328 79.7039 536.296 79.7199 536.266 79.7395L541.944 85.6475C544.539 84.7995 547.135 83.9514 549.74 83.1319L549.673 83.0461C549.696 83.074 549.726 83.0967 549.759 83.1128C553.232 82.0074 556.696 80.9021 560.178 79.8253C563.295 78.8533 566.419 77.9004 569.548 76.9665C572.611 76.0327 575.732 75.0798 578.89 74.2126Z" fill="#E1E1E1"/>
<g opacity="0.2">
<path opacity="0.2" d="M578.894 74.2126C575.841 75.3847 572.759 76.4615 569.696 77.5859C566.633 78.7104 563.532 79.7681 560.441 80.8353C557.349 81.9026 553.99 83.0366 550.765 84.1133L550.469 84.2277L541.882 87.0864L541.462 87.2198L541.157 86.9054C539.086 84.7137 537.025 82.5315 534.964 80.3303C534.888 80.2636 534.821 80.1778 534.744 80.1016C532.407 77.6145 530.088 75.1274 527.779 72.6117C525.47 70.096 523.371 67.7995 521.185 65.3887C519 62.9778 516.825 60.5288 514.688 58.0513C517.054 60.3097 519.344 62.6252 521.672 64.9122C524 67.1992 526.29 69.5624 528.619 71.8589C531.166 74.4413 533.704 77.0618 536.252 79.6918L541.929 85.5999C544.525 84.7518 547.12 83.9037 549.725 83.0842C553.198 81.9788 556.662 80.8735 560.145 79.7967C563.262 78.8247 566.385 77.8718 569.515 76.9379C572.616 76.0327 575.736 75.0798 578.894 74.2126Z" fill="black"/>
<path opacity="0.2" d="M536.251 79.6633C536.218 79.6754 536.186 79.6914 536.156 79.711L534.925 80.3113C533.017 81.2642 530.994 82.1504 529 82.989C526.566 84.0277 524.095 84.9901 521.614 85.9525C519.133 86.915 516.653 87.7821 514.133 88.6207C511.614 89.4593 509.076 90.2692 506.5 90.9363C508.876 89.7261 511.271 88.6398 513.742 87.6106C516.214 86.5815 518.656 85.6 521.128 84.6471C523.599 83.6942 526.137 82.8079 528.618 81.9503C530.631 81.2738 532.654 80.6258 534.706 80.0445C535.183 79.9016 535.66 79.7777 536.137 79.6538L536.251 79.6633Z" fill="black"/>
<path opacity="0.2" d="M570.427 107.04C568.519 105.23 566.61 103.315 564.816 101.38C563.023 99.4458 561.238 97.4732 559.483 95.4816C557.727 93.4901 556.038 91.4794 554.378 89.3735C553.023 87.6964 551.706 85.9907 550.446 84.2278C550.17 83.8466 549.903 83.475 549.645 83.1033L549.578 83.0176C549.602 83.0455 549.631 83.0682 549.664 83.0843L550.742 84.1134C552.278 85.5904 553.748 87.1151 555.198 88.6588C557.021 90.5646 558.776 92.5753 560.513 94.5668C562.25 96.5584 563.958 98.5977 565.608 100.675C567.259 102.752 568.91 104.82 570.427 107.04Z" fill="black"/>
</g>
<path d="M289.901 354.799L273.914 397.754L341.736 422.929L357.723 379.975L289.901 354.799Z" fill="white"/>
<path d="M341.749 422.93L307.847 410.542L273.85 398.002L273.602 397.907L273.687 397.659L289.594 354.673L289.718 354.34L290.052 354.463L357.799 379.773L357.989 379.849L357.923 380.049L349.822 401.547L341.749 422.93ZM341.749 422.93L349.65 401.356L357.541 379.897L357.665 380.173L289.794 355.131L290.252 354.921L274.174 397.849L274.021 397.506L307.828 410.151L341.749 422.93Z" fill="#C8C8C8"/>
<path opacity="0.2" d="M357.745 379.973C354.033 381.574 350.302 383.041 346.591 384.594C342.879 386.148 339.139 387.567 335.417 389.016C331.524 390.528 327.631 392.021 323.738 393.494L323.385 393.637L313.051 397.516L312.546 397.687L312.288 397.23L307.011 387.548C306.944 387.443 306.887 387.329 306.82 387.215C304.836 383.556 302.861 379.896 300.914 376.19C299.006 372.683 297.193 369.119 295.342 365.574C293.491 362.029 291.687 358.427 289.922 354.797C292.002 358.123 293.987 361.534 296.01 364.907C298.032 368.281 300.017 371.721 301.983 375.161C304.177 378.972 306.359 382.816 308.528 386.691C310.157 389.581 311.779 392.481 313.395 395.391C316.515 394.247 319.645 393.085 322.755 391.979C326.915 390.461 331.082 388.971 335.255 387.51C338.986 386.205 342.726 384.909 346.467 383.651C350.207 382.393 354.005 381.164 357.745 379.973Z" fill="black"/>
<path opacity="0.2" d="M308.259 387.71H308.154L306.742 388.215C304.509 389.025 302.257 389.75 299.986 390.426C297.219 391.274 294.423 392.027 291.618 392.77C288.813 393.514 286.007 394.171 283.174 394.781C280.34 395.391 277.448 395.972 274.586 396.401C277.315 395.362 280.072 394.495 282.849 393.638C285.626 392.78 288.422 392.046 291.217 391.293C294.013 390.541 296.847 389.883 299.681 389.273C301.942 388.778 304.223 388.32 306.513 387.949L308.116 387.691L308.259 387.71Z" fill="black"/>
<path opacity="0.2" d="M342.101 421.491C340.193 419.29 338.409 416.993 336.672 414.687C334.936 412.381 333.247 410.009 331.586 407.645C329.926 405.282 328.323 402.881 326.815 400.403C325.546 398.421 324.315 396.41 323.151 394.352L322.417 393.028C322.401 392.994 322.382 392.962 322.359 392.932L322.445 393.018L323.485 394.266C324.983 396.048 326.348 397.878 327.798 399.727C329.544 402.042 331.214 404.405 332.874 406.778C334.535 409.151 336.128 411.543 337.645 414.011C339.163 416.479 340.718 418.928 342.101 421.491Z" fill="black"/>
<path d="M273.057 29.7325C273.057 31.6914 272.475 33.6062 271.386 35.235C270.296 36.8637 268.748 38.1332 266.936 38.8828C265.124 39.6324 263.131 39.8285 261.207 39.4464C259.284 39.0642 257.517 38.1209 256.131 36.7358C254.744 35.3507 253.8 33.5859 253.417 31.6647C253.035 29.7435 253.231 27.7521 253.981 25.9424C254.732 24.1326 256.003 22.5858 257.633 21.4975C259.264 20.4092 261.181 19.8284 263.142 19.8284C264.444 19.8268 265.734 20.082 266.938 20.5791C268.141 21.0763 269.235 21.8058 270.156 22.7258C271.077 23.6458 271.807 24.7382 272.305 25.9405C272.803 27.1429 273.058 28.4315 273.057 29.7325Z" fill="#FC81B3"/>
<path d="M312.056 61.8759C312.058 62.8564 311.769 63.8154 311.225 64.6316C310.681 65.4477 309.907 66.0843 309.001 66.4605C308.094 66.8368 307.097 66.9358 306.134 66.7451C305.171 66.5544 304.287 66.0825 303.593 65.3893C302.899 64.696 302.426 63.8126 302.235 62.8509C302.044 61.8892 302.144 60.8925 302.52 59.9871C302.897 59.0818 303.534 58.3085 304.351 57.7653C305.168 57.222 306.128 56.9332 307.11 56.9356C308.422 56.9356 309.68 57.4561 310.607 58.3826C311.535 59.3091 312.056 60.5657 312.056 61.8759Z" fill="#FC81B3"/>
<path d="M622.142 125.197C622.142 126.177 621.851 127.135 621.305 127.949C620.76 128.764 619.985 129.398 619.079 129.773C618.172 130.147 617.175 130.245 616.213 130.053C615.251 129.861 614.367 129.388 613.674 128.694C612.982 128 612.51 127.117 612.32 126.156C612.13 125.194 612.23 124.198 612.607 123.294C612.984 122.389 613.622 121.616 614.438 121.074C615.255 120.531 616.215 120.242 617.196 120.245C618.509 120.248 619.767 120.771 620.694 121.699C621.621 122.628 622.142 123.885 622.142 125.197Z" fill="#FC81B3"/>
<path d="M570.712 357.244C573.78 357.244 576.267 354.76 576.267 351.695C576.267 348.63 573.78 346.146 570.712 346.146C567.643 346.146 565.156 348.63 565.156 351.695C565.156 354.76 567.643 357.244 570.712 357.244Z" fill="#FC81B3"/>
<path d="M62.1495 238.969C62.1472 240.066 61.8194 241.137 61.2076 242.048C60.5958 242.959 59.7273 243.669 58.712 244.087C57.6968 244.505 56.5802 244.613 55.5033 244.398C54.4265 244.183 53.4378 243.653 52.662 242.877C51.8863 242.1 51.3584 241.111 51.145 240.035C50.9316 238.959 51.0422 237.844 51.463 236.831C51.8838 235.817 52.5959 234.951 53.5092 234.342C54.4225 233.733 55.4961 233.408 56.5943 233.408C57.3248 233.408 58.0481 233.552 58.7229 233.831C59.3976 234.111 60.0106 234.521 60.5266 235.037C61.0426 235.554 61.4515 236.167 61.73 236.841C62.0085 237.516 62.151 238.239 62.1495 238.969Z" fill="#FC81B3"/>
</g>
<defs>
<clipPath id="clip0_1051_2955">
<rect width="661" height="429" fill="white"/>
</clipPath>
</defs>
</svg>
