<?xml version="1.0" standalone="no"?><!DOCTYPE svg PUBLIC "-//W3C//DTD SVG 1.1//EN" "http://www.w3.org/Graphics/SVG/1.1/DTD/svg11.dtd"><svg t="1581303063516" class="icon" viewBox="0 0 1024 1024" version="1.1" xmlns="http://www.w3.org/2000/svg" p-id="1546" xmlns:xlink="http://www.w3.org/1999/xlink" width="32" height="32"><defs><style type="text/css"></style></defs><path d="M815.3 362.1c-16.6 0-30 13.4-30 30V799c0 37.9-23.1 70-50.4 70h-87.6V392c0-16.4-13.5-29.9-30-29.9s-30 13.5-30 30V869H438.2V392.1c0-16.5-13.5-30-30-30s-30 13.5-30 30.1V869h-87.5c-27.3 0-50.4-32.1-50.4-70V392.1c0-16.6-13.4-30-30-30s-30 13.4-30 30V799c0 71.7 49.5 130 110.4 130h444.1c60.9 0 110.5-58.3 110.5-130V392.1c0-16.6-13.4-30-30-30zM897.8 227.1h-770c-16.5 0-30 13.5-30 30s13.5 30 30 30h770c16.5 0 30-13.5 30-30s-13.5-30-30-30zM356.8 166.1h312c16.5 0 30-13.6 30-30.2s-13.5-30.2-30-30.2h-312c-16.5 0-30 13.6-30 30.2s13.5 30.2 30 30.2z" fill="" p-id="1547"></path></svg>