<svg id="google" xmlns="http://www.w3.org/2000/svg" xmlns:xlink="http://www.w3.org/1999/xlink" viewBox="0 0 24 24" shape-rendering="geometricPrecision" text-rendering="geometricPrecision"><path id="google-s-path1" d="M22.60229,10.00391c-.085978-.475943-.500233-.822153-.98388-.82227h-9.41841c-.265238-.000069-.519632.105266-.707183.292817s-.292886.441945-.292817.707183v3.86816c-.000069.265238.105266.519632.292817.707183s.441945.292886.707183.292817h3.9624c-.282329.476553-.669372.882632-1.13183,1.1875-.845137.535834-1.830169.809068-2.83057.78516-2.127961-.024342-4.000673-1.409981-4.64624-3.4378L7.55347,13.583c-.350269-1.026612-.350269-2.140388,0-3.167l.00024-.00165C8.199724,8.386971,10.072323,7.00183,12.2,6.97754c1.164193-.026722,2.291053.411517,3.1313,1.21777.392997.375534,1.013929.368598,1.39844-.01562L19.5979,5.31152c.191998-.191743.297756-.453327.292967-.72463s-.119712-.528992-.318357-.71384C17.576647,2.001752,14.935776,0.972611,12.2,1C8.038605,0.987688,4.22996,3.335489,2.37134,7.05878l-.00147.00177C1.597398,8.592306,1.196617,10.284489,1.2,12c.002433,1.714838.402918,3.405702,1.16992,4.93945l.00147.00177C4.230002,20.664495,8.038623,23.012293,12.2,23c2.68535.067984,5.295079-.893311,7.29468-2.687l.00073-.00049.00079-.00085.00019-.00013.00006-.00012c2.191626-2.108374,3.391333-5.043995,3.30365-8.08386.000434-.745626-.065766-1.489799-.19781-2.22364ZM12.2,3c1.87107-.018212,3.697957.568542,5.2085,1.67285L15.95483,6.126C14.852605,5.363054,13.540424,4.961708,12.2,4.97754c-2.491819.012815-4.78233,1.370752-5.98931,3.55078L5.14148,7.69958l-.585-.45367C6.192932,4.598053,9.08728,2.990268,12.2,3ZM3.67944,14.90332c-.63932-1.882754-.63932-3.923886,0-5.80664l1.78223,1.38184c-.227868,1.001198-.227868,2.040802,0,3.042ZM12.2,21c-3.112773.009677-6.007145-1.598173-7.6436-4.24609l.37841-.29352l1.27588-.98969C7.417153,17.651361,9.707878,19.009799,12.2,19.02246c1.145651.013476,2.278294-.243767,3.30573-.75079L17.19739,19.585C15.709589,20.543615,13.969513,21.036314,12.2,21Zm6.52588-2.76074l-.183-.142L17.16553,17.028c.722194-.780273,1.207624-1.749819,1.39966-2.79553.054354-.292238-.024146-.593509-.214199-.822064s-.471951-.360692-.769201-.360556h-4.38179v-1.86821h7.54883c.03418.3457.05127.69531.05127,1.0459.058467,2.188833-.678474,4.324662-2.07427,6.01172Z" fill="#fff"/></svg>