<svg id="facebook" xmlns="http://www.w3.org/2000/svg" xmlns:xlink="http://www.w3.org/1999/xlink" viewBox="0 0 32 32" shape-rendering="geometricPrecision" text-rendering="geometricPrecision"><path id="facebook-u-facebook-fb-face-book" d="M24,3L8,3C5.238576,3,3,5.238576,3,8v16c0,2.761424,2.238576,5,5,5h8c.552285,0,1-.447715,1-1v-8c0-.552285-.447715-1-1-1h-1v-2h1c.552285,0,1-.447715,1-1v-3.5c0-1.380712,1.119288-2.5,2.5-2.5h2.5v2h-1c-1.104569,0-2,.895431-2,2v2c0,.552285.447715,1,1,1h1.72l-.5,2L20,19c-.552285,0-1,.447715-1,1v4c0,.552285.447715,1,1,1s1-.447715,1-1v-3h1c.470697.013714.887184-.302817,1-.76l1-4c.075896-.299085.009469-.616457-.18-.86-.197239-.250002-.501754-.391119-.82-.38h-2v-1h2c.552285,0,1-.447715,1-1v-4c0-.552285-.447715-1-1-1h-3.5c-2.483.005499-4.494501,2.017-4.5,4.5v2.5h-1c-.552285,0-1,.447715-1,1v4c0,.552285.447715,1,1,1h1v6h-7c-1.656854,0-3-1.343146-3-3L5,8C5,6.343146,6.343146,5,8,5h16c1.656854,0,3,1.343146,3,3v16c0,1.656854-1.343146,3-3,3h-4c-.552285,0-1,.447715-1,1s.447715,1,1,1h4c2.761424,0,5-2.238576,5-5v-16c0-2.761424-2.238576-5-5-5Z" fill="#fff"/></svg>