<svg id="instagram" xmlns="http://www.w3.org/2000/svg" xmlns:xlink="http://www.w3.org/1999/xlink" viewBox="0 0 32 32" shape-rendering="geometricPrecision" text-rendering="geometricPrecision"><g id="instagram-u-ig-instagram-insta-photo"><path id="instagram-s-path1" d="M20.45,13.32c-.248621.095989-.44864.28725-.555658.531327s-.112181.520774-.014342.768673c.679014,1.761702.033734,3.758304-1.547881,4.789395s-3.668835.815867-5.006766-.516272-1.562207-3.418405-.537988-5.004478s3.018004-2.24001,4.782635-1.568645c.516386.196061,1.093939-.063614,1.29-.58s-.063614-1.093939-.58-1.29c-2.64344-.99992-5.626282-.019518-7.161039,2.353693s-1.20526,5.495706.791039,7.496307c2.34254,2.339627,6.13746,2.339627,8.48,0c1.683061-1.678622,2.216443-4.192575,1.36-6.41-.095989-.248621-.28725-.44864-.531327-.555658s-.520774-.112181-.768673-.014342Z" fill="#fff"/><circle id="instagram-s-circle1" r="1" transform="translate(23 9)" fill="#fff"/><path id="instagram-s-path2" d="M28,9c.000545-2.722838-2.177706-4.945543-4.9-5v0C18.409863,3.569387,13.690137,3.569387,9,4C6.269519,3.99965,4.043688,6.189868,4,8.92C3.639977,13.606429,3.639977,18.313571,4,23c-.000545,2.722838,2.177706,4.945543,4.9,5v0c2.36.22,4.73.34,7.1.34s4.71-.11,7.05-.34c2.710999-.026766,4.906754-2.209214,4.95-4.92.380012-4.685641.380012-9.394359,0-14.08ZM26,23c0,1.656854-1.343146,3-3,3h-.1c-4.622408.449987-9.277592.449987-13.9,0-.809706.000288-1.585147-.326741-2.150113-.906773s-.871479-1.363809-.849887-2.173227C5.649996,18.2866,5.649996,13.6334,6,9c-.000365-.811491.32803-1.588516.910257-2.153785s1.368617-.87056,2.179743-.846215q3.44-.31,6.9-.32t7.01.32c.809706-.000288,1.585147.326741,2.150113.906773s.871479,1.363809.849887,2.173227c.37999,4.63222.37999,9.28778,0,13.92Z" fill="#fff"/></g></svg>