<svg id="linkedin" xmlns="http://www.w3.org/2000/svg" xmlns:xlink="http://www.w3.org/1999/xlink" viewBox="0 0 32 32" shape-rendering="geometricPrecision" text-rendering="geometricPrecision"><g id="linkedin-u-in-linkedin-portfolio-social-media"><path id="linkedin-s-path1" d="M6.5,3C4.567003,3,3,4.567003,3,6.5s1.567003,3.5,3.5,3.5s3.5-1.567003,3.5-3.5-1.567003-3.5-3.5-3.5Zm0,5C5.671573,8,5,7.328427,5,6.5s.671573-1.5,1.5-1.5s1.5.671573,1.5,1.5-.671573,1.5-1.5,1.5ZM9,11h-5c-.552285,0-1,.447715-1,1s.447715,1,1,1h4v14h-3v-11c0-.552285-.447715-1-1-1s-1,.447715-1,1v12c0,.552285.447715,1,1,1h5c.552285,0,1-.447715,1-1v-16c0-.552285-.447715-1-1-1Zm18.34,1.68C26.182053,11.55301,24.614953,10.946391,23,11h-1c-1.388657-.063195-2.769147.243964-4,.89-.056315-.508935-.487968-.893106-1-.89h-5c-.552285,0-1,.447715-1,1v16c0,.552285.447715,1,1,1h5c.552285,0,1-.447715,1-1v-9c0-1.104569.895431-2,2-2s2,.895431,2,2v9c0,.552285.447715,1,1,1h5c.552285,0,1-.447715,1-1v-11c.058095-1.60598-.541422-3.166168-1.66-4.32ZM27,27h-3v-8c0-2.209139-1.790861-4-4-4s-4,1.790861-4,4v8h-3v-14h3v1c.002015.403702.246574.766596.62.92.372397.156597.802439.073745,1.09-.21.95-1,1.7-1.71,4.29-1.71h1c1.080675-.046422,2.134081.346802,2.92,1.09.737021.785085,1.126372,1.834171,1.08,2.91Z" fill="#fff"/></g></svg>