<svg id="telegram" xmlns="http://www.w3.org/2000/svg" xmlns:xlink="http://www.w3.org/1999/xlink" viewBox="0 0 32 32" shape-rendering="geometricPrecision" text-rendering="geometricPrecision"><path id="telegram-u-telegram-social-media-network-chat" d="M28.59,4.29c-.631794-.53072-1.505003-.669203-2.27-.36L3.41,13.1c-.682927.283676-1.128003.950499-1.128003,1.69s.445076,1.406324,1.128003,1.69l1.48.61c.508106.214943,1.094295-.022217,1.31-.53.102641-.245273.103378-.521324.002049-.767142s-.296383-.441162-.542049-.542858l-1.1-.45l22.51-9c.070562-.043267.159438-.043267.23,0c.06647.056441.097097.144493.08.23L23.27,25.21c-.027427.138986-.126323.253097-.26.3-.131274.052091-.280454.029141-.39-.06l-8-6.24l7.83-7.91c.345831-.358799.37471-.917465.067719-1.310011s-.85615-.499156-1.287719-.249989L9.75,16.54c-.347837.157203-.575841.498711-.587682.880238s.194549.736517.531969.914986.747007.149284,1.055713-.075224l4.83-2.85-2.35,2.39c-.435294.408991-.66501.991129-.626307,1.587163s.341776,1.143575.826307,1.492837l8,6.15c.421061.324947.938134.500822,1.47.5.28322-.002043.56398-.052783.83-.15.776824-.278865,1.35262-.941789,1.52-1.75L29.33,6.47c.176493-.807658-.108313-1.646679-.74-2.18Z" fill="#fff"/></svg>